FDArraySelect.17.VKana_subset.ufo
<glyph name="uni3041-V" format="2">
  <advance width="1000"/>
  <outline>
    <contour>
      <point x="398" y="601" type="line"/>
      <point x="430" y="553"/>
      <point x="457" y="539"/>
      <point x="504" y="539" type="curve"/>
      <point x="526" y="539"/>
      <point x="550" y="541"/>
      <point x="572" y="543" type="curve"/>
      <point x="567" y="509"/>
      <point x="561" y="472"/>
      <point x="558" y="437" type="curve"/>
      <point x="474" y="392"/>
      <point x="375" y="306"/>
      <point x="375" y="207" type="curve"/>
      <point x="375" y="169"/>
      <point x="394" y="151"/>
      <point x="427" y="151" type="curve"/>
      <point x="471" y="151"/>
      <point x="525" y="175"/>
      <point x="579" y="221" type="curve"/>
      <point x="588" y="198"/>
      <point x="599" y="184"/>
      <point x="612" y="184" type="curve"/>
      <point x="624" y="184"/>
      <point x="634" y="189"/>
      <point x="634" y="203" type="curve"/>
      <point x="634" y="219"/>
      <point x="626" y="234"/>
      <point x="616" y="256" type="curve"/>
      <point x="677" y="319"/>
      <point x="731" y="397"/>
      <point x="757" y="455" type="curve"/>
      <point x="841" y="444"/>
      <point x="892" y="382"/>
      <point x="892" y="310" type="curve"/>
      <point x="892" y="194"/>
      <point x="779" y="129"/>
      <point x="599" y="105" type="curve"/>
      <point x="602" y="89" type="line"/>
      <point x="794" y="94"/>
      <point x="942" y="158"/>
      <point x="942" y="298" type="curve"/>
      <point x="942" y="381"/>
      <point x="879" y="463"/>
      <point x="765" y="476" type="curve"/>
      <point x="769" y="487"/>
      <point x="767" y="495"/>
      <point x="760" y="503" type="curve"/>
      <point x="745" y="519"/>
      <point x="722" y="528"/>
      <point x="696" y="534" type="curve"/>
      <point x="689" y="522" type="line"/>
      <point x="717" y="507"/>
      <point x="728" y="497"/>
      <point x="725" y="478" type="curve"/>
      <point x="676" y="477"/>
      <point x="630" y="467"/>
      <point x="594" y="453" type="curve"/>
      <point x="597" y="485"/>
      <point x="603" y="519"/>
      <point x="609" y="549" type="curve"/>
      <point x="690" y="562"/>
      <point x="777" y="587"/>
      <point x="808" y="600" type="curve"/>
      <point x="821" y="606"/>
      <point x="824" y="612"/>
      <point x="824" y="621" type="curve"/>
      <point x="824" y="633"/>
      <point x="811" y="641"/>
      <point x="786" y="641" type="curve"/>
      <point x="773" y="641"/>
      <point x="721" y="607"/>
      <point x="618" y="587" type="curve"/>
      <point x="626" y="619" type="line"/>
      <point x="633" y="645"/>
      <point x="646" y="647"/>
      <point x="646" y="663" type="curve"/>
      <point x="646" y="677"/>
      <point x="609" y="702"/>
      <point x="566" y="702" type="curve"/>
      <point x="558" y="702"/>
      <point x="542" y="698"/>
      <point x="530" y="696" type="curve"/>
      <point x="529" y="680" type="line"/>
      <point x="545" y="678"/>
      <point x="560" y="676"/>
      <point x="573" y="672" type="curve"/>
      <point x="584" y="668"/>
      <point x="586" y="664"/>
      <point x="586" y="652" type="curve"/>
      <point x="586" y="639"/>
      <point x="582" y="613"/>
      <point x="577" y="580" type="curve"/>
      <point x="555" y="577"/>
      <point x="532" y="576"/>
      <point x="509" y="576" type="curve"/>
      <point x="472" y="576"/>
      <point x="449" y="581"/>
      <point x="410" y="613" type="curve"/>
    </contour>
    <contour>
      <point x="718" y="457" type="curve"/>
      <point x="698" y="409"/>
      <point x="650" y="342"/>
      <point x="602" y="292" type="curve"/>
      <point x="595" y="316"/>
      <point x="589" y="346"/>
      <point x="589" y="387" type="curve"/>
      <point x="591" y="425" type="line"/>
      <point x="633" y="445"/>
      <point x="672" y="455"/>
    </contour>
    <contour>
      <point x="568" y="258" type="curve"/>
      <point x="527" y="223"/>
      <point x="477" y="195"/>
      <point x="440" y="195" type="curve"/>
      <point x="422" y="195"/>
      <point x="414" y="203"/>
      <point x="414" y="224" type="curve"/>
      <point x="414" y="275"/>
      <point x="470" y="354"/>
      <point x="556" y="406" type="curve"/>
      <point x="555" y="379" type="line"/>
      <point x="555" y="340"/>
      <point x="559" y="295"/>
    </contour>
  </outline>
</glyph>
<glyph name="uni3042-V" format="2">
  <advance width="1000"/>
  <outline>
    <contour>
      <point x="182" y="636" type="line"/>
      <point x="230" y="576"/>
      <point x="265" y="567"/>
      <point x="318" y="567" type="curve"/>
      <point x="346" y="567"/>
      <point x="377" y="570"/>
      <point x="404" y="573" type="curve"/>
      <point x="397" y="525"/>
      <point x="390" y="472"/>
      <point x="386" y="424" type="curve"/>
      <point x="287" y="370"/>
      <point x="156" y="255"/>
      <point x="156" y="124" type="curve"/>
      <point x="156" y="77"/>
      <point x="177" y="54"/>
      <point x="217" y="54" type="curve"/>
      <point x="273" y="54"/>
      <point x="340" y="87"/>
      <point x="409" y="150" type="curve"/>
      <point x="419" y="117"/>
      <point x="432" y="95"/>
      <point x="448" y="95" type="curve"/>
      <point x="460" y="95"/>
      <point x="470" y="100"/>
      <point x="470" y="115" type="curve"/>
      <point x="470" y="134"/>
      <point x="458" y="154"/>
      <point x="445" y="186" type="curve"/>
      <point x="526" y="271"/>
      <point x="596" y="374"/>
      <point x="631" y="449" type="curve"/>
      <point x="745" y="436"/>
      <point x="814" y="351"/>
      <point x="814" y="254" type="curve"/>
      <point x="814" y="93"/>
      <point x="657" y="16"/>
      <point x="434" y="-9" type="curve"/>
      <point x="438" y="-31" type="line"/>
      <point x="675" y="-23"/>
      <point x="863" y="63"/>
      <point x="863" y="241" type="curve"/>
      <point x="863" y="349"/>
      <point x="786" y="459"/>
      <point x="642" y="476" type="curve"/>
      <point x="647" y="489"/>
      <point x="645" y="499"/>
      <point x="636" y="511" type="curve"/>
      <point x="617" y="532"/>
      <point x="589" y="544"/>
      <point x="555" y="554" type="curve"/>
      <point x="546" y="536" type="line"/>
      <point x="584" y="515"/>
      <point x="601" y="505"/>
      <point x="596" y="478" type="curve"/>
      <point x="527" y="477"/>
      <point x="465" y="462"/>
      <point x="419" y="441" type="curve"/>
      <point x="424" y="486"/>
      <point x="432" y="535"/>
      <point x="440" y="578" type="curve"/>
      <point x="544" y="593"/>
      <point x="661" y="630"/>
      <point x="699" y="647" type="curve"/>
      <point x="713" y="655"/>
      <point x="714" y="661"/>
      <point x="714" y="669" type="curve"/>
      <point x="714" y="680"/>
      <point x="701" y="690"/>
      <point x="676" y="690" type="curve"/>
      <point x="657" y="690"/>
      <point x="589" y="642"/>
      <point x="449" y="616" type="curve"/>
      <point x="453" y="637"/>
      <point x="458" y="654"/>
      <point x="462" y="667" type="curve"/>
      <point x="469" y="701"/>
      <point x="484" y="700"/>
      <point x="484" y="718" type="curve"/>
      <point x="484" y="734"/>
      <point x="443" y="768"/>
      <point x="390" y="768" type="curve"/>
      <point x="382" y="768"/>
      <point x="366" y="767"/>
      <point x="350" y="766" type="curve"/>
      <point x="349" y="742" type="line"/>
      <point x="369" y="740"/>
      <point x="387" y="738"/>
      <point x="405" y="732" type="curve"/>
      <point x="418" y="727"/>
      <point x="422" y="723"/>
      <point x="422" y="707" type="curve"/>
      <point x="422" y="693"/>
      <point x="416" y="656"/>
      <point x="410" y="610" type="curve"/>
      <point x="380" y="605"/>
      <point x="351" y="604"/>
      <point x="322" y="604" type="curve"/>
      <point x="277" y="604"/>
      <point x="249" y="609"/>
      <point x="199" y="654" type="curve"/>
    </contour>
    <contour>
      <point x="587" y="451" type="curve"/>
      <point x="559" y="384"/>
      <point x="495" y="293"/>
      <point x="432" y="224" type="curve"/>
      <point x="422" y="257"/>
      <point x="414" y="300"/>
      <point x="414" y="358" type="curve"/>
      <point x="416" y="407" type="line"/>
      <point x="471" y="434"/>
      <point x="522" y="449"/>
    </contour>
    <contour>
      <point x="398" y="190" type="curve"/>
      <point x="347" y="140"/>
      <point x="280" y="99"/>
      <point x="230" y="99" type="curve"/>
      <point x="204" y="99"/>
      <point x="194" y="111"/>
      <point x="194" y="141" type="curve"/>
      <point x="194" y="211"/>
      <point x="269" y="316"/>
      <point x="383" y="389" type="curve"/>
      <point x="382" y="354" type="line"/>
      <point x="382" y="302"/>
      <point x="388" y="240"/>
    </contour>
  </outline>
</glyph>
<glyph name="uni3042uni3099-V" format="2">
  <advance width="1000"/>
  <outline>
    <contour>
      <point x="781" y="663" type="curve"/>
      <point x="801" y="638"/>
      <point x="811" y="612"/>
      <point x="825" y="612" type="curve"/>
      <point x="836" y="612"/>
      <point x="844" y="619"/>
      <point x="844" y="634" type="curve"/>
      <point x="844" y="653"/>
      <point x="834" y="671"/>
      <point x="810" y="694" type="curve"/>
      <point x="788" y="714"/>
      <point x="756" y="739"/>
      <point x="710" y="761" type="curve"/>
      <point x="696" y="742" type="line"/>
      <point x="735" y="715"/>
      <point x="760" y="687"/>
    </contour>
    <contour>
      <point x="862" y="728" type="curve"/>
      <point x="883" y="704"/>
      <point x="893" y="678"/>
      <point x="907" y="678" type="curve"/>
      <point x="918" y="678"/>
      <point x="926" y="685"/>
      <point x="926" y="700" type="curve"/>
      <point x="926" y="719"/>
      <point x="916" y="738"/>
      <point x="891" y="760" type="curve"/>
      <point x="870" y="779"/>
      <point x="836" y="800"/>
      <point x="790" y="820" type="curve"/>
      <point x="777" y="802" type="line"/>
      <point x="817" y="774"/>
      <point x="840" y="753"/>
    </contour>
    <contour>
      <point x="172" y="626" type="line"/>
      <point x="220" y="566"/>
      <point x="255" y="557"/>
      <point x="308" y="557" type="curve"/>
      <point x="336" y="557"/>
      <point x="367" y="560"/>
      <point x="394" y="563" type="curve"/>
      <point x="387" y="515"/>
      <point x="380" y="462"/>
      <point x="376" y="414" type="curve"/>
      <point x="277" y="360"/>
      <point x="146" y="245"/>
      <point x="146" y="114" type="curve"/>
      <point x="146" y="67"/>
      <point x="167" y="44"/>
      <point x="207" y="44" type="curve"/>
      <point x="263" y="44"/>
      <point x="330" y="77"/>
      <point x="399" y="140" type="curve"/>
      <point x="409" y="107"/>
      <point x="422" y="85"/>
      <point x="438" y="85" type="curve"/>
      <point x="450" y="85"/>
      <point x="460" y="90"/>
      <point x="460" y="105" type="curve"/>
      <point x="460" y="124"/>
      <point x="448" y="144"/>
      <point x="435" y="176" type="curve"/>
      <point x="516" y="261"/>
      <point x="586" y="364"/>
      <point x="621" y="439" type="curve"/>
      <point x="735" y="426"/>
      <point x="804" y="341"/>
      <point x="804" y="244" type="curve"/>
      <point x="804" y="83"/>
      <point x="647" y="6"/>
      <point x="424" y="-19" type="curve"/>
      <point x="428" y="-41" type="line"/>
      <point x="665" y="-33"/>
      <point x="853" y="53"/>
      <point x="853" y="231" type="curve"/>
      <point x="853" y="339"/>
      <point x="776" y="449"/>
      <point x="632" y="466" type="curve"/>
      <point x="637" y="479"/>
      <point x="635" y="489"/>
      <point x="626" y="501" type="curve"/>
      <point x="607" y="522"/>
      <point x="579" y="534"/>
      <point x="545" y="544" type="curve"/>
      <point x="536" y="526" type="line"/>
      <point x="574" y="505"/>
      <point x="591" y="495"/>
      <point x="586" y="468" type="curve"/>
      <point x="517" y="467"/>
      <point x="455" y="452"/>
      <point x="409" y="431" type="curve"/>
      <point x="414" y="476"/>
      <point x="422" y="525"/>
      <point x="430" y="568" type="curve"/>
      <point x="534" y="583"/>
      <point x="651" y="620"/>
      <point x="689" y="637" type="curve"/>
      <point x="703" y="645"/>
      <point x="704" y="651"/>
      <point x="704" y="659" type="curve"/>
      <point x="704" y="670"/>
      <point x="691" y="680"/>
      <point x="666" y="680" type="curve"/>
      <point x="647" y="680"/>
      <point x="579" y="632"/>
      <point x="439" y="606" type="curve"/>
      <point x="443" y="627"/>
      <point x="448" y="644"/>
      <point x="452" y="657" type="curve"/>
      <point x="459" y="691"/>
      <point x="474" y="690"/>
      <point x="474" y="708" type="curve"/>
      <point x="474" y="724"/>
      <point x="433" y="758"/>
      <point x="380" y="758" type="curve"/>
      <point x="372" y="758"/>
      <point x="356" y="757"/>
      <point x="340" y="756" type="curve"/>
      <point x="339" y="732" type="line"/>
      <point x="359" y="730"/>
      <point x="377" y="728"/>
      <point x="395" y="722" type="curve"/>
      <point x="408" y="717"/>
      <point x="412" y="713"/>
      <point x="412" y="697" type="curve"/>
      <point x="412" y="683"/>
      <point x="406" y="646"/>
      <point x="400" y="600" type="curve"/>
      <point x="370" y="595"/>
      <point x="341" y="594"/>
      <point x="312" y="594" type="curve"/>
      <point x="267" y="594"/>
      <point x="239" y="599"/>
      <point x="189" y="644" type="curve"/>
    </contour>
    <contour>
      <point x="577" y="441" type="curve"/>
      <point x="549" y="374"/>
      <point x="485" y="283"/>
      <point x="422" y="214" type="curve"/>
      <point x="412" y="247"/>
      <point x="404" y="290"/>
      <point x="404" y="348" type="curve"/>
      <point x="406" y="397" type="line"/>
      <point x="461" y="424"/>
      <point x="512" y="439"/>
    </contour>
    <contour>
      <point x="388" y="180" type="curve"/>
      <point x="337" y="130"/>
      <point x="270" y="89"/>
      <point x="220" y="89" type="curve"/>
      <point x="194" y="89"/>
      <point x="184" y="101"/>
      <point x="184" y="131" type="curve"/>
      <point x="184" y="201"/>
      <point x="259" y="306"/>
      <point x="373" y="379" type="curve"/>
      <point x="372" y="344" type="line"/>
      <point x="372" y="292"/>
      <point x="378" y="230"/>
    </contour>
  </outline>
</glyph>
<glyph name="uni3043-V" format="2">
  <advance width="1020"/>
  <outline>
    <contour>
      <point x="409" y="527" type="curve"/>
      <point x="409" y="495"/>
      <point x="405" y="444"/>
      <point x="406" y="389" type="curve"/>
      <point x="408" y="243"/>
      <point x="487" y="179"/>
      <point x="546" y="153" type="curve"/>
      <point x="576" y="140"/>
      <point x="596" y="152"/>
      <point x="596" y="171" type="curve"/>
      <point x="596" y="188"/>
      <point x="583" y="192"/>
      <point x="591" y="224" type="curve"/>
      <point x="595" y="248"/>
      <point x="619" y="311"/>
      <point x="638" y="360" type="curve"/>
      <point x="617" y="369" type="line"/>
      <point x="596" y="323"/>
      <point x="571" y="267"/>
      <point x="547" y="232" type="curve"/>
      <point x="540" y="221"/>
      <point x="532" y="220"/>
      <point x="521" y="226" type="curve"/>
      <point x="489" y="244"/>
      <point x="444" y="293"/>
      <point x="444" y="390" type="curve"/>
      <point x="444" y="476"/>
      <point x="467" y="523"/>
      <point x="467" y="551" type="curve"/>
      <point x="467" y="575"/>
      <point x="430" y="612"/>
      <point x="401" y="625" type="curve"/>
      <point x="390" y="630"/>
      <point x="375" y="633"/>
      <point x="357" y="636" type="curve"/>
      <point x="350" y="625" type="line"/>
      <point x="404" y="587"/>
      <point x="409" y="568"/>
    </contour>
    <contour>
      <point x="761" y="546" type="line"/>
      <point x="810" y="527"/>
      <point x="852" y="501"/>
      <point x="878" y="456" type="curve"/>
      <point x="910" y="403"/>
      <point x="916" y="337"/>
      <point x="921" y="305" type="curve"/>
      <point x="923" y="288"/>
      <point x="933" y="278"/>
      <point x="946" y="278" type="curve"/>
      <point x="964" y="278"/>
      <point x="974" y="291"/>
      <point x="974" y="319" type="curve"/>
      <point x="974" y="369"/>
      <point x="952" y="446"/>
      <point x="909" y="490" type="curve"/>
      <point x="874" y="525"/>
      <point x="838" y="551"/>
      <point x="767" y="564" type="curve"/>
    </contour>
  </outline>
</glyph>
<glyph name="uni3044-V" format="2">
  <advance width="1000"/>
  <outline>
    <contour>
      <point x="192" y="526" type="curve"/>
      <point x="192" y="493"/>
      <point x="187" y="433"/>
      <point x="187" y="367" type="curve"/>
      <point x="187" y="169"/>
      <point x="288" y="87"/>
      <point x="359" y="54" type="curve"/>
      <point x="390" y="39"/>
      <point x="408" y="53"/>
      <point x="408" y="72" type="curve"/>
      <point x="408" y="88"/>
      <point x="392" y="96"/>
      <point x="403" y="132" type="curve"/>
      <point x="411" y="161"/>
      <point x="444" y="242"/>
      <point x="466" y="302" type="curve"/>
      <point x="439" y="314" type="line"/>
      <point x="415" y="256"/>
      <point x="384" y="182"/>
      <point x="355" y="135" type="curve"/>
      <point x="348" y="122"/>
      <point x="340" y="120"/>
      <point x="326" y="128" type="curve"/>
      <point x="282" y="153"/>
      <point x="225" y="221"/>
      <point x="225" y="361" type="curve"/>
      <point x="225" y="451"/>
      <point x="247" y="514"/>
      <point x="247" y="557" type="curve"/>
      <point x="247" y="595"/>
      <point x="203" y="633"/>
      <point x="175" y="647" type="curve"/>
      <point x="161" y="655"/>
      <point x="149" y="659"/>
      <point x="128" y="665" type="curve"/>
      <point x="118" y="647" type="line"/>
      <point x="191" y="596"/>
      <point x="192" y="578"/>
    </contour>
    <contour>
      <point x="625" y="544" type="line"/>
      <point x="682" y="523"/>
      <point x="732" y="500"/>
      <point x="768" y="447" type="curve"/>
      <point x="812" y="384"/>
      <point x="823" y="289"/>
      <point x="828" y="246" type="curve"/>
      <point x="831" y="224"/>
      <point x="838" y="213"/>
      <point x="850" y="213" type="curve"/>
      <point x="867" y="213"/>
      <point x="878" y="222"/>
      <point x="878" y="252" type="curve"/>
      <point x="878" y="313"/>
      <point x="849" y="414"/>
      <point x="797" y="474" type="curve"/>
      <point x="760" y="515"/>
      <point x="718" y="549"/>
      <point x="634" y="571" type="curve"/>
    </contour>
  </outline>
</glyph>
<glyph name="uni3044uni3099-V" format="2">
  <advance width="1000"/>
  <outline>
    <contour>
      <point x="783" y="630" type="curve"/>
      <point x="803" y="605"/>
      <point x="813" y="579"/>
      <point x="827" y="579" type="curve"/>
      <point x="838" y="579"/>
      <point x="846" y="586"/>
      <point x="846" y="601" type="curve"/>
      <point x="846" y="620"/>
      <point x="836" y="638"/>
      <point x="812" y="661" type="curve"/>
      <point x="790" y="681"/>
      <point x="758" y="706"/>
      <point x="712" y="728" type="curve"/>
      <point x="698" y="709" type="line"/>
      <point x="737" y="682"/>
      <point x="762" y="654"/>
    </contour>
    <contour>
      <point x="864" y="695" type="curve"/>
      <point x="885" y="671"/>
      <point x="895" y="645"/>
      <point x="909" y="645" type="curve"/>
      <point x="920" y="645"/>
      <point x="928" y="652"/>
      <point x="928" y="667" type="curve"/>
      <point x="928" y="686"/>
      <point x="918" y="705"/>
      <point x="893" y="727" type="curve"/>
      <point x="871" y="746"/>
      <point x="838" y="767"/>
      <point x="792" y="787" type="curve"/>
      <point x="779" y="769" type="line"/>
      <point x="819" y="742"/>
      <point x="842" y="720"/>
    </contour>
    <contour>
      <point x="182" y="516" type="curve"/>
      <point x="182" y="483"/>
      <point x="177" y="423"/>
      <point x="177" y="357" type="curve"/>
      <point x="177" y="159"/>
      <point x="278" y="77"/>
      <point x="349" y="44" type="curve"/>
      <point x="380" y="29"/>
      <point x="398" y="43"/>
      <point x="398" y="62" type="curve"/>
      <point x="398" y="78"/>
      <point x="382" y="86"/>
      <point x="393" y="122" type="curve"/>
      <point x="401" y="151"/>
      <point x="434" y="232"/>
      <point x="456" y="292" type="curve"/>
      <point x="429" y="304" type="line"/>
      <point x="405" y="246"/>
      <point x="374" y="172"/>
      <point x="345" y="125" type="curve"/>
      <point x="338" y="112"/>
      <point x="330" y="110"/>
      <point x="316" y="118" type="curve"/>
      <point x="272" y="143"/>
      <point x="215" y="211"/>
      <point x="215" y="351" type="curve"/>
      <point x="215" y="441"/>
      <point x="237" y="504"/>
      <point x="237" y="547" type="curve"/>
      <point x="237" y="585"/>
      <point x="193" y="623"/>
      <point x="165" y="637" type="curve"/>
      <point x="151" y="645"/>
      <point x="139" y="649"/>
      <point x="118" y="655" type="curve"/>
      <point x="108" y="637" type="line"/>
      <point x="181" y="586"/>
      <point x="182" y="568"/>
    </contour>
    <contour>
      <point x="615" y="534" type="line"/>
      <point x="672" y="513"/>
      <point x="722" y="490"/>
      <point x="758" y="437" type="curve"/>
      <point x="802" y="374"/>
      <point x="813" y="279"/>
      <point x="818" y="236" type="curve"/>
      <point x="821" y="214"/>
      <point x="828" y="203"/>
      <point x="840" y="203" type="curve"/>
      <point x="857" y="203"/>
      <point x="868" y="212"/>
      <point x="868" y="242" type="curve"/>
      <point x="868" y="303"/>
      <point x="839" y="404"/>
      <point x="787" y="464" type="curve"/>
      <point x="750" y="505"/>
      <point x="708" y="539"/>
      <point x="624" y="561" type="curve"/>
    </contour>
  </outline>
</glyph>
<glyph name="uni3045-V" format="2">
  <advance width="1020"/>
  <outline>
    <contour>
      <point x="469" y="514" type="curve"/>
      <point x="456" y="510" type="line"/>
      <point x="454" y="490"/>
      <point x="452" y="474"/>
      <point x="459" y="458" type="curve"/>
      <point x="468" y="439"/>
      <point x="496" y="409"/>
      <point x="520" y="409" type="curve"/>
      <point x="539" y="409"/>
      <point x="552" y="425"/>
      <point x="568" y="436" type="curve"/>
      <point x="598" y="454"/>
      <point x="670" y="501"/>
      <point x="721" y="501" type="curve"/>
      <point x="768" y="501"/>
      <point x="804" y="456"/>
      <point x="804" y="375" type="curve"/>
      <point x="804" y="225"/>
      <point x="702" y="138"/>
      <point x="518" y="93" type="curve"/>
      <point x="524" y="75" type="line"/>
      <point x="727" y="107"/>
      <point x="857" y="200"/>
      <point x="857" y="367" type="curve"/>
      <point x="857" y="466"/>
      <point x="805" y="528"/>
      <point x="726" y="528" type="curve"/>
      <point x="645" y="528"/>
      <point x="545" y="467"/>
      <point x="513" y="467" type="curve"/>
      <point x="496" y="467"/>
      <point x="482" y="483"/>
    </contour>
    <contour>
      <point x="528" y="720" type="line"/>
      <point x="576" y="663"/>
      <point x="640" y="656"/>
      <point x="664" y="652" type="curve"/>
      <point x="643" y="638"/>
      <point x="608" y="619"/>
      <point x="576" y="602" type="curve"/>
      <point x="583" y="588" type="line"/>
      <point x="620" y="603"/>
      <point x="681" y="628"/>
      <point x="720" y="639" type="curve"/>
      <point x="742" y="645"/>
      <point x="762" y="646"/>
      <point x="774" y="647" type="curve"/>
      <point x="791" y="648"/>
      <point x="799" y="653"/>
      <point x="799" y="662" type="curve"/>
      <point x="799" y="682"/>
      <point x="768" y="694"/>
      <point x="741" y="694" type="curve"/>
      <point x="728" y="694"/>
      <point x="703" y="689"/>
      <point x="681" y="689" type="curve"/>
      <point x="638" y="689"/>
      <point x="592" y="696"/>
      <point x="538" y="731" type="curve"/>
    </contour>
  </outline>
</glyph>
<glyph name="uni3046-V" format="2">
  <advance width="1000"/>
  <outline>
    <contour>
      <point x="261" y="507" type="curve"/>
      <point x="243" y="501" type="line"/>
      <point x="243" y="475"/>
      <point x="243" y="463"/>
      <point x="252" y="443" type="curve"/>
      <point x="263" y="421"/>
      <point x="295" y="389"/>
      <point x="322" y="389" type="curve"/>
      <point x="342" y="389"/>
      <point x="357" y="405"/>
      <point x="377" y="416" type="curve"/>
      <point x="412" y="438"/>
      <point x="510" y="498"/>
      <point x="576" y="498" type="curve"/>
      <point x="635" y="498"/>
      <point x="685" y="443"/>
      <point x="685" y="335" type="curve"/>
      <point x="685" y="141"/>
      <point x="559" y="27"/>
      <point x="327" y="-27" type="curve"/>
      <point x="336" y="-51" type="line"/>
      <point x="575" y="-7"/>
      <point x="734" y="114"/>
      <point x="734" y="325" type="curve"/>
      <point x="734" y="450"/>
      <point x="673" y="527"/>
      <point x="581" y="527" type="curve"/>
      <point x="479" y="527"/>
      <point x="349" y="446"/>
      <point x="314" y="446" type="curve"/>
      <point x="293" y="446"/>
      <point x="279" y="463"/>
    </contour>
    <contour>
      <point x="339" y="774" type="line"/>
      <point x="405" y="704"/>
      <point x="485" y="697"/>
      <point x="511" y="693" type="curve"/>
      <point x="484" y="675"/>
      <point x="444" y="653"/>
      <point x="404" y="630" type="curve"/>
      <point x="413" y="611" type="line"/>
      <point x="460" y="631"/>
      <point x="534" y="666"/>
      <point x="577" y="680" type="curve"/>
      <point x="604" y="689"/>
      <point x="624" y="690"/>
      <point x="637" y="691" type="curve"/>
      <point x="653" y="692"/>
      <point x="664" y="696"/>
      <point x="664" y="707" type="curve"/>
      <point x="664" y="728"/>
      <point x="631" y="737"/>
      <point x="603" y="737" type="curve"/>
      <point x="588" y="737"/>
      <point x="552" y="731"/>
      <point x="534" y="731" type="curve"/>
      <point x="478" y="731"/>
      <point x="422" y="742"/>
      <point x="351" y="791" type="curve"/>
    </contour>
  </outline>
</glyph>
<glyph name="uni3047-V" format="2">
  <advance width="1020"/>
  <outline>
    <contour>
      <point x="463" y="528" type="curve"/>
      <point x="451" y="525" type="line"/>
      <point x="449" y="511"/>
      <point x="448" y="497"/>
      <point x="452" y="485" type="curve"/>
      <point x="459" y="463"/>
      <point x="488" y="434"/>
      <point x="519" y="434" type="curve"/>
      <point x="534" y="434"/>
      <point x="543" y="445"/>
      <point x="563" y="454" type="curve"/>
      <point x="606" y="473"/>
      <point x="682" y="495"/>
      <point x="716" y="503" type="curve"/>
      <point x="730" y="506"/>
      <point x="736" y="500"/>
      <point x="726" y="488" type="curve"/>
      <point x="695" y="450"/>
      <point x="621" y="376"/>
      <point x="564" y="321" type="curve"/>
      <point x="524" y="284"/>
      <point x="462" y="225"/>
      <point x="430" y="196" type="curve"/>
      <point x="410" y="176"/>
      <point x="394" y="161"/>
      <point x="394" y="136" type="curve"/>
      <point x="394" y="121"/>
      <point x="404" y="112"/>
      <point x="416" y="112" type="curve"/>
      <point x="428" y="112"/>
      <point x="439" y="119"/>
      <point x="447" y="130" type="curve"/>
      <point x="476" y="166"/>
      <point x="521" y="232"/>
      <point x="572" y="273" type="curve"/>
      <point x="595" y="293"/>
      <point x="618" y="301"/>
      <point x="642" y="301" type="curve"/>
      <point x="667" y="301"/>
      <point x="677" y="286"/>
      <point x="682" y="265" type="curve"/>
      <point x="689" y="238"/>
      <point x="696" y="206"/>
      <point x="701" y="182" type="curve"/>
      <point x="713" y="120"/>
      <point x="734" y="101"/>
      <point x="815" y="101" type="curve"/>
      <point x="871" y="101"/>
      <point x="970" y="108"/>
      <point x="970" y="138" type="curve"/>
      <point x="970" y="154"/>
      <point x="955" y="164"/>
      <point x="925" y="164" type="curve"/>
      <point x="898" y="164"/>
      <point x="885" y="149"/>
      <point x="798" y="149" type="curve"/>
      <point x="761" y="149"/>
      <point x="749" y="162"/>
      <point x="738" y="203" type="curve"/>
      <point x="731" y="231"/>
      <point x="723" y="262"/>
      <point x="715" y="287" type="curve"/>
      <point x="705" y="314"/>
      <point x="680" y="326"/>
      <point x="654" y="326" type="curve"/>
      <point x="642" y="326"/>
      <point x="624" y="325"/>
      <point x="609" y="322" type="curve"/>
      <point x="650" y="362"/>
      <point x="729" y="434"/>
      <point x="760" y="458" type="curve"/>
      <point x="785" y="478"/>
      <point x="810" y="483"/>
      <point x="810" y="498" type="curve"/>
      <point x="810" y="519"/>
      <point x="765" y="546"/>
      <point x="744" y="546" type="curve"/>
      <point x="732" y="546"/>
      <point x="726" y="536"/>
      <point x="707" y="530" type="curve"/>
      <point x="663" y="519"/>
      <point x="533" y="487"/>
      <point x="504" y="487" type="curve"/>
      <point x="489" y="487"/>
      <point x="474" y="503"/>
    </contour>
    <contour>
      <point x="540" y="722" type="line"/>
      <point x="584" y="664"/>
      <point x="644" y="649"/>
      <point x="668" y="644" type="curve"/>
      <point x="646" y="633"/>
      <point x="607" y="617"/>
      <point x="576" y="605" type="curve"/>
      <point x="583" y="589" type="line"/>
      <point x="614" y="599"/>
      <point x="680" y="621"/>
      <point x="713" y="624" type="curve"/>
      <point x="733" y="626"/>
      <point x="745" y="625"/>
      <point x="759" y="625" type="curve"/>
      <point x="778" y="625"/>
      <point x="785" y="634"/>
      <point x="785" y="645" type="curve"/>
      <point x="785" y="665"/>
      <point x="758" y="680"/>
      <point x="735" y="680" type="curve"/>
      <point x="723" y="680"/>
      <point x="715" y="676"/>
      <point x="694" y="677" type="curve"/>
      <point x="645" y="679"/>
      <point x="599" y="698"/>
      <point x="550" y="732" type="curve"/>
    </contour>
  </outline>
</glyph>
<glyph name="uni3048-V" format="2">
  <advance width="1000"/>
  <outline>
    <contour>
      <point x="253" y="527" type="curve"/>
      <point x="238" y="523" type="line"/>
      <point x="235" y="507"/>
      <point x="234" y="491"/>
      <point x="239" y="477" type="curve"/>
      <point x="247" y="452"/>
      <point x="281" y="416"/>
      <point x="317" y="416" type="curve"/>
      <point x="333" y="416"/>
      <point x="342" y="430"/>
      <point x="366" y="439" type="curve"/>
      <point x="423" y="462"/>
      <point x="528" y="490"/>
      <point x="576" y="501" type="curve"/>
      <point x="590" y="504"/>
      <point x="597" y="496"/>
      <point x="587" y="483" type="curve"/>
      <point x="545" y="433"/>
      <point x="451" y="335"/>
      <point x="379" y="262" type="curve"/>
      <point x="327" y="210"/>
      <point x="250" y="134"/>
      <point x="211" y="94" type="curve"/>
      <point x="189" y="71"/>
      <point x="167" y="50"/>
      <point x="167" y="20" type="curve"/>
      <point x="167" y="7"/>
      <point x="175" y="-3"/>
      <point x="187" y="-3" type="curve"/>
      <point x="199" y="-3"/>
      <point x="208" y="4"/>
      <point x="216" y="13" type="curve"/>
      <point x="255" y="62"/>
      <point x="313" y="151"/>
      <point x="382" y="207" type="curve"/>
      <point x="411" y="231"/>
      <point x="440" y="237"/>
      <point x="468" y="237" type="curve"/>
      <point x="503" y="237"/>
      <point x="515" y="215"/>
      <point x="521" y="192" type="curve"/>
      <point x="530" y="157"/>
      <point x="539" y="114"/>
      <point x="546" y="85" type="curve"/>
      <point x="564" y="4"/>
      <point x="586" y="-18"/>
      <point x="684" y="-18" type="curve"/>
      <point x="742" y="-18"/>
      <point x="874" y="-11"/>
      <point x="874" y="22" type="curve"/>
      <point x="874" y="37"/>
      <point x="861" y="48"/>
      <point x="827" y="48" type="curve"/>
      <point x="794" y="48"/>
      <point x="779" y="27"/>
      <point x="663" y="27" type="curve"/>
      <point x="611" y="27"/>
      <point x="596" y="47"/>
      <point x="582" y="107" type="curve"/>
      <point x="572" y="149"/>
      <point x="562" y="187"/>
      <point x="549" y="218" type="curve"/>
      <point x="537" y="254"/>
      <point x="507" y="266"/>
      <point x="478" y="266" type="curve"/>
      <point x="464" y="266"/>
      <point x="441" y="266"/>
      <point x="423" y="261" type="curve"/>
      <point x="473" y="313"/>
      <point x="575" y="412"/>
      <point x="612" y="445" type="curve"/>
      <point x="645" y="473"/>
      <point x="672" y="479"/>
      <point x="672" y="494" type="curve"/>
      <point x="672" y="516"/>
      <point x="625" y="546"/>
      <point x="600" y="546" type="curve"/>
      <point x="587" y="546"/>
      <point x="579" y="534"/>
      <point x="554" y="527" type="curve"/>
      <point x="503" y="513"/>
      <point x="336" y="472"/>
      <point x="301" y="472" type="curve"/>
      <point x="285" y="472"/>
      <point x="268" y="492"/>
    </contour>
    <contour>
      <point x="351" y="776" type="line"/>
      <point x="410" y="705"/>
      <point x="485" y="683"/>
      <point x="515" y="678" type="curve"/>
      <point x="486" y="666"/>
      <point x="434" y="645"/>
      <point x="396" y="630" type="curve"/>
      <point x="405" y="608" type="line"/>
      <point x="442" y="621"/>
      <point x="524" y="652"/>
      <point x="568" y="657" type="curve"/>
      <point x="594" y="660"/>
      <point x="604" y="661"/>
      <point x="617" y="661" type="curve"/>
      <point x="638" y="661"/>
      <point x="645" y="671"/>
      <point x="645" y="681" type="curve"/>
      <point x="645" y="702"/>
      <point x="616" y="713"/>
      <point x="593" y="713" type="curve"/>
      <point x="578" y="713"/>
      <point x="571" y="711"/>
      <point x="548" y="712" type="curve"/>
      <point x="484" y="715"/>
      <point x="426" y="744"/>
      <point x="366" y="790" type="curve"/>
    </contour>
  </outline>
</glyph>
<glyph name="uni3048uni3099-V" format="2">
  <advance width="1000"/>
  <outline>
    <contour>
      <point x="764" y="640" type="curve"/>
      <point x="785" y="614"/>
      <point x="794" y="589"/>
      <point x="808" y="589" type="curve"/>
      <point x="819" y="589"/>
      <point x="828" y="596"/>
      <point x="828" y="611" type="curve"/>
      <point x="828" y="630"/>
      <point x="817" y="647"/>
      <point x="793" y="671" type="curve"/>
      <point x="772" y="691"/>
      <point x="739" y="715"/>
      <point x="693" y="738" type="curve"/>
      <point x="679" y="719" type="line"/>
      <point x="719" y="692"/>
      <point x="744" y="664"/>
    </contour>
    <contour>
      <point x="845" y="705" type="curve"/>
      <point x="867" y="680"/>
      <point x="876" y="655"/>
      <point x="890" y="655" type="curve"/>
      <point x="901" y="655"/>
      <point x="910" y="662"/>
      <point x="910" y="676" type="curve"/>
      <point x="910" y="696"/>
      <point x="899" y="714"/>
      <point x="874" y="737" type="curve"/>
      <point x="853" y="756"/>
      <point x="819" y="776"/>
      <point x="774" y="797" type="curve"/>
      <point x="760" y="778" type="line"/>
      <point x="801" y="751"/>
      <point x="823" y="730"/>
    </contour>
    <contour>
      <point x="243" y="517" type="curve"/>
      <point x="228" y="513" type="line"/>
      <point x="225" y="497"/>
      <point x="224" y="481"/>
      <point x="229" y="467" type="curve"/>
      <point x="237" y="442"/>
      <point x="271" y="406"/>
      <point x="307" y="406" type="curve"/>
      <point x="323" y="406"/>
      <point x="332" y="420"/>
      <point x="356" y="429" type="curve"/>
      <point x="413" y="452"/>
      <point x="518" y="480"/>
      <point x="566" y="491" type="curve"/>
      <point x="580" y="494"/>
      <point x="587" y="486"/>
      <point x="577" y="473" type="curve"/>
      <point x="535" y="423"/>
      <point x="441" y="325"/>
      <point x="369" y="252" type="curve"/>
      <point x="317" y="200"/>
      <point x="240" y="124"/>
      <point x="201" y="84" type="curve"/>
      <point x="179" y="61"/>
      <point x="157" y="40"/>
      <point x="157" y="10" type="curve"/>
      <point x="157" y="-3"/>
      <point x="165" y="-13"/>
      <point x="177" y="-13" type="curve"/>
      <point x="189" y="-13"/>
      <point x="198" y="-6"/>
      <point x="206" y="3" type="curve"/>
      <point x="245" y="52"/>
      <point x="303" y="141"/>
      <point x="372" y="197" type="curve"/>
      <point x="401" y="221"/>
      <point x="430" y="227"/>
      <point x="458" y="227" type="curve"/>
      <point x="493" y="227"/>
      <point x="505" y="205"/>
      <point x="511" y="182" type="curve"/>
      <point x="520" y="147"/>
      <point x="529" y="104"/>
      <point x="536" y="75" type="curve"/>
      <point x="554" y="-6"/>
      <point x="576" y="-28"/>
      <point x="674" y="-28" type="curve"/>
      <point x="732" y="-28"/>
      <point x="864" y="-21"/>
      <point x="864" y="12" type="curve"/>
      <point x="864" y="27"/>
      <point x="851" y="38"/>
      <point x="817" y="38" type="curve"/>
      <point x="784" y="38"/>
      <point x="769" y="17"/>
      <point x="653" y="17" type="curve"/>
      <point x="601" y="17"/>
      <point x="586" y="37"/>
      <point x="572" y="97" type="curve"/>
      <point x="562" y="139"/>
      <point x="552" y="177"/>
      <point x="539" y="208" type="curve"/>
      <point x="527" y="244"/>
      <point x="497" y="256"/>
      <point x="468" y="256" type="curve"/>
      <point x="454" y="256"/>
      <point x="431" y="256"/>
      <point x="413" y="251" type="curve"/>
      <point x="463" y="303"/>
      <point x="565" y="402"/>
      <point x="602" y="435" type="curve"/>
      <point x="635" y="463"/>
      <point x="662" y="469"/>
      <point x="662" y="484" type="curve"/>
      <point x="662" y="506"/>
      <point x="615" y="536"/>
      <point x="590" y="536" type="curve"/>
      <point x="577" y="536"/>
      <point x="569" y="524"/>
      <point x="544" y="517" type="curve"/>
      <point x="493" y="503"/>
      <point x="326" y="462"/>
      <point x="291" y="462" type="curve"/>
      <point x="275" y="462"/>
      <point x="258" y="482"/>
    </contour>
    <contour>
      <point x="341" y="766" type="line"/>
      <point x="400" y="695"/>
      <point x="475" y="673"/>
      <point x="505" y="668" type="curve"/>
      <point x="476" y="656"/>
      <point x="424" y="635"/>
      <point x="386" y="620" type="curve"/>
      <point x="395" y="598" type="line"/>
      <point x="432" y="611"/>
      <point x="514" y="642"/>
      <point x="558" y="647" type="curve"/>
      <point x="584" y="650"/>
      <point x="594" y="651"/>
      <point x="607" y="651" type="curve"/>
      <point x="628" y="651"/>
      <point x="635" y="661"/>
      <point x="635" y="671" type="curve"/>
      <point x="635" y="692"/>
      <point x="606" y="703"/>
      <point x="583" y="703" type="curve"/>
      <point x="568" y="703"/>
      <point x="561" y="701"/>
      <point x="538" y="702" type="curve"/>
      <point x="474" y="705"/>
      <point x="416" y="734"/>
      <point x="356" y="780" type="curve"/>
    </contour>
  </outline>
</glyph>
<glyph name="uni3049-V" format="2">
  <advance width="1020"/>
  <outline>
    <contour>
      <point x="758" y="592" type="line"/>
      <point x="811" y="597"/>
      <point x="869" y="589"/>
      <point x="900" y="546" type="curve"/>
      <point x="908" y="534"/>
      <point x="908" y="527"/>
      <point x="900" y="519" type="curve"/>
      <point x="889" y="509"/>
      <point x="854" y="488"/>
      <point x="838" y="478" type="curve"/>
      <point x="847" y="464" type="line"/>
      <point x="863" y="472"/>
      <point x="893" y="486"/>
      <point x="905" y="488" type="curve"/>
      <point x="929" y="492"/>
      <point x="935" y="472"/>
      <point x="953" y="475" type="curve"/>
      <point x="966" y="477"/>
      <point x="972" y="490"/>
      <point x="971" y="505" type="curve"/>
      <point x="968" y="552"/>
      <point x="913" y="602"/>
      <point x="857" y="613" type="curve"/>
      <point x="824" y="619"/>
      <point x="795" y="617"/>
      <point x="757" y="609" type="curve"/>
    </contour>
    <contour>
      <point x="393" y="244" type="curve"/>
      <point x="378" y="236"/>
      <point x="370" y="232"/>
      <point x="349" y="235" type="curve"/>
      <point x="333" y="237"/>
      <point x="328" y="232"/>
      <point x="328" y="214" type="curve"/>
      <point x="328" y="203"/>
      <point x="333" y="193"/>
      <point x="342" y="184" type="curve"/>
      <point x="349" y="175"/>
      <point x="357" y="170"/>
      <point x="365" y="170" type="curve"/>
      <point x="375" y="170"/>
      <point x="386" y="177"/>
      <point x="408" y="197" type="curve"/>
      <point x="434" y="180"/>
      <point x="464" y="159"/>
      <point x="479" y="145" type="curve"/>
      <point x="504" y="122"/>
      <point x="510" y="93"/>
      <point x="527" y="93" type="curve"/>
      <point x="550" y="93"/>
      <point x="569" y="128"/>
      <point x="569" y="161" type="curve"/>
      <point x="569" y="189"/>
      <point x="565" y="216"/>
      <point x="563" y="318" type="curve"/>
      <point x="623" y="352"/>
      <point x="693" y="384"/>
      <point x="757" y="384" type="curve"/>
      <point x="837" y="384"/>
      <point x="874" y="341"/>
      <point x="874" y="284" type="curve"/>
      <point x="874" y="224"/>
      <point x="833" y="176"/>
      <point x="757" y="176" type="curve"/>
      <point x="706" y="176"/>
      <point x="668" y="197"/>
      <point x="638" y="222" type="curve"/>
      <point x="625" y="210" type="line"/>
      <point x="665" y="158"/>
      <point x="715" y="136"/>
      <point x="767" y="136" type="curve"/>
      <point x="863" y="136"/>
      <point x="920" y="198"/>
      <point x="920" y="274" type="curve"/>
      <point x="920" y="358"/>
      <point x="859" y="412"/>
      <point x="772" y="412" type="curve"/>
      <point x="696" y="412"/>
      <point x="627" y="385"/>
      <point x="563" y="353" type="curve"/>
      <point x="563" y="387" type="line"/>
      <point x="565" y="492" type="line"/>
      <point x="601" y="503"/>
      <point x="649" y="519"/>
      <point x="677" y="533" type="curve"/>
      <point x="693" y="542"/>
      <point x="702" y="550"/>
      <point x="702" y="562" type="curve"/>
      <point x="702" y="578"/>
      <point x="681" y="581"/>
      <point x="669" y="581" type="curve"/>
      <point x="652" y="581"/>
      <point x="626" y="555"/>
      <point x="567" y="533" type="curve"/>
      <point x="568" y="569"/>
      <point x="571" y="599"/>
      <point x="574" y="616" type="curve"/>
      <point x="578" y="640"/>
      <point x="593" y="645"/>
      <point x="593" y="662" type="curve"/>
      <point x="593" y="679"/>
      <point x="546" y="704"/>
      <point x="518" y="704" type="curve"/>
      <point x="500" y="704"/>
      <point x="480" y="696"/>
      <point x="465" y="689" type="curve"/>
      <point x="467" y="674" type="line"/>
      <point x="487" y="674"/>
      <point x="501" y="674"/>
      <point x="515" y="669" type="curve"/>
      <point x="529" y="664"/>
      <point x="532" y="659"/>
      <point x="532" y="644" type="curve"/>
      <point x="530" y="522" type="line"/>
      <point x="499" y="513"/>
      <point x="471" y="509"/>
      <point x="450" y="508" type="curve"/>
      <point x="410" y="507"/>
      <point x="399" y="515"/>
      <point x="360" y="553" type="curve"/>
      <point x="347" y="543" type="line"/>
      <point x="378" y="474"/>
      <point x="410" y="468"/>
      <point x="446" y="468" type="curve"/>
      <point x="468" y="468"/>
      <point x="502" y="475"/>
      <point x="530" y="482" type="curve"/>
      <point x="529" y="378" type="line"/>
      <point x="529" y="334" type="line"/>
      <point x="479" y="305"/>
      <point x="420" y="260"/>
    </contour>
    <contour>
      <point x="529" y="298" type="curve"/>
      <point x="529" y="247"/>
      <point x="529" y="209"/>
      <point x="527" y="182" type="curve"/>
      <point x="525" y="166"/>
      <point x="519" y="164"/>
      <point x="505" y="170" type="curve"/>
      <point x="482" y="180"/>
      <point x="449" y="197"/>
      <point x="422" y="211" type="curve"/>
      <point x="454" y="241"/>
      <point x="492" y="274"/>
    </contour>
  </outline>
</glyph>
<glyph name="uni304A-V" format="2">
  <advance width="1000"/>
  <outline>
    <contour>
      <point x="643" y="606" type="line"/>
      <point x="711" y="610"/>
      <point x="781" y="609"/>
      <point x="822" y="551" type="curve"/>
      <point x="833" y="536"/>
      <point x="834" y="528"/>
      <point x="823" y="517" type="curve"/>
      <point x="810" y="505"/>
      <point x="767" y="478"/>
      <point x="747" y="466" type="curve"/>
      <point x="759" y="446" type="line"/>
      <point x="778" y="457"/>
      <point x="812" y="476"/>
      <point x="826" y="479" type="curve"/>
      <point x="859" y="485"/>
      <point x="862" y="463"/>
      <point x="882" y="469" type="curve"/>
      <point x="893" y="472"/>
      <point x="897" y="484"/>
      <point x="896" y="499" type="curve"/>
      <point x="892" y="555"/>
      <point x="825" y="617"/>
      <point x="761" y="632" type="curve"/>
      <point x="724" y="641"/>
      <point x="690" y="641"/>
      <point x="641" y="632" type="curve"/>
    </contour>
    <contour>
      <point x="192" y="158" type="curve"/>
      <point x="176" y="147"/>
      <point x="165" y="142"/>
      <point x="138" y="147" type="curve"/>
      <point x="121" y="151"/>
      <point x="117" y="143"/>
      <point x="117" y="126" type="curve"/>
      <point x="117" y="116"/>
      <point x="120" y="108"/>
      <point x="130" y="97" type="curve"/>
      <point x="138" y="88"/>
      <point x="147" y="83"/>
      <point x="155" y="83" type="curve"/>
      <point x="165" y="83"/>
      <point x="177" y="86"/>
      <point x="207" y="111" type="curve"/>
      <point x="245" y="88"/>
      <point x="295" y="50"/>
      <point x="313" y="33" type="curve"/>
      <point x="343" y="7"/>
      <point x="346" y="-19"/>
      <point x="363" y="-19" type="curve"/>
      <point x="387" y="-19"/>
      <point x="408" y="18"/>
      <point x="408" y="59" type="curve"/>
      <point x="408" y="93"/>
      <point x="399" y="130"/>
      <point x="396" y="259" type="curve"/>
      <point x="471" y="303"/>
      <point x="563" y="344"/>
      <point x="644" y="344" type="curve"/>
      <point x="744" y="344"/>
      <point x="792" y="290"/>
      <point x="792" y="214" type="curve"/>
      <point x="792" y="139"/>
      <point x="742" y="77"/>
      <point x="644" y="77" type="curve"/>
      <point x="581" y="77"/>
      <point x="534" y="103"/>
      <point x="494" y="134" type="curve"/>
      <point x="479" y="117" type="line"/>
      <point x="531" y="55"/>
      <point x="594" y="34"/>
      <point x="652" y="34" type="curve"/>
      <point x="766" y="34"/>
      <point x="835" y="112"/>
      <point x="835" y="209" type="curve"/>
      <point x="835" y="309"/>
      <point x="763" y="378"/>
      <point x="661" y="378" type="curve"/>
      <point x="566" y="378"/>
      <point x="475" y="340"/>
      <point x="395" y="297" type="curve"/>
      <point x="395" y="344" type="line"/>
      <point x="395" y="393"/>
      <point x="396" y="443"/>
      <point x="397" y="488" type="curve"/>
      <point x="442" y="502"/>
      <point x="502" y="523"/>
      <point x="537" y="542" type="curve"/>
      <point x="555" y="551"/>
      <point x="564" y="561"/>
      <point x="564" y="576" type="curve"/>
      <point x="564" y="587"/>
      <point x="555" y="593"/>
      <point x="537" y="593" type="curve"/>
      <point x="513" y="593"/>
      <point x="480" y="557"/>
      <point x="399" y="526" type="curve"/>
      <point x="401" y="572"/>
      <point x="405" y="610"/>
      <point x="410" y="631" type="curve"/>
      <point x="416" y="662"/>
      <point x="430" y="676"/>
      <point x="430" y="698" type="curve"/>
      <point x="430" y="718"/>
      <point x="374" y="747"/>
      <point x="345" y="747" type="curve"/>
      <point x="327" y="747"/>
      <point x="304" y="741"/>
      <point x="288" y="736" type="curve"/>
      <point x="290" y="714" type="line"/>
      <point x="314" y="715"/>
      <point x="330" y="715"/>
      <point x="346" y="711" type="curve"/>
      <point x="360" y="708"/>
      <point x="364" y="704"/>
      <point x="364" y="685" type="curve"/>
      <point x="364" y="515" type="line"/>
      <point x="325" y="505"/>
      <point x="293" y="501"/>
      <point x="268" y="500" type="curve"/>
      <point x="217" y="498"/>
      <point x="206" y="508"/>
      <point x="157" y="558" type="curve"/>
      <point x="139" y="544" type="line"/>
      <point x="182" y="461"/>
      <point x="219" y="459"/>
      <point x="259" y="459" type="curve"/>
      <point x="285" y="459"/>
      <point x="329" y="469"/>
      <point x="364" y="478" type="curve"/>
      <point x="364" y="279" type="line"/>
      <point x="303" y="242"/>
      <point x="228" y="182"/>
    </contour>
    <contour>
      <point x="364" y="240" type="curve"/>
      <point x="364" y="82" type="line"/>
      <point x="364" y="62"/>
      <point x="357" y="55"/>
      <point x="337" y="65" type="curve"/>
      <point x="225" y="128" type="line"/>
      <point x="268" y="169"/>
      <point x="317" y="211"/>
    </contour>
  </outline>
</glyph>
<glyph name="uni304Auni3099-V" format="2">
  <advance width="1000"/>
  <outline>
    <contour>
      <point x="773" y="684" type="curve"/>
      <point x="797" y="662"/>
      <point x="808" y="639"/>
      <point x="822" y="640" type="curve"/>
      <point x="833" y="641"/>
      <point x="841" y="648"/>
      <point x="839" y="663" type="curve"/>
      <point x="836" y="682"/>
      <point x="825" y="698"/>
      <point x="798" y="718" type="curve"/>
      <point x="774" y="736"/>
      <point x="744" y="751"/>
      <point x="695" y="768" type="curve"/>
      <point x="683" y="748" type="line"/>
      <point x="726" y="726"/>
      <point x="749" y="706"/>
    </contour>
    <contour>
      <point x="852" y="750" type="curve"/>
      <point x="876" y="729"/>
      <point x="887" y="705"/>
      <point x="901" y="706" type="curve"/>
      <point x="912" y="707"/>
      <point x="919" y="713"/>
      <point x="918" y="729" type="curve"/>
      <point x="917" y="748"/>
      <point x="904" y="765"/>
      <point x="877" y="784" type="curve"/>
      <point x="854" y="801"/>
      <point x="823" y="813"/>
      <point x="774" y="829" type="curve"/>
      <point x="765" y="809" type="line"/>
      <point x="806" y="787"/>
      <point x="827" y="773"/>
    </contour>
    <contour>
      <point x="623" y="596" type="line"/>
      <point x="691" y="600"/>
      <point x="761" y="599"/>
      <point x="802" y="541" type="curve"/>
      <point x="813" y="526"/>
      <point x="814" y="518"/>
      <point x="803" y="507" type="curve"/>
      <point x="790" y="495"/>
      <point x="747" y="468"/>
      <point x="727" y="456" type="curve"/>
      <point x="739" y="436" type="line"/>
      <point x="758" y="447"/>
      <point x="792" y="466"/>
      <point x="806" y="469" type="curve"/>
      <point x="839" y="475"/>
      <point x="842" y="453"/>
      <point x="862" y="459" type="curve"/>
      <point x="873" y="462"/>
      <point x="877" y="474"/>
      <point x="876" y="489" type="curve"/>
      <point x="872" y="545"/>
      <point x="805" y="607"/>
      <point x="741" y="622" type="curve"/>
      <point x="704" y="631"/>
      <point x="670" y="631"/>
      <point x="621" y="622" type="curve"/>
    </contour>
    <contour>
      <point x="172" y="148" type="curve"/>
      <point x="156" y="137"/>
      <point x="145" y="132"/>
      <point x="118" y="137" type="curve"/>
      <point x="101" y="141"/>
      <point x="97" y="133"/>
      <point x="97" y="116" type="curve"/>
      <point x="97" y="106"/>
      <point x="100" y="98"/>
      <point x="110" y="87" type="curve"/>
      <point x="118" y="78"/>
      <point x="127" y="73"/>
      <point x="135" y="73" type="curve"/>
      <point x="145" y="73"/>
      <point x="157" y="76"/>
      <point x="187" y="101" type="curve"/>
      <point x="225" y="78"/>
      <point x="275" y="40"/>
      <point x="293" y="23" type="curve"/>
      <point x="323" y="-3"/>
      <point x="326" y="-29"/>
      <point x="343" y="-29" type="curve"/>
      <point x="367" y="-29"/>
      <point x="388" y="8"/>
      <point x="388" y="49" type="curve"/>
      <point x="388" y="83"/>
      <point x="379" y="120"/>
      <point x="376" y="249" type="curve"/>
      <point x="451" y="293"/>
      <point x="543" y="334"/>
      <point x="624" y="334" type="curve"/>
      <point x="724" y="334"/>
      <point x="772" y="280"/>
      <point x="772" y="204" type="curve"/>
      <point x="772" y="129"/>
      <point x="722" y="67"/>
      <point x="624" y="67" type="curve"/>
      <point x="561" y="67"/>
      <point x="514" y="93"/>
      <point x="474" y="124" type="curve"/>
      <point x="459" y="107" type="line"/>
      <point x="511" y="45"/>
      <point x="574" y="24"/>
      <point x="632" y="24" type="curve"/>
      <point x="746" y="24"/>
      <point x="815" y="102"/>
      <point x="815" y="199" type="curve"/>
      <point x="815" y="299"/>
      <point x="743" y="368"/>
      <point x="641" y="368" type="curve"/>
      <point x="546" y="368"/>
      <point x="455" y="330"/>
      <point x="375" y="287" type="curve"/>
      <point x="375" y="334" type="line"/>
      <point x="375" y="383"/>
      <point x="376" y="433"/>
      <point x="377" y="478" type="curve"/>
      <point x="422" y="492"/>
      <point x="482" y="513"/>
      <point x="517" y="532" type="curve"/>
      <point x="535" y="541"/>
      <point x="544" y="551"/>
      <point x="544" y="566" type="curve"/>
      <point x="544" y="577"/>
      <point x="535" y="583"/>
      <point x="517" y="583" type="curve"/>
      <point x="493" y="583"/>
      <point x="460" y="547"/>
      <point x="379" y="516" type="curve"/>
      <point x="381" y="562"/>
      <point x="385" y="600"/>
      <point x="390" y="621" type="curve"/>
      <point x="396" y="652"/>
      <point x="410" y="666"/>
      <point x="410" y="688" type="curve"/>
      <point x="410" y="708"/>
      <point x="354" y="737"/>
      <point x="325" y="737" type="curve"/>
      <point x="307" y="737"/>
      <point x="284" y="731"/>
      <point x="268" y="726" type="curve"/>
      <point x="270" y="704" type="line"/>
      <point x="294" y="705"/>
      <point x="310" y="705"/>
      <point x="326" y="701" type="curve"/>
      <point x="340" y="698"/>
      <point x="344" y="694"/>
      <point x="344" y="675" type="curve"/>
      <point x="344" y="505" type="line"/>
      <point x="305" y="495"/>
      <point x="273" y="491"/>
      <point x="248" y="490" type="curve"/>
      <point x="197" y="488"/>
      <point x="186" y="498"/>
      <point x="137" y="548" type="curve"/>
      <point x="119" y="534" type="line"/>
      <point x="162" y="451"/>
      <point x="199" y="449"/>
      <point x="239" y="449" type="curve"/>
      <point x="265" y="449"/>
      <point x="309" y="459"/>
      <point x="344" y="468" type="curve"/>
      <point x="344" y="269" type="line"/>
      <point x="283" y="232"/>
      <point x="208" y="172"/>
    </contour>
    <contour>
      <point x="344" y="230" type="curve"/>
      <point x="344" y="72" type="line"/>
      <point x="344" y="52"/>
      <point x="337" y="45"/>
      <point x="317" y="55" type="curve"/>
      <point x="205" y="118" type="line"/>
      <point x="248" y="159"/>
      <point x="297" y="201"/>
    </contour>
  </outline>
</glyph>
<glyph name="uni304B-V" format="2">
  <advance width="1000"/>
  <outline>
    <contour>
      <point x="679" y="522" type="line"/>
      <point x="742" y="497"/>
      <point x="779" y="467"/>
      <point x="806" y="429" type="curve"/>
      <point x="835" y="389"/>
      <point x="844" y="347"/>
      <point x="846" y="322" type="curve"/>
      <point x="848" y="298"/>
      <point x="847" y="289"/>
      <point x="827" y="282" type="curve"/>
      <point x="800" y="273"/>
      <point x="728" y="258"/>
      <point x="697" y="252" type="curve"/>
      <point x="702" y="226" type="line"/>
      <point x="734" y="232"/>
      <point x="797" y="241"/>
      <point x="817" y="239" type="curve"/>
      <point x="843" y="236"/>
      <point x="839" y="211"/>
      <point x="865" y="211" type="curve"/>
      <point x="887" y="211"/>
      <point x="895" y="239"/>
      <point x="895" y="272" type="curve"/>
      <point x="895" y="346"/>
      <point x="872" y="409"/>
      <point x="844" y="443" type="curve"/>
      <point x="811" y="486"/>
      <point x="775" y="513"/>
      <point x="697" y="544" type="curve"/>
    </contour>
    <contour>
      <point x="333" y="711" type="line"/>
      <point x="354" y="710"/>
      <point x="392" y="706"/>
      <point x="406" y="700" type="curve"/>
      <point x="419" y="694"/>
      <point x="421" y="686"/>
      <point x="421" y="676" type="curve"/>
      <point x="421" y="658"/>
      <point x="398" y="590"/>
      <point x="368" y="513" type="curve"/>
      <point x="303" y="497"/>
      <point x="208" y="471"/>
      <point x="178" y="471" type="curve"/>
      <point x="149" y="471"/>
      <point x="145" y="506"/>
      <point x="137" y="531" type="curve"/>
      <point x="117" y="527" type="line"/>
      <point x="113" y="510"/>
      <point x="115" y="486"/>
      <point x="118" y="476" type="curve"/>
      <point x="125" y="447"/>
      <point x="158" y="415"/>
      <point x="181" y="415" type="curve"/>
      <point x="202" y="415"/>
      <point x="214" y="426"/>
      <point x="259" y="444" type="curve"/>
      <point x="278" y="452"/>
      <point x="314" y="464"/>
      <point x="354" y="476" type="curve"/>
      <point x="328" y="411"/>
      <point x="299" y="345"/>
      <point x="274" y="297" type="curve"/>
      <point x="217" y="188"/>
      <point x="180" y="127"/>
      <point x="126" y="54" type="curve"/>
      <point x="116" y="39"/>
      <point x="113" y="28"/>
      <point x="113" y="17" type="curve"/>
      <point x="113" y="0"/>
      <point x="125" y="-10"/>
      <point x="133" y="-10" type="curve"/>
      <point x="143" y="-10"/>
      <point x="152" y="-4"/>
      <point x="164" y="14" type="curve"/>
      <point x="206" y="77"/>
      <point x="248" y="160"/>
      <point x="304" y="274" type="curve"/>
      <point x="338" y="344"/>
      <point x="371" y="421"/>
      <point x="398" y="488" type="curve"/>
      <point x="433" y="496"/>
      <point x="466" y="502"/>
      <point x="491" y="502" type="curve"/>
      <point x="546" y="502"/>
      <point x="563" y="470"/>
      <point x="563" y="391" type="curve"/>
      <point x="563" y="274"/>
      <point x="524" y="162"/>
      <point x="498" y="115" type="curve"/>
      <point x="472" y="68"/>
      <point x="447" y="57"/>
      <point x="419" y="57" type="curve"/>
      <point x="398" y="57"/>
      <point x="354" y="86"/>
      <point x="303" y="121" type="curve"/>
      <point x="292" y="105" type="line"/>
      <point x="346" y="60"/>
      <point x="354" y="48"/>
      <point x="362" y="34" type="curve"/>
      <point x="374" y="14"/>
      <point x="377" y="1"/>
      <point x="406" y="1" type="curve"/>
      <point x="453" y="1"/>
      <point x="490" y="26"/>
      <point x="516" y="64" type="curve"/>
      <point x="566" y="134"/>
      <point x="603" y="270"/>
      <point x="603" y="386" type="curve"/>
      <point x="603" y="495"/>
      <point x="565" y="533"/>
      <point x="497" y="533" type="curve"/>
      <point x="474" y="533"/>
      <point x="439" y="528"/>
      <point x="413" y="523" type="curve"/>
      <point x="460" y="639" type="line"/>
      <point x="468" y="661"/>
      <point x="484" y="670"/>
      <point x="484" y="689" type="curve"/>
      <point x="484" y="710"/>
      <point x="421" y="741"/>
      <point x="385" y="741" type="curve"/>
      <point x="366" y="741"/>
      <point x="347" y="738"/>
      <point x="333" y="734" type="curve"/>
    </contour>
  </outline>
</glyph>
<glyph name="uni304Buni309A-V" format="2">
  <advance width="1000"/>
  <outline>
    <contour>
      <point x="731" y="682" type="curve"/>
      <point x="731" y="624"/>
      <point x="777" y="578"/>
      <point x="832" y="578" type="curve"/>
      <point x="887" y="578"/>
      <point x="932" y="624"/>
      <point x="932" y="682" type="curve"/>
      <point x="932" y="739"/>
      <point x="887" y="786"/>
      <point x="832" y="786" type="curve"/>
      <point x="777" y="786"/>
      <point x="731" y="739"/>
    </contour>
    <contour>
      <point x="760" y="682" type="curve"/>
      <point x="760" y="723"/>
      <point x="792" y="757"/>
      <point x="832" y="757" type="curve"/>
      <point x="872" y="757"/>
      <point x="904" y="723"/>
      <point x="904" y="682" type="curve"/>
      <point x="904" y="640"/>
      <point x="872" y="607"/>
      <point x="832" y="607" type="curve"/>
      <point x="792" y="607"/>
      <point x="760" y="640"/>
    </contour>
    <contour>
      <point x="674" y="517" type="line"/>
      <point x="737" y="492"/>
      <point x="774" y="462"/>
      <point x="801" y="424" type="curve"/>
      <point x="830" y="384"/>
      <point x="839" y="342"/>
      <point x="841" y="317" type="curve"/>
      <point x="843" y="293"/>
      <point x="842" y="284"/>
      <point x="822" y="277" type="curve"/>
      <point x="795" y="268"/>
      <point x="723" y="253"/>
      <point x="692" y="247" type="curve"/>
      <point x="697" y="221" type="line"/>
      <point x="729" y="227"/>
      <point x="792" y="236"/>
      <point x="812" y="234" type="curve"/>
      <point x="838" y="231"/>
      <point x="834" y="206"/>
      <point x="860" y="206" type="curve"/>
      <point x="882" y="206"/>
      <point x="890" y="234"/>
      <point x="890" y="267" type="curve"/>
      <point x="890" y="341"/>
      <point x="867" y="404"/>
      <point x="839" y="438" type="curve"/>
      <point x="806" y="481"/>
      <point x="770" y="508"/>
      <point x="692" y="539" type="curve"/>
    </contour>
    <contour>
      <point x="328" y="706" type="line"/>
      <point x="349" y="705"/>
      <point x="387" y="701"/>
      <point x="401" y="695" type="curve"/>
      <point x="414" y="689"/>
      <point x="416" y="681"/>
      <point x="416" y="671" type="curve"/>
      <point x="416" y="653"/>
      <point x="393" y="585"/>
      <point x="363" y="508" type="curve"/>
      <point x="298" y="492"/>
      <point x="203" y="466"/>
      <point x="173" y="466" type="curve"/>
      <point x="144" y="466"/>
      <point x="140" y="501"/>
      <point x="132" y="526" type="curve"/>
      <point x="112" y="522" type="line"/>
      <point x="108" y="505"/>
      <point x="110" y="481"/>
      <point x="113" y="471" type="curve"/>
      <point x="120" y="442"/>
      <point x="153" y="410"/>
      <point x="176" y="410" type="curve"/>
      <point x="197" y="410"/>
      <point x="209" y="421"/>
      <point x="254" y="439" type="curve"/>
      <point x="273" y="447"/>
      <point x="309" y="459"/>
      <point x="349" y="471" type="curve"/>
      <point x="323" y="406"/>
      <point x="294" y="340"/>
      <point x="269" y="292" type="curve"/>
      <point x="212" y="183"/>
      <point x="175" y="122"/>
      <point x="121" y="49" type="curve"/>
      <point x="111" y="34"/>
      <point x="108" y="23"/>
      <point x="108" y="12" type="curve"/>
      <point x="108" y="-5"/>
      <point x="120" y="-15"/>
      <point x="128" y="-15" type="curve"/>
      <point x="138" y="-15"/>
      <point x="147" y="-9"/>
      <point x="159" y="9" type="curve"/>
      <point x="201" y="72"/>
      <point x="243" y="155"/>
      <point x="299" y="269" type="curve"/>
      <point x="333" y="339"/>
      <point x="366" y="416"/>
      <point x="393" y="483" type="curve"/>
      <point x="428" y="491"/>
      <point x="462" y="497"/>
      <point x="486" y="497" type="curve"/>
      <point x="541" y="497"/>
      <point x="558" y="465"/>
      <point x="558" y="386" type="curve"/>
      <point x="558" y="269"/>
      <point x="519" y="157"/>
      <point x="493" y="110" type="curve"/>
      <point x="467" y="63"/>
      <point x="442" y="52"/>
      <point x="414" y="52" type="curve"/>
      <point x="393" y="52"/>
      <point x="349" y="81"/>
      <point x="298" y="116" type="curve"/>
      <point x="287" y="100" type="line"/>
      <point x="341" y="55"/>
      <point x="349" y="43"/>
      <point x="357" y="29" type="curve"/>
      <point x="369" y="9"/>
      <point x="372" y="-4"/>
      <point x="401" y="-4" type="curve"/>
      <point x="448" y="-4"/>
      <point x="485" y="21"/>
      <point x="511" y="59" type="curve"/>
      <point x="561" y="129"/>
      <point x="598" y="265"/>
      <point x="598" y="381" type="curve"/>
      <point x="598" y="490"/>
      <point x="560" y="528"/>
      <point x="492" y="528" type="curve"/>
      <point x="469" y="528"/>
      <point x="434" y="523"/>
      <point x="408" y="518" type="curve"/>
      <point x="455" y="634" type="line"/>
      <point x="463" y="656"/>
      <point x="479" y="665"/>
      <point x="479" y="684" type="curve"/>
      <point x="479" y="705"/>
      <point x="416" y="736"/>
      <point x="380" y="736" type="curve"/>
      <point x="361" y="736"/>
      <point x="342" y="733"/>
      <point x="328" y="729" type="curve"/>
    </contour>
  </outline>
</glyph>
<glyph name="uni304C-V" format="2">
  <advance width="1000"/>
  <outline>
    <contour>
      <point x="783" y="599" type="curve"/>
      <point x="802" y="575"/>
      <point x="812" y="548"/>
      <point x="827" y="548" type="curve"/>
      <point x="838" y="548"/>
      <point x="844" y="556"/>
      <point x="844" y="571" type="curve"/>
      <point x="844" y="590"/>
      <point x="834" y="607"/>
      <point x="810" y="630" type="curve"/>
      <point x="788" y="652"/>
      <point x="755" y="676"/>
      <point x="710" y="698" type="curve"/>
      <point x="696" y="679" type="line"/>
      <point x="735" y="653"/>
      <point x="763" y="623"/>
    </contour>
    <contour>
      <point x="868" y="667" type="curve"/>
      <point x="890" y="643"/>
      <point x="899" y="616"/>
      <point x="912" y="616" type="curve"/>
      <point x="924" y="616"/>
      <point x="931" y="623"/>
      <point x="931" y="638" type="curve"/>
      <point x="931" y="658"/>
      <point x="921" y="677"/>
      <point x="895" y="699" type="curve"/>
      <point x="874" y="718"/>
      <point x="839" y="739"/>
      <point x="794" y="760" type="curve"/>
      <point x="781" y="741" type="line"/>
      <point x="821" y="713"/>
      <point x="845" y="692"/>
    </contour>
    <contour>
      <point x="663" y="517" type="line"/>
      <point x="726" y="492"/>
      <point x="763" y="462"/>
      <point x="790" y="424" type="curve"/>
      <point x="819" y="384"/>
      <point x="828" y="342"/>
      <point x="830" y="317" type="curve"/>
      <point x="832" y="293"/>
      <point x="831" y="284"/>
      <point x="811" y="277" type="curve"/>
      <point x="784" y="268"/>
      <point x="712" y="253"/>
      <point x="681" y="247" type="curve"/>
      <point x="686" y="221" type="line"/>
      <point x="718" y="227"/>
      <point x="781" y="236"/>
      <point x="801" y="234" type="curve"/>
      <point x="827" y="231"/>
      <point x="823" y="206"/>
      <point x="849" y="206" type="curve"/>
      <point x="871" y="206"/>
      <point x="879" y="234"/>
      <point x="879" y="267" type="curve"/>
      <point x="879" y="341"/>
      <point x="856" y="404"/>
      <point x="828" y="438" type="curve"/>
      <point x="795" y="481"/>
      <point x="759" y="508"/>
      <point x="681" y="539" type="curve"/>
    </contour>
    <contour>
      <point x="317" y="706" type="line"/>
      <point x="338" y="705"/>
      <point x="376" y="701"/>
      <point x="390" y="695" type="curve"/>
      <point x="403" y="689"/>
      <point x="405" y="681"/>
      <point x="405" y="671" type="curve"/>
      <point x="405" y="653"/>
      <point x="382" y="585"/>
      <point x="352" y="508" type="curve"/>
      <point x="287" y="492"/>
      <point x="192" y="466"/>
      <point x="162" y="466" type="curve"/>
      <point x="133" y="466"/>
      <point x="129" y="501"/>
      <point x="121" y="526" type="curve"/>
      <point x="101" y="522" type="line"/>
      <point x="97" y="505"/>
      <point x="99" y="481"/>
      <point x="102" y="471" type="curve"/>
      <point x="109" y="442"/>
      <point x="142" y="410"/>
      <point x="165" y="410" type="curve"/>
      <point x="186" y="410"/>
      <point x="198" y="421"/>
      <point x="243" y="439" type="curve"/>
      <point x="262" y="447"/>
      <point x="298" y="459"/>
      <point x="338" y="471" type="curve"/>
      <point x="312" y="406"/>
      <point x="283" y="340"/>
      <point x="258" y="292" type="curve"/>
      <point x="201" y="183"/>
      <point x="164" y="122"/>
      <point x="110" y="49" type="curve"/>
      <point x="100" y="34"/>
      <point x="97" y="23"/>
      <point x="97" y="12" type="curve"/>
      <point x="97" y="-5"/>
      <point x="109" y="-15"/>
      <point x="117" y="-15" type="curve"/>
      <point x="127" y="-15"/>
      <point x="136" y="-9"/>
      <point x="148" y="9" type="curve"/>
      <point x="190" y="72"/>
      <point x="232" y="155"/>
      <point x="288" y="269" type="curve"/>
      <point x="322" y="339"/>
      <point x="355" y="416"/>
      <point x="382" y="483" type="curve"/>
      <point x="417" y="491"/>
      <point x="450" y="497"/>
      <point x="475" y="497" type="curve"/>
      <point x="530" y="497"/>
      <point x="547" y="465"/>
      <point x="547" y="386" type="curve"/>
      <point x="547" y="269"/>
      <point x="508" y="157"/>
      <point x="482" y="110" type="curve"/>
      <point x="456" y="63"/>
      <point x="431" y="52"/>
      <point x="403" y="52" type="curve"/>
      <point x="382" y="52"/>
      <point x="338" y="81"/>
      <point x="287" y="116" type="curve"/>
      <point x="276" y="100" type="line"/>
      <point x="330" y="55"/>
      <point x="338" y="43"/>
      <point x="346" y="29" type="curve"/>
      <point x="358" y="9"/>
      <point x="361" y="-4"/>
      <point x="390" y="-4" type="curve"/>
      <point x="437" y="-4"/>
      <point x="474" y="21"/>
      <point x="500" y="59" type="curve"/>
      <point x="550" y="129"/>
      <point x="587" y="265"/>
      <point x="587" y="381" type="curve"/>
      <point x="587" y="490"/>
      <point x="549" y="528"/>
      <point x="481" y="528" type="curve"/>
      <point x="458" y="528"/>
      <point x="423" y="523"/>
      <point x="397" y="518" type="curve"/>
      <point x="444" y="634" type="line"/>
      <point x="452" y="656"/>
      <point x="468" y="665"/>
      <point x="468" y="684" type="curve"/>
      <point x="468" y="705"/>
      <point x="405" y="736"/>
      <point x="369" y="736" type="curve"/>
      <point x="350" y="736"/>
      <point x="331" y="733"/>
      <point x="317" y="729" type="curve"/>
    </contour>
  </outline>
</glyph>
<glyph name="uni304D-V" format="2">
  <advance width="1000"/>
  <outline>
    <contour>
      <point x="679" y="235" type="curve"/>
      <point x="631" y="249"/>
      <point x="564" y="268"/>
      <point x="471" y="268" type="curve"/>
      <point x="315" y="268"/>
      <point x="242" y="191"/>
      <point x="242" y="116" type="curve"/>
      <point x="242" y="-1"/>
      <point x="385" y="-35"/>
      <point x="491" y="-35" type="curve"/>
      <point x="619" y="-35"/>
      <point x="662" y="-19"/>
      <point x="662" y="1" type="curve"/>
      <point x="662" y="13"/>
      <point x="648" y="24"/>
      <point x="625" y="24" type="curve"/>
      <point x="595" y="24"/>
      <point x="567" y="15"/>
      <point x="503" y="15" type="curve"/>
      <point x="408" y="15"/>
      <point x="278" y="23"/>
      <point x="278" y="123" type="curve"/>
      <point x="278" y="191"/>
      <point x="360" y="236"/>
      <point x="463" y="236" type="curve"/>
      <point x="541" y="236"/>
      <point x="617" y="210"/>
      <point x="653" y="193" type="curve"/>
      <point x="685" y="179"/>
      <point x="699" y="163"/>
      <point x="718" y="163" type="curve"/>
      <point x="738" y="163"/>
      <point x="750" y="205"/>
      <point x="750" y="227" type="curve"/>
      <point x="750" y="248"/>
      <point x="695" y="277"/>
      <point x="622" y="408" type="curve"/>
      <point x="699" y="429"/>
      <point x="758" y="457"/>
      <point x="793" y="478" type="curve"/>
      <point x="808" y="486"/>
      <point x="811" y="494"/>
      <point x="811" y="503" type="curve"/>
      <point x="811" y="514"/>
      <point x="800" y="520"/>
      <point x="782" y="520" type="curve"/>
      <point x="764" y="520"/>
      <point x="758" y="511"/>
      <point x="714" y="489" type="curve"/>
      <point x="684" y="475"/>
      <point x="645" y="459"/>
      <point x="601" y="446" type="curve"/>
      <point x="577" y="497"/>
      <point x="558" y="547"/>
      <point x="546" y="585" type="curve"/>
      <point x="628" y="608"/>
      <point x="698" y="638"/>
      <point x="714" y="648" type="curve"/>
      <point x="726" y="657"/>
      <point x="731" y="664"/>
      <point x="731" y="672" type="curve"/>
      <point x="730" y="684"/>
      <point x="713" y="689"/>
      <point x="698" y="689" type="curve"/>
      <point x="681" y="689"/>
      <point x="641" y="655"/>
      <point x="535" y="623" type="curve"/>
      <point x="524" y="665"/>
      <point x="518" y="704"/>
      <point x="511" y="742" type="curve"/>
      <point x="507" y="765"/>
      <point x="472" y="772"/>
      <point x="445" y="772" type="curve"/>
      <point x="422" y="772"/>
      <point x="404" y="767"/>
      <point x="378" y="754" type="curve"/>
      <point x="382" y="733" type="line"/>
      <point x="395" y="735"/>
      <point x="408" y="737"/>
      <point x="424" y="737" type="curve"/>
      <point x="452" y="737"/>
      <point x="463" y="726"/>
      <point x="469" y="706" type="curve"/>
      <point x="500" y="614" type="line"/>
      <point x="454" y="602"/>
      <point x="402" y="593"/>
      <point x="369" y="593" type="curve"/>
      <point x="291" y="593"/>
      <point x="262" y="613"/>
      <point x="218" y="650" type="curve"/>
      <point x="204" y="639" type="line"/>
      <point x="258" y="557"/>
      <point x="313" y="555"/>
      <point x="368" y="555" type="curve"/>
      <point x="412" y="555"/>
      <point x="464" y="564"/>
      <point x="513" y="576" type="curve"/>
      <point x="531" y="526"/>
      <point x="550" y="480"/>
      <point x="570" y="438" type="curve"/>
      <point x="511" y="422"/>
      <point x="444" y="411"/>
      <point x="375" y="411" type="curve"/>
      <point x="262" y="411"/>
      <point x="250" y="453"/>
      <point x="315" y="508" type="curve"/>
      <point x="299" y="524" type="line"/>
      <point x="202" y="453"/>
      <point x="231" y="374"/>
      <point x="365" y="374" type="curve"/>
      <point x="449" y="374"/>
      <point x="524" y="384"/>
      <point x="588" y="400" type="curve"/>
      <point x="626" y="324"/>
      <point x="669" y="270"/>
      <point x="686" y="244" type="curve"/>
      <point x="692" y="234"/>
      <point x="692" y="231"/>
    </contour>
  </outline>
</glyph>
<glyph name="uni304Duni309A-V" format="2">
  <advance width="1000"/>
  <outline>
    <contour>
      <point x="731" y="701" type="curve"/>
      <point x="731" y="643"/>
      <point x="777" y="596"/>
      <point x="832" y="596" type="curve"/>
      <point x="887" y="596"/>
      <point x="932" y="643"/>
      <point x="932" y="701" type="curve"/>
      <point x="932" y="758"/>
      <point x="887" y="805"/>
      <point x="832" y="805" type="curve"/>
      <point x="777" y="805"/>
      <point x="731" y="758"/>
    </contour>
    <contour>
      <point x="760" y="701" type="curve"/>
      <point x="760" y="742"/>
      <point x="792" y="776"/>
      <point x="832" y="776" type="curve"/>
      <point x="872" y="776"/>
      <point x="904" y="742"/>
      <point x="904" y="701" type="curve"/>
      <point x="904" y="659"/>
      <point x="872" y="625"/>
      <point x="832" y="625" type="curve"/>
      <point x="792" y="625"/>
      <point x="760" y="659"/>
    </contour>
    <contour>
      <point x="659" y="230" type="curve"/>
      <point x="611" y="244"/>
      <point x="544" y="263"/>
      <point x="451" y="263" type="curve"/>
      <point x="295" y="263"/>
      <point x="222" y="186"/>
      <point x="222" y="111" type="curve"/>
      <point x="222" y="-6"/>
      <point x="365" y="-40"/>
      <point x="471" y="-40" type="curve"/>
      <point x="599" y="-40"/>
      <point x="642" y="-24"/>
      <point x="642" y="-4" type="curve"/>
      <point x="642" y="8"/>
      <point x="628" y="19"/>
      <point x="605" y="19" type="curve"/>
      <point x="575" y="19"/>
      <point x="547" y="10"/>
      <point x="483" y="10" type="curve"/>
      <point x="388" y="10"/>
      <point x="258" y="18"/>
      <point x="258" y="118" type="curve"/>
      <point x="258" y="186"/>
      <point x="340" y="231"/>
      <point x="443" y="231" type="curve"/>
      <point x="521" y="231"/>
      <point x="597" y="205"/>
      <point x="633" y="188" type="curve"/>
      <point x="665" y="174"/>
      <point x="679" y="158"/>
      <point x="698" y="158" type="curve"/>
      <point x="718" y="158"/>
      <point x="730" y="200"/>
      <point x="730" y="222" type="curve"/>
      <point x="730" y="243"/>
      <point x="675" y="272"/>
      <point x="602" y="403" type="curve"/>
      <point x="679" y="424"/>
      <point x="738" y="452"/>
      <point x="773" y="473" type="curve"/>
      <point x="788" y="481"/>
      <point x="791" y="489"/>
      <point x="791" y="498" type="curve"/>
      <point x="791" y="509"/>
      <point x="780" y="515"/>
      <point x="762" y="515" type="curve"/>
      <point x="744" y="515"/>
      <point x="738" y="506"/>
      <point x="694" y="484" type="curve"/>
      <point x="664" y="470"/>
      <point x="625" y="454"/>
      <point x="581" y="441" type="curve"/>
      <point x="557" y="492"/>
      <point x="538" y="542"/>
      <point x="526" y="580" type="curve"/>
      <point x="608" y="603"/>
      <point x="678" y="633"/>
      <point x="694" y="643" type="curve"/>
      <point x="706" y="652"/>
      <point x="711" y="659"/>
      <point x="711" y="667" type="curve"/>
      <point x="710" y="679"/>
      <point x="693" y="684"/>
      <point x="678" y="684" type="curve"/>
      <point x="661" y="684"/>
      <point x="621" y="650"/>
      <point x="515" y="618" type="curve"/>
      <point x="504" y="660"/>
      <point x="498" y="700"/>
      <point x="491" y="737" type="curve"/>
      <point x="487" y="760"/>
      <point x="452" y="767"/>
      <point x="425" y="767" type="curve"/>
      <point x="402" y="767"/>
      <point x="384" y="762"/>
      <point x="358" y="749" type="curve"/>
      <point x="362" y="728" type="line"/>
      <point x="375" y="730"/>
      <point x="388" y="732"/>
      <point x="404" y="732" type="curve"/>
      <point x="432" y="732"/>
      <point x="443" y="721"/>
      <point x="449" y="701" type="curve"/>
      <point x="480" y="609" type="line"/>
      <point x="434" y="597"/>
      <point x="382" y="588"/>
      <point x="349" y="588" type="curve"/>
      <point x="271" y="588"/>
      <point x="242" y="608"/>
      <point x="198" y="645" type="curve"/>
      <point x="184" y="634" type="line"/>
      <point x="238" y="552"/>
      <point x="293" y="550"/>
      <point x="348" y="550" type="curve"/>
      <point x="392" y="550"/>
      <point x="444" y="559"/>
      <point x="493" y="571" type="curve"/>
      <point x="511" y="521"/>
      <point x="530" y="475"/>
      <point x="550" y="433" type="curve"/>
      <point x="491" y="417"/>
      <point x="424" y="406"/>
      <point x="355" y="406" type="curve"/>
      <point x="242" y="406"/>
      <point x="230" y="448"/>
      <point x="295" y="503" type="curve"/>
      <point x="279" y="519" type="line"/>
      <point x="182" y="448"/>
      <point x="211" y="369"/>
      <point x="345" y="369" type="curve"/>
      <point x="429" y="369"/>
      <point x="504" y="379"/>
      <point x="568" y="395" type="curve"/>
      <point x="606" y="319"/>
      <point x="649" y="265"/>
      <point x="666" y="239" type="curve"/>
      <point x="672" y="229"/>
      <point x="672" y="226"/>
    </contour>
  </outline>
</glyph>
<glyph name="uni304E-V" format="2">
  <advance width="1000"/>
  <outline>
    <contour>
      <point x="793" y="650" type="curve"/>
      <point x="813" y="624"/>
      <point x="823" y="599"/>
      <point x="837" y="599" type="curve"/>
      <point x="848" y="599"/>
      <point x="854" y="606"/>
      <point x="854" y="620" type="curve"/>
      <point x="854" y="640"/>
      <point x="844" y="658"/>
      <point x="820" y="681" type="curve"/>
      <point x="798" y="702"/>
      <point x="767" y="725"/>
      <point x="719" y="748" type="curve"/>
      <point x="706" y="729" type="line"/>
      <point x="745" y="703"/>
      <point x="773" y="675"/>
    </contour>
    <contour>
      <point x="875" y="715" type="curve"/>
      <point x="896" y="691"/>
      <point x="905" y="666"/>
      <point x="920" y="666" type="curve"/>
      <point x="931" y="666"/>
      <point x="937" y="673"/>
      <point x="937" y="687" type="curve"/>
      <point x="937" y="707"/>
      <point x="927" y="724"/>
      <point x="901" y="747" type="curve"/>
      <point x="881" y="768"/>
      <point x="846" y="787"/>
      <point x="800" y="808" type="curve"/>
      <point x="787" y="789" type="line"/>
      <point x="828" y="763"/>
      <point x="852" y="741"/>
    </contour>
    <contour>
      <point x="659" y="230" type="curve"/>
      <point x="611" y="244"/>
      <point x="544" y="263"/>
      <point x="451" y="263" type="curve"/>
      <point x="295" y="263"/>
      <point x="222" y="186"/>
      <point x="222" y="111" type="curve"/>
      <point x="222" y="-6"/>
      <point x="365" y="-40"/>
      <point x="471" y="-40" type="curve"/>
      <point x="599" y="-40"/>
      <point x="642" y="-24"/>
      <point x="642" y="-4" type="curve"/>
      <point x="642" y="8"/>
      <point x="628" y="19"/>
      <point x="605" y="19" type="curve"/>
      <point x="575" y="19"/>
      <point x="547" y="10"/>
      <point x="483" y="10" type="curve"/>
      <point x="388" y="10"/>
      <point x="258" y="18"/>
      <point x="258" y="118" type="curve"/>
      <point x="258" y="186"/>
      <point x="340" y="231"/>
      <point x="443" y="231" type="curve"/>
      <point x="521" y="231"/>
      <point x="597" y="205"/>
      <point x="633" y="188" type="curve"/>
      <point x="665" y="174"/>
      <point x="679" y="158"/>
      <point x="698" y="158" type="curve"/>
      <point x="718" y="158"/>
      <point x="730" y="200"/>
      <point x="730" y="222" type="curve"/>
      <point x="730" y="243"/>
      <point x="675" y="272"/>
      <point x="602" y="403" type="curve"/>
      <point x="679" y="424"/>
      <point x="738" y="452"/>
      <point x="773" y="473" type="curve"/>
      <point x="788" y="481"/>
      <point x="791" y="489"/>
      <point x="791" y="498" type="curve"/>
      <point x="791" y="509"/>
      <point x="780" y="515"/>
      <point x="762" y="515" type="curve"/>
      <point x="744" y="515"/>
      <point x="738" y="506"/>
      <point x="694" y="484" type="curve"/>
      <point x="664" y="470"/>
      <point x="625" y="454"/>
      <point x="581" y="441" type="curve"/>
      <point x="557" y="492"/>
      <point x="538" y="542"/>
      <point x="526" y="580" type="curve"/>
      <point x="608" y="603"/>
      <point x="678" y="633"/>
      <point x="694" y="643" type="curve"/>
      <point x="706" y="652"/>
      <point x="711" y="659"/>
      <point x="711" y="667" type="curve"/>
      <point x="710" y="679"/>
      <point x="693" y="684"/>
      <point x="678" y="684" type="curve"/>
      <point x="661" y="684"/>
      <point x="621" y="650"/>
      <point x="515" y="618" type="curve"/>
      <point x="504" y="660"/>
      <point x="498" y="700"/>
      <point x="491" y="737" type="curve"/>
      <point x="487" y="760"/>
      <point x="452" y="767"/>
      <point x="425" y="767" type="curve"/>
      <point x="402" y="767"/>
      <point x="384" y="762"/>
      <point x="358" y="749" type="curve"/>
      <point x="362" y="728" type="line"/>
      <point x="375" y="730"/>
      <point x="388" y="732"/>
      <point x="404" y="732" type="curve"/>
      <point x="432" y="732"/>
      <point x="443" y="721"/>
      <point x="449" y="701" type="curve"/>
      <point x="480" y="609" type="line"/>
      <point x="434" y="597"/>
      <point x="382" y="588"/>
      <point x="349" y="588" type="curve"/>
      <point x="271" y="588"/>
      <point x="242" y="608"/>
      <point x="198" y="645" type="curve"/>
      <point x="184" y="634" type="line"/>
      <point x="238" y="552"/>
      <point x="293" y="550"/>
      <point x="348" y="550" type="curve"/>
      <point x="392" y="550"/>
      <point x="444" y="559"/>
      <point x="493" y="571" type="curve"/>
      <point x="511" y="521"/>
      <point x="530" y="475"/>
      <point x="550" y="433" type="curve"/>
      <point x="491" y="417"/>
      <point x="424" y="406"/>
      <point x="355" y="406" type="curve"/>
      <point x="242" y="406"/>
      <point x="230" y="448"/>
      <point x="295" y="503" type="curve"/>
      <point x="279" y="519" type="line"/>
      <point x="182" y="448"/>
      <point x="211" y="369"/>
      <point x="345" y="369" type="curve"/>
      <point x="429" y="369"/>
      <point x="504" y="379"/>
      <point x="568" y="395" type="curve"/>
      <point x="606" y="319"/>
      <point x="649" y="265"/>
      <point x="666" y="239" type="curve"/>
      <point x="672" y="229"/>
      <point x="672" y="226"/>
    </contour>
  </outline>
</glyph>
<glyph name="uni304F-V" format="2">
  <advance width="1000"/>
  <outline>
    <contour>
      <point x="519" y="758" type="line"/>
      <point x="563" y="729"/>
      <point x="572" y="712"/>
      <point x="572" y="698" type="curve"/>
      <point x="572" y="687"/>
      <point x="566" y="678"/>
      <point x="548" y="658" type="curve"/>
      <point x="503" y="601"/>
      <point x="363" y="463"/>
      <point x="316" y="407" type="curve"/>
      <point x="303" y="393"/>
      <point x="293" y="376"/>
      <point x="293" y="360" type="curve"/>
      <point x="293" y="337"/>
      <point x="306" y="317"/>
      <point x="330" y="296" type="curve"/>
      <point x="446" y="194"/>
      <point x="512" y="126"/>
      <point x="560" y="53" type="curve"/>
      <point x="586" y="13"/>
      <point x="594" y="-13"/>
      <point x="604" y="-31" type="curve"/>
      <point x="608" y="-42"/>
      <point x="617" y="-50"/>
      <point x="628" y="-50" type="curve"/>
      <point x="641" y="-50"/>
      <point x="651" y="-42"/>
      <point x="651" y="-18" type="curve"/>
      <point x="651" y="8"/>
      <point x="628" y="50"/>
      <point x="604" y="81" type="curve"/>
      <point x="536" y="171"/>
      <point x="465" y="233"/>
      <point x="365" y="319" type="curve"/>
      <point x="342" y="338"/>
      <point x="333" y="350"/>
      <point x="333" y="363" type="curve"/>
      <point x="333" y="374"/>
      <point x="338" y="383"/>
      <point x="367" y="414" type="curve"/>
      <point x="405" y="455"/>
      <point x="534" y="584"/>
      <point x="596" y="639" type="curve"/>
      <point x="625" y="664"/>
      <point x="635" y="672"/>
      <point x="635" y="687" type="curve"/>
      <point x="635" y="707"/>
      <point x="604" y="741"/>
      <point x="580" y="757" type="curve"/>
      <point x="564" y="767"/>
      <point x="549" y="772"/>
      <point x="531" y="777" type="curve"/>
    </contour>
  </outline>
</glyph>
<glyph name="uni304Funi309A-V" format="2">
  <advance width="1000"/>
  <outline>
    <contour>
      <point x="636" y="608" type="curve"/>
      <point x="636" y="546"/>
      <point x="684" y="498"/>
      <point x="742" y="498" type="curve"/>
      <point x="799" y="498"/>
      <point x="846" y="546"/>
      <point x="846" y="608" type="curve"/>
      <point x="846" y="668"/>
      <point x="799" y="716"/>
      <point x="742" y="716" type="curve"/>
      <point x="684" y="716"/>
      <point x="636" y="668"/>
    </contour>
    <contour>
      <point x="665" y="608" type="curve"/>
      <point x="665" y="652"/>
      <point x="699" y="687"/>
      <point x="742" y="687" type="curve"/>
      <point x="784" y="687"/>
      <point x="818" y="652"/>
      <point x="818" y="608" type="curve"/>
      <point x="818" y="563"/>
      <point x="784" y="527"/>
      <point x="742" y="527" type="curve"/>
      <point x="699" y="527"/>
      <point x="665" y="563"/>
    </contour>
    <contour>
      <point x="490" y="753" type="line"/>
      <point x="534" y="724"/>
      <point x="543" y="707"/>
      <point x="543" y="693" type="curve"/>
      <point x="543" y="682"/>
      <point x="537" y="673"/>
      <point x="519" y="653" type="curve"/>
      <point x="474" y="596"/>
      <point x="334" y="458"/>
      <point x="287" y="402" type="curve"/>
      <point x="274" y="388"/>
      <point x="264" y="371"/>
      <point x="264" y="355" type="curve"/>
      <point x="264" y="332"/>
      <point x="277" y="312"/>
      <point x="301" y="291" type="curve"/>
      <point x="417" y="189"/>
      <point x="483" y="121"/>
      <point x="531" y="48" type="curve"/>
      <point x="557" y="8"/>
      <point x="565" y="-18"/>
      <point x="575" y="-36" type="curve"/>
      <point x="579" y="-47"/>
      <point x="588" y="-55"/>
      <point x="599" y="-55" type="curve"/>
      <point x="612" y="-55"/>
      <point x="622" y="-47"/>
      <point x="622" y="-23" type="curve"/>
      <point x="622" y="3"/>
      <point x="599" y="45"/>
      <point x="575" y="76" type="curve"/>
      <point x="507" y="166"/>
      <point x="436" y="228"/>
      <point x="336" y="314" type="curve"/>
      <point x="313" y="333"/>
      <point x="304" y="345"/>
      <point x="304" y="358" type="curve"/>
      <point x="304" y="369"/>
      <point x="309" y="378"/>
      <point x="338" y="409" type="curve"/>
      <point x="376" y="450"/>
      <point x="505" y="579"/>
      <point x="567" y="634" type="curve"/>
      <point x="596" y="659"/>
      <point x="606" y="667"/>
      <point x="606" y="682" type="curve"/>
      <point x="606" y="702"/>
      <point x="575" y="736"/>
      <point x="551" y="752" type="curve"/>
      <point x="535" y="762"/>
      <point x="520" y="767"/>
      <point x="502" y="772" type="curve"/>
    </contour>
  </outline>
</glyph>
<glyph name="uni3050-V" format="2">
  <advance width="1000"/>
  <outline>
    <contour>
      <point x="682" y="482" type="curve"/>
      <point x="702" y="458"/>
      <point x="712" y="431"/>
      <point x="725" y="431" type="curve"/>
      <point x="737" y="431"/>
      <point x="743" y="438"/>
      <point x="743" y="454" type="curve"/>
      <point x="743" y="473"/>
      <point x="733" y="490"/>
      <point x="709" y="513" type="curve"/>
      <point x="687" y="533"/>
      <point x="654" y="559"/>
      <point x="608" y="581" type="curve"/>
      <point x="594" y="563" type="line"/>
      <point x="633" y="534"/>
      <point x="661" y="507"/>
    </contour>
    <contour>
      <point x="769" y="561" type="curve"/>
      <point x="789" y="535"/>
      <point x="798" y="511"/>
      <point x="812" y="511" type="curve"/>
      <point x="824" y="511"/>
      <point x="831" y="517"/>
      <point x="831" y="531" type="curve"/>
      <point x="831" y="552"/>
      <point x="820" y="571"/>
      <point x="795" y="592" type="curve"/>
      <point x="774" y="612"/>
      <point x="740" y="632"/>
      <point x="694" y="654" type="curve"/>
      <point x="681" y="634" type="line"/>
      <point x="720" y="607"/>
      <point x="745" y="586"/>
    </contour>
    <contour>
      <point x="490" y="753" type="line"/>
      <point x="534" y="724"/>
      <point x="543" y="707"/>
      <point x="543" y="693" type="curve"/>
      <point x="543" y="682"/>
      <point x="537" y="673"/>
      <point x="519" y="653" type="curve"/>
      <point x="474" y="596"/>
      <point x="334" y="458"/>
      <point x="287" y="402" type="curve"/>
      <point x="274" y="388"/>
      <point x="264" y="371"/>
      <point x="264" y="355" type="curve"/>
      <point x="264" y="332"/>
      <point x="277" y="312"/>
      <point x="301" y="291" type="curve"/>
      <point x="417" y="189"/>
      <point x="483" y="121"/>
      <point x="531" y="48" type="curve"/>
      <point x="557" y="8"/>
      <point x="565" y="-18"/>
      <point x="575" y="-36" type="curve"/>
      <point x="579" y="-47"/>
      <point x="588" y="-55"/>
      <point x="599" y="-55" type="curve"/>
      <point x="612" y="-55"/>
      <point x="622" y="-47"/>
      <point x="622" y="-23" type="curve"/>
      <point x="622" y="3"/>
      <point x="599" y="45"/>
      <point x="575" y="76" type="curve"/>
      <point x="507" y="166"/>
      <point x="436" y="228"/>
      <point x="336" y="314" type="curve"/>
      <point x="313" y="333"/>
      <point x="304" y="345"/>
      <point x="304" y="358" type="curve"/>
      <point x="304" y="369"/>
      <point x="309" y="378"/>
      <point x="338" y="409" type="curve"/>
      <point x="376" y="450"/>
      <point x="505" y="579"/>
      <point x="567" y="634" type="curve"/>
      <point x="596" y="659"/>
      <point x="606" y="667"/>
      <point x="606" y="682" type="curve"/>
      <point x="606" y="702"/>
      <point x="575" y="736"/>
      <point x="551" y="752" type="curve"/>
      <point x="535" y="762"/>
      <point x="520" y="767"/>
      <point x="502" y="772" type="curve"/>
    </contour>
  </outline>
</glyph>
<glyph name="uni3051-V" format="2">
  <advance width="1000"/>
  <outline>
    <contour>
      <point x="176" y="725" type="line"/>
      <point x="216" y="682"/>
      <point x="235" y="656"/>
      <point x="235" y="623" type="curve"/>
      <point x="235" y="570"/>
      <point x="178" y="415"/>
      <point x="178" y="295" type="curve"/>
      <point x="178" y="160"/>
      <point x="210" y="85"/>
      <point x="237" y="42" type="curve"/>
      <point x="245" y="29"/>
      <point x="255" y="16"/>
      <point x="272" y="16" type="curve"/>
      <point x="280" y="16"/>
      <point x="290" y="22"/>
      <point x="290" y="33" type="curve"/>
      <point x="290" y="65"/>
      <point x="277" y="69"/>
      <point x="277" y="96" type="curve"/>
      <point x="277" y="115"/>
      <point x="282" y="139"/>
      <point x="289" y="162" type="curve"/>
      <point x="298" y="192"/>
      <point x="336" y="301"/>
      <point x="361" y="371" type="curve"/>
      <point x="339" y="382" type="line"/>
      <point x="312" y="311"/>
      <point x="266" y="193"/>
      <point x="253" y="167" type="curve"/>
      <point x="246" y="151"/>
      <point x="239" y="151"/>
      <point x="232" y="167" type="curve"/>
      <point x="221" y="192"/>
      <point x="209" y="229"/>
      <point x="209" y="295" type="curve"/>
      <point x="209" y="384"/>
      <point x="238" y="476"/>
      <point x="262" y="537" type="curve"/>
      <point x="273" y="566"/>
      <point x="289" y="595"/>
      <point x="289" y="614" type="curve"/>
      <point x="289" y="654"/>
      <point x="247" y="699"/>
      <point x="230" y="713" type="curve"/>
      <point x="219" y="722"/>
      <point x="210" y="730"/>
      <point x="191" y="741" type="curve"/>
    </contour>
    <contour>
      <point x="594" y="717" type="line"/>
      <point x="613" y="717"/>
      <point x="640" y="716"/>
      <point x="654" y="713" type="curve"/>
      <point x="670" y="711"/>
      <point x="675" y="706"/>
      <point x="677" y="685" type="curve"/>
      <point x="680" y="659"/>
      <point x="684" y="571"/>
      <point x="686" y="509" type="curve"/>
      <point x="651" y="501"/>
      <point x="613" y="496"/>
      <point x="580" y="496" type="curve"/>
      <point x="526" y="496"/>
      <point x="485" y="513"/>
      <point x="434" y="551" type="curve"/>
      <point x="420" y="531" type="line"/>
      <point x="470" y="481"/>
      <point x="515" y="457"/>
      <point x="570" y="457" type="curve"/>
      <point x="611" y="457"/>
      <point x="651" y="461"/>
      <point x="688" y="468" type="curve"/>
      <point x="693" y="369"/>
      <point x="699" y="221"/>
      <point x="660" y="137" type="curve"/>
      <point x="621" y="55"/>
      <point x="566" y="13"/>
      <point x="490" y="-32" type="curve"/>
      <point x="503" y="-51" type="line"/>
      <point x="589" y="-10"/>
      <point x="655" y="33"/>
      <point x="699" y="117" type="curve"/>
      <point x="747" y="210"/>
      <point x="735" y="374"/>
      <point x="729" y="476" type="curve"/>
      <point x="785" y="489"/>
      <point x="832" y="506"/>
      <point x="862" y="520" type="curve"/>
      <point x="877" y="527"/>
      <point x="883" y="533"/>
      <point x="883" y="546" type="curve"/>
      <point x="883" y="562"/>
      <point x="857" y="568"/>
      <point x="845" y="568" type="curve"/>
      <point x="837" y="568"/>
      <point x="826" y="556"/>
      <point x="788" y="540" type="curve"/>
      <point x="772" y="533"/>
      <point x="751" y="526"/>
      <point x="727" y="519" type="curve"/>
      <point x="724" y="636" type="line"/>
      <point x="724" y="672"/>
      <point x="739" y="690"/>
      <point x="739" y="705" type="curve"/>
      <point x="739" y="726"/>
      <point x="687" y="749"/>
      <point x="654" y="749" type="curve"/>
      <point x="640" y="749"/>
      <point x="609" y="744"/>
      <point x="592" y="741" type="curve"/>
    </contour>
  </outline>
</glyph>
<glyph name="uni3051uni309A-V" format="2">
  <advance width="1000"/>
  <outline>
    <contour>
      <point x="743" y="713" type="curve"/>
      <point x="743" y="656"/>
      <point x="789" y="609"/>
      <point x="844" y="609" type="curve"/>
      <point x="899" y="609"/>
      <point x="944" y="656"/>
      <point x="944" y="713" type="curve"/>
      <point x="944" y="771"/>
      <point x="899" y="817"/>
      <point x="844" y="817" type="curve"/>
      <point x="789" y="817"/>
      <point x="743" y="771"/>
    </contour>
    <contour>
      <point x="772" y="713" type="curve"/>
      <point x="772" y="755"/>
      <point x="804" y="788"/>
      <point x="844" y="788" type="curve"/>
      <point x="884" y="788"/>
      <point x="916" y="755"/>
      <point x="916" y="713" type="curve"/>
      <point x="916" y="672"/>
      <point x="884" y="638"/>
      <point x="844" y="638" type="curve"/>
      <point x="804" y="638"/>
      <point x="772" y="672"/>
    </contour>
    <contour>
      <point x="147" y="710" type="line"/>
      <point x="187" y="667"/>
      <point x="206" y="641"/>
      <point x="206" y="608" type="curve"/>
      <point x="206" y="555"/>
      <point x="149" y="400"/>
      <point x="149" y="280" type="curve"/>
      <point x="149" y="145"/>
      <point x="181" y="70"/>
      <point x="208" y="27" type="curve"/>
      <point x="216" y="14"/>
      <point x="226" y="1"/>
      <point x="243" y="1" type="curve"/>
      <point x="251" y="1"/>
      <point x="261" y="7"/>
      <point x="261" y="18" type="curve"/>
      <point x="261" y="50"/>
      <point x="248" y="54"/>
      <point x="248" y="81" type="curve"/>
      <point x="248" y="100"/>
      <point x="253" y="124"/>
      <point x="260" y="147" type="curve"/>
      <point x="269" y="177"/>
      <point x="307" y="286"/>
      <point x="332" y="356" type="curve"/>
      <point x="310" y="367" type="line"/>
      <point x="283" y="296"/>
      <point x="237" y="178"/>
      <point x="224" y="152" type="curve"/>
      <point x="217" y="136"/>
      <point x="210" y="136"/>
      <point x="203" y="152" type="curve"/>
      <point x="192" y="177"/>
      <point x="180" y="214"/>
      <point x="180" y="280" type="curve"/>
      <point x="180" y="369"/>
      <point x="209" y="461"/>
      <point x="233" y="522" type="curve"/>
      <point x="244" y="551"/>
      <point x="260" y="580"/>
      <point x="260" y="599" type="curve"/>
      <point x="260" y="639"/>
      <point x="218" y="684"/>
      <point x="201" y="698" type="curve"/>
      <point x="190" y="707"/>
      <point x="181" y="715"/>
      <point x="162" y="726" type="curve"/>
    </contour>
    <contour>
      <point x="565" y="702" type="line"/>
      <point x="584" y="702"/>
      <point x="611" y="701"/>
      <point x="625" y="698" type="curve"/>
      <point x="641" y="696"/>
      <point x="646" y="691"/>
      <point x="648" y="670" type="curve"/>
      <point x="651" y="644"/>
      <point x="655" y="556"/>
      <point x="657" y="494" type="curve"/>
      <point x="622" y="486"/>
      <point x="584" y="481"/>
      <point x="551" y="481" type="curve"/>
      <point x="497" y="481"/>
      <point x="456" y="498"/>
      <point x="405" y="536" type="curve"/>
      <point x="391" y="516" type="line"/>
      <point x="441" y="466"/>
      <point x="486" y="442"/>
      <point x="541" y="442" type="curve"/>
      <point x="582" y="442"/>
      <point x="622" y="446"/>
      <point x="659" y="453" type="curve"/>
      <point x="664" y="354"/>
      <point x="670" y="206"/>
      <point x="631" y="122" type="curve"/>
      <point x="592" y="40"/>
      <point x="537" y="-2"/>
      <point x="461" y="-47" type="curve"/>
      <point x="474" y="-66" type="line"/>
      <point x="560" y="-25"/>
      <point x="626" y="18"/>
      <point x="670" y="102" type="curve"/>
      <point x="718" y="195"/>
      <point x="706" y="359"/>
      <point x="700" y="461" type="curve"/>
      <point x="756" y="474"/>
      <point x="803" y="491"/>
      <point x="833" y="505" type="curve"/>
      <point x="848" y="512"/>
      <point x="854" y="518"/>
      <point x="854" y="531" type="curve"/>
      <point x="854" y="547"/>
      <point x="828" y="553"/>
      <point x="816" y="553" type="curve"/>
      <point x="808" y="553"/>
      <point x="797" y="541"/>
      <point x="759" y="525" type="curve"/>
      <point x="743" y="518"/>
      <point x="722" y="511"/>
      <point x="698" y="504" type="curve"/>
      <point x="695" y="621" type="line"/>
      <point x="695" y="657"/>
      <point x="710" y="675"/>
      <point x="710" y="690" type="curve"/>
      <point x="710" y="711"/>
      <point x="658" y="734"/>
      <point x="625" y="734" type="curve"/>
      <point x="611" y="734"/>
      <point x="580" y="729"/>
      <point x="563" y="726" type="curve"/>
    </contour>
  </outline>
</glyph>
<glyph name="uni3052-V" format="2">
  <advance width="1000"/>
  <outline>
    <contour>
      <point x="810" y="653" type="curve"/>
      <point x="827" y="624"/>
      <point x="836" y="597"/>
      <point x="850" y="596" type="curve"/>
      <point x="862" y="595"/>
      <point x="871" y="601"/>
      <point x="872" y="615" type="curve"/>
      <point x="874" y="635"/>
      <point x="866" y="657"/>
      <point x="842" y="681" type="curve"/>
      <point x="823" y="704"/>
      <point x="797" y="726"/>
      <point x="754" y="751" type="curve"/>
      <point x="739" y="734" type="line"/>
      <point x="776" y="704"/>
      <point x="794" y="678"/>
    </contour>
    <contour>
      <point x="888" y="720" type="curve"/>
      <point x="907" y="694"/>
      <point x="919" y="667"/>
      <point x="931" y="667" type="curve"/>
      <point x="942" y="667"/>
      <point x="950" y="672"/>
      <point x="951" y="686" type="curve"/>
      <point x="953" y="706"/>
      <point x="944" y="725"/>
      <point x="921" y="749" type="curve"/>
      <point x="899" y="773"/>
      <point x="873" y="791"/>
      <point x="829" y="813" type="curve"/>
      <point x="814" y="796" type="line"/>
      <point x="852" y="766"/>
      <point x="871" y="744"/>
    </contour>
    <contour>
      <point x="164" y="710" type="line"/>
      <point x="204" y="667"/>
      <point x="223" y="641"/>
      <point x="223" y="608" type="curve"/>
      <point x="223" y="555"/>
      <point x="166" y="400"/>
      <point x="166" y="280" type="curve"/>
      <point x="166" y="145"/>
      <point x="198" y="70"/>
      <point x="225" y="27" type="curve"/>
      <point x="233" y="14"/>
      <point x="243" y="1"/>
      <point x="260" y="1" type="curve"/>
      <point x="268" y="1"/>
      <point x="278" y="7"/>
      <point x="278" y="18" type="curve"/>
      <point x="278" y="50"/>
      <point x="265" y="54"/>
      <point x="265" y="81" type="curve"/>
      <point x="265" y="100"/>
      <point x="270" y="124"/>
      <point x="277" y="147" type="curve"/>
      <point x="286" y="177"/>
      <point x="324" y="286"/>
      <point x="349" y="356" type="curve"/>
      <point x="327" y="367" type="line"/>
      <point x="300" y="296"/>
      <point x="254" y="178"/>
      <point x="241" y="152" type="curve"/>
      <point x="234" y="136"/>
      <point x="227" y="136"/>
      <point x="220" y="152" type="curve"/>
      <point x="209" y="177"/>
      <point x="197" y="214"/>
      <point x="197" y="280" type="curve"/>
      <point x="197" y="369"/>
      <point x="226" y="461"/>
      <point x="250" y="522" type="curve"/>
      <point x="261" y="551"/>
      <point x="277" y="580"/>
      <point x="277" y="599" type="curve"/>
      <point x="277" y="639"/>
      <point x="235" y="684"/>
      <point x="218" y="698" type="curve"/>
      <point x="207" y="707"/>
      <point x="198" y="715"/>
      <point x="179" y="726" type="curve"/>
    </contour>
    <contour>
      <point x="582" y="702" type="line"/>
      <point x="601" y="702"/>
      <point x="628" y="701"/>
      <point x="642" y="698" type="curve"/>
      <point x="658" y="696"/>
      <point x="663" y="691"/>
      <point x="665" y="670" type="curve"/>
      <point x="668" y="644"/>
      <point x="672" y="556"/>
      <point x="674" y="494" type="curve"/>
      <point x="639" y="486"/>
      <point x="601" y="481"/>
      <point x="568" y="481" type="curve"/>
      <point x="514" y="481"/>
      <point x="473" y="498"/>
      <point x="422" y="536" type="curve"/>
      <point x="408" y="516" type="line"/>
      <point x="458" y="466"/>
      <point x="503" y="442"/>
      <point x="558" y="442" type="curve"/>
      <point x="599" y="442"/>
      <point x="639" y="446"/>
      <point x="676" y="453" type="curve"/>
      <point x="681" y="354"/>
      <point x="687" y="206"/>
      <point x="648" y="122" type="curve"/>
      <point x="609" y="40"/>
      <point x="554" y="-2"/>
      <point x="478" y="-47" type="curve"/>
      <point x="491" y="-66" type="line"/>
      <point x="577" y="-25"/>
      <point x="643" y="18"/>
      <point x="687" y="102" type="curve"/>
      <point x="735" y="195"/>
      <point x="723" y="359"/>
      <point x="717" y="461" type="curve"/>
      <point x="773" y="474"/>
      <point x="820" y="491"/>
      <point x="850" y="505" type="curve"/>
      <point x="865" y="512"/>
      <point x="871" y="518"/>
      <point x="871" y="531" type="curve"/>
      <point x="871" y="547"/>
      <point x="845" y="553"/>
      <point x="833" y="553" type="curve"/>
      <point x="825" y="553"/>
      <point x="814" y="541"/>
      <point x="776" y="525" type="curve"/>
      <point x="760" y="518"/>
      <point x="739" y="511"/>
      <point x="715" y="504" type="curve"/>
      <point x="712" y="621" type="line"/>
      <point x="712" y="657"/>
      <point x="727" y="675"/>
      <point x="727" y="690" type="curve"/>
      <point x="727" y="711"/>
      <point x="675" y="734"/>
      <point x="642" y="734" type="curve"/>
      <point x="628" y="734"/>
      <point x="597" y="729"/>
      <point x="580" y="726" type="curve"/>
    </contour>
  </outline>
</glyph>
<glyph name="uni3053-V" format="2">
  <advance width="1000"/>
  <outline>
    <contour>
      <point x="281" y="663" type="line"/>
      <point x="363" y="593"/>
      <point x="425" y="587"/>
      <point x="540" y="591" type="curve"/>
      <point x="554" y="591"/>
      <point x="555" y="588"/>
      <point x="545" y="581" type="curve"/>
      <point x="507" y="557"/>
      <point x="444" y="517"/>
      <point x="393" y="484" type="curve"/>
      <point x="406" y="463" type="line"/>
      <point x="464" y="495"/>
      <point x="550" y="545"/>
      <point x="594" y="564" type="curve"/>
      <point x="645" y="585"/>
      <point x="672" y="588"/>
      <point x="696" y="593" type="curve"/>
      <point x="714" y="597"/>
      <point x="722" y="602"/>
      <point x="722" y="614" type="curve"/>
      <point x="722" y="631"/>
      <point x="683" y="645"/>
      <point x="651" y="645" type="curve"/>
      <point x="618" y="645"/>
      <point x="598" y="627"/>
      <point x="492" y="627" type="curve"/>
      <point x="418" y="627"/>
      <point x="369" y="635"/>
      <point x="296" y="684" type="curve"/>
    </contour>
    <contour>
      <point x="267" y="286" type="line"/>
      <point x="262" y="167"/>
      <point x="280" y="60"/>
      <point x="510" y="60" type="curve"/>
      <point x="681" y="60"/>
      <point x="743" y="95"/>
      <point x="770" y="95" type="curve"/>
      <point x="788" y="95"/>
      <point x="804" y="85"/>
      <point x="804" y="73" type="curve"/>
      <point x="804" y="60"/>
      <point x="795" y="52"/>
      <point x="772" y="44" type="curve"/>
      <point x="731" y="30"/>
      <point x="652" y="12"/>
      <point x="512" y="12" type="curve"/>
      <point x="287" y="12"/>
      <point x="213" y="120"/>
      <point x="238" y="285" type="curve"/>
    </contour>
  </outline>
</glyph>
<glyph name="uni3053uni309A-V" format="2">
  <advance width="1000"/>
  <outline>
    <contour>
      <point x="713" y="693" type="curve"/>
      <point x="713" y="635"/>
      <point x="757" y="588"/>
      <point x="813" y="588" type="curve"/>
      <point x="868" y="588"/>
      <point x="913" y="635"/>
      <point x="913" y="693" type="curve"/>
      <point x="913" y="749"/>
      <point x="868" y="797"/>
      <point x="813" y="797" type="curve"/>
      <point x="757" y="797"/>
      <point x="713" y="749"/>
    </contour>
    <contour>
      <point x="741" y="693" type="curve"/>
      <point x="741" y="734"/>
      <point x="773" y="768"/>
      <point x="813" y="768" type="curve"/>
      <point x="852" y="768"/>
      <point x="885" y="734"/>
      <point x="885" y="693" type="curve"/>
      <point x="885" y="650"/>
      <point x="852" y="617"/>
      <point x="813" y="617" type="curve"/>
      <point x="773" y="617"/>
      <point x="741" y="650"/>
    </contour>
    <contour>
      <point x="256" y="648" type="line"/>
      <point x="338" y="578"/>
      <point x="400" y="572"/>
      <point x="515" y="576" type="curve"/>
      <point x="529" y="576"/>
      <point x="530" y="573"/>
      <point x="520" y="566" type="curve"/>
      <point x="482" y="542"/>
      <point x="419" y="502"/>
      <point x="368" y="469" type="curve"/>
      <point x="381" y="448" type="line"/>
      <point x="439" y="480"/>
      <point x="525" y="530"/>
      <point x="569" y="549" type="curve"/>
      <point x="620" y="570"/>
      <point x="647" y="573"/>
      <point x="671" y="578" type="curve"/>
      <point x="689" y="582"/>
      <point x="697" y="587"/>
      <point x="697" y="599" type="curve"/>
      <point x="697" y="616"/>
      <point x="658" y="630"/>
      <point x="626" y="630" type="curve"/>
      <point x="593" y="630"/>
      <point x="573" y="612"/>
      <point x="467" y="612" type="curve"/>
      <point x="393" y="612"/>
      <point x="344" y="620"/>
      <point x="271" y="669" type="curve"/>
    </contour>
    <contour>
      <point x="242" y="271" type="line"/>
      <point x="237" y="152"/>
      <point x="255" y="45"/>
      <point x="485" y="45" type="curve"/>
      <point x="656" y="45"/>
      <point x="718" y="80"/>
      <point x="745" y="80" type="curve"/>
      <point x="763" y="80"/>
      <point x="779" y="70"/>
      <point x="779" y="58" type="curve"/>
      <point x="779" y="45"/>
      <point x="770" y="37"/>
      <point x="747" y="29" type="curve"/>
      <point x="706" y="15"/>
      <point x="627" y="-3"/>
      <point x="487" y="-3" type="curve"/>
      <point x="262" y="-3"/>
      <point x="188" y="105"/>
      <point x="213" y="270" type="curve"/>
    </contour>
  </outline>
</glyph>
<glyph name="uni3054-V" format="2">
  <advance width="1000"/>
  <outline>
    <contour>
      <point x="762" y="642" type="curve"/>
      <point x="782" y="615"/>
      <point x="791" y="591"/>
      <point x="805" y="591" type="curve"/>
      <point x="816" y="591"/>
      <point x="823" y="597"/>
      <point x="823" y="612" type="curve"/>
      <point x="823" y="631"/>
      <point x="812" y="649"/>
      <point x="788" y="673" type="curve"/>
      <point x="768" y="693"/>
      <point x="734" y="717"/>
      <point x="688" y="740" type="curve"/>
      <point x="674" y="720" type="line"/>
      <point x="714" y="694"/>
      <point x="741" y="666"/>
    </contour>
    <contour>
      <point x="842" y="707" type="curve"/>
      <point x="865" y="682"/>
      <point x="874" y="657"/>
      <point x="888" y="657" type="curve"/>
      <point x="899" y="657"/>
      <point x="905" y="664"/>
      <point x="905" y="678" type="curve"/>
      <point x="905" y="698"/>
      <point x="895" y="716"/>
      <point x="870" y="739" type="curve"/>
      <point x="848" y="759"/>
      <point x="814" y="779"/>
      <point x="770" y="799" type="curve"/>
      <point x="755" y="781" type="line"/>
      <point x="796" y="754"/>
      <point x="820" y="731"/>
    </contour>
    <contour>
      <point x="256" y="648" type="line"/>
      <point x="338" y="578"/>
      <point x="400" y="572"/>
      <point x="515" y="576" type="curve"/>
      <point x="529" y="576"/>
      <point x="530" y="573"/>
      <point x="520" y="566" type="curve"/>
      <point x="482" y="542"/>
      <point x="419" y="502"/>
      <point x="368" y="469" type="curve"/>
      <point x="381" y="448" type="line"/>
      <point x="439" y="480"/>
      <point x="525" y="530"/>
      <point x="569" y="549" type="curve"/>
      <point x="620" y="570"/>
      <point x="647" y="573"/>
      <point x="671" y="578" type="curve"/>
      <point x="689" y="582"/>
      <point x="697" y="587"/>
      <point x="697" y="599" type="curve"/>
      <point x="697" y="616"/>
      <point x="658" y="630"/>
      <point x="626" y="630" type="curve"/>
      <point x="593" y="630"/>
      <point x="573" y="612"/>
      <point x="467" y="612" type="curve"/>
      <point x="393" y="612"/>
      <point x="344" y="620"/>
      <point x="271" y="669" type="curve"/>
    </contour>
    <contour>
      <point x="242" y="271" type="line"/>
      <point x="237" y="152"/>
      <point x="255" y="45"/>
      <point x="485" y="45" type="curve"/>
      <point x="656" y="45"/>
      <point x="718" y="80"/>
      <point x="745" y="80" type="curve"/>
      <point x="763" y="80"/>
      <point x="779" y="70"/>
      <point x="779" y="58" type="curve"/>
      <point x="779" y="45"/>
      <point x="770" y="37"/>
      <point x="747" y="29" type="curve"/>
      <point x="706" y="15"/>
      <point x="627" y="-3"/>
      <point x="487" y="-3" type="curve"/>
      <point x="262" y="-3"/>
      <point x="188" y="105"/>
      <point x="213" y="270" type="curve"/>
    </contour>
  </outline>
</glyph>
<glyph name="uni3055-V" format="2">
  <advance width="1000"/>
  <outline>
    <contour>
      <point x="477" y="336" type="curve"/>
      <point x="336" y="336"/>
      <point x="228" y="260"/>
      <point x="228" y="156" type="curve"/>
      <point x="228" y="19"/>
      <point x="378" y="-25"/>
      <point x="526" y="-25" type="curve"/>
      <point x="635" y="-25"/>
      <point x="678" y="-10"/>
      <point x="678" y="11" type="curve"/>
      <point x="678" y="22"/>
      <point x="665" y="32"/>
      <point x="641" y="32" type="curve"/>
      <point x="611" y="32"/>
      <point x="583" y="22"/>
      <point x="508" y="22" type="curve"/>
      <point x="356" y="22"/>
      <point x="264" y="77"/>
      <point x="264" y="157" type="curve"/>
      <point x="264" y="240"/>
      <point x="352" y="304"/>
      <point x="461" y="304" type="curve"/>
      <point x="553" y="304"/>
      <point x="637" y="278"/>
      <point x="695" y="241" type="curve"/>
      <point x="719" y="226"/>
      <point x="731" y="214"/>
      <point x="747" y="214" type="curve"/>
      <point x="762" y="214"/>
      <point x="775" y="244"/>
      <point x="774" y="268" type="curve"/>
      <point x="773" y="282"/>
      <point x="766" y="289"/>
      <point x="742" y="312" type="curve"/>
      <point x="677" y="376"/>
      <point x="618" y="456"/>
      <point x="576" y="533" type="curve"/>
      <point x="659" y="563"/>
      <point x="732" y="604"/>
      <point x="763" y="627" type="curve"/>
      <point x="774" y="637"/>
      <point x="781" y="648"/>
      <point x="775" y="658" type="curve"/>
      <point x="767" y="669"/>
      <point x="741" y="670"/>
      <point x="725" y="660" type="curve"/>
      <point x="696" y="641"/>
      <point x="667" y="610"/>
      <point x="556" y="571" type="curve"/>
      <point x="524" y="637"/>
      <point x="513" y="691"/>
      <point x="501" y="724" type="curve"/>
      <point x="496" y="740"/>
      <point x="460" y="748"/>
      <point x="433" y="748" type="curve"/>
      <point x="419" y="748"/>
      <point x="396" y="745"/>
      <point x="364" y="731" type="curve"/>
      <point x="368" y="711" type="line"/>
      <point x="421" y="713"/>
      <point x="439" y="719"/>
      <point x="455" y="694" type="curve"/>
      <point x="479" y="659"/>
      <point x="498" y="610"/>
      <point x="523" y="559" type="curve"/>
      <point x="470" y="543"/>
      <point x="395" y="528"/>
      <point x="343" y="528" type="curve"/>
      <point x="266" y="528"/>
      <point x="242" y="553"/>
      <point x="187" y="598" type="curve"/>
      <point x="169" y="580" type="line"/>
      <point x="224" y="515"/>
      <point x="260" y="485"/>
      <point x="337" y="485" type="curve"/>
      <point x="400" y="485"/>
      <point x="486" y="506"/>
      <point x="543" y="523" type="curve"/>
      <point x="592" y="442"/>
      <point x="641" y="368"/>
      <point x="695" y="302" type="curve"/>
      <point x="701" y="295"/>
      <point x="699" y="294"/>
      <point x="690" y="297" type="curve"/>
      <point x="645" y="313"/>
      <point x="569" y="336"/>
    </contour>
  </outline>
</glyph>
<glyph name="uni3056-V" format="2">
  <advance width="1000"/>
  <outline>
    <contour>
      <point x="798" y="656" type="curve"/>
      <point x="819" y="629"/>
      <point x="829" y="604"/>
      <point x="842" y="604" type="curve"/>
      <point x="853" y="604"/>
      <point x="861" y="611"/>
      <point x="861" y="625" type="curve"/>
      <point x="861" y="645"/>
      <point x="850" y="663"/>
      <point x="826" y="686" type="curve"/>
      <point x="804" y="707"/>
      <point x="772" y="730"/>
      <point x="725" y="754" type="curve"/>
      <point x="712" y="734" type="line"/>
      <point x="751" y="708"/>
      <point x="778" y="679"/>
    </contour>
    <contour>
      <point x="881" y="720" type="curve"/>
      <point x="901" y="696"/>
      <point x="910" y="671"/>
      <point x="925" y="671" type="curve"/>
      <point x="936" y="671"/>
      <point x="943" y="678"/>
      <point x="943" y="692" type="curve"/>
      <point x="943" y="711"/>
      <point x="933" y="729"/>
      <point x="907" y="753" type="curve"/>
      <point x="886" y="773"/>
      <point x="852" y="792"/>
      <point x="806" y="812" type="curve"/>
      <point x="793" y="794" type="line"/>
      <point x="834" y="768"/>
      <point x="857" y="745"/>
    </contour>
    <contour>
      <point x="461" y="322" type="curve"/>
      <point x="320" y="322"/>
      <point x="212" y="246"/>
      <point x="212" y="142" type="curve"/>
      <point x="212" y="5"/>
      <point x="362" y="-39"/>
      <point x="510" y="-39" type="curve"/>
      <point x="619" y="-39"/>
      <point x="662" y="-24"/>
      <point x="662" y="-3" type="curve"/>
      <point x="662" y="8"/>
      <point x="649" y="18"/>
      <point x="625" y="18" type="curve"/>
      <point x="595" y="18"/>
      <point x="567" y="8"/>
      <point x="492" y="8" type="curve"/>
      <point x="340" y="8"/>
      <point x="248" y="63"/>
      <point x="248" y="143" type="curve"/>
      <point x="248" y="226"/>
      <point x="336" y="290"/>
      <point x="445" y="290" type="curve"/>
      <point x="537" y="290"/>
      <point x="621" y="264"/>
      <point x="679" y="227" type="curve"/>
      <point x="703" y="212"/>
      <point x="715" y="200"/>
      <point x="731" y="200" type="curve"/>
      <point x="746" y="200"/>
      <point x="759" y="230"/>
      <point x="758" y="254" type="curve"/>
      <point x="757" y="268"/>
      <point x="750" y="275"/>
      <point x="726" y="298" type="curve"/>
      <point x="661" y="362"/>
      <point x="602" y="442"/>
      <point x="560" y="519" type="curve"/>
      <point x="643" y="549"/>
      <point x="716" y="590"/>
      <point x="747" y="613" type="curve"/>
      <point x="758" y="623"/>
      <point x="765" y="634"/>
      <point x="759" y="644" type="curve"/>
      <point x="751" y="655"/>
      <point x="725" y="656"/>
      <point x="709" y="646" type="curve"/>
      <point x="680" y="627"/>
      <point x="651" y="596"/>
      <point x="540" y="557" type="curve"/>
      <point x="508" y="623"/>
      <point x="497" y="677"/>
      <point x="485" y="710" type="curve"/>
      <point x="480" y="726"/>
      <point x="444" y="734"/>
      <point x="417" y="734" type="curve"/>
      <point x="403" y="734"/>
      <point x="380" y="731"/>
      <point x="348" y="717" type="curve"/>
      <point x="352" y="697" type="line"/>
      <point x="405" y="699"/>
      <point x="423" y="705"/>
      <point x="439" y="680" type="curve"/>
      <point x="463" y="645"/>
      <point x="482" y="596"/>
      <point x="507" y="545" type="curve"/>
      <point x="454" y="529"/>
      <point x="379" y="514"/>
      <point x="327" y="514" type="curve"/>
      <point x="250" y="514"/>
      <point x="226" y="539"/>
      <point x="171" y="584" type="curve"/>
      <point x="153" y="566" type="line"/>
      <point x="208" y="501"/>
      <point x="244" y="471"/>
      <point x="321" y="471" type="curve"/>
      <point x="384" y="471"/>
      <point x="470" y="492"/>
      <point x="527" y="509" type="curve"/>
      <point x="576" y="428"/>
      <point x="625" y="354"/>
      <point x="679" y="288" type="curve"/>
      <point x="685" y="281"/>
      <point x="683" y="280"/>
      <point x="674" y="283" type="curve"/>
      <point x="629" y="299"/>
      <point x="553" y="322"/>
    </contour>
  </outline>
</glyph>
<glyph name="uni3057-V" format="2">
  <advance width="1000"/>
  <outline>
    <contour>
      <point x="241" y="715" type="line"/>
      <point x="263" y="713"/>
      <point x="288" y="705"/>
      <point x="302" y="698" type="curve"/>
      <point x="318" y="691"/>
      <point x="324" y="684"/>
      <point x="324" y="652" type="curve"/>
      <point x="324" y="603"/>
      <point x="300" y="350"/>
      <point x="300" y="193" type="curve"/>
      <point x="300" y="31"/>
      <point x="359" y="-29"/>
      <point x="483" y="-29" type="curve"/>
      <point x="639" y="-29"/>
      <point x="781" y="66"/>
      <point x="852" y="216" type="curve"/>
      <point x="830" y="232" type="line"/>
      <point x="776" y="130"/>
      <point x="648" y="18"/>
      <point x="478" y="18" type="curve"/>
      <point x="377" y="18"/>
      <point x="339" y="67"/>
      <point x="339" y="196" type="curve"/>
      <point x="339" y="337"/>
      <point x="354" y="516"/>
      <point x="368" y="608" type="curve"/>
      <point x="374" y="652"/>
      <point x="389" y="655"/>
      <point x="389" y="673" type="curve"/>
      <point x="389" y="695"/>
      <point x="334" y="736"/>
      <point x="298" y="739" type="curve"/>
      <point x="284" y="740"/>
      <point x="267" y="740"/>
      <point x="241" y="737" type="curve"/>
    </contour>
  </outline>
</glyph>
<glyph name="uni3058-V" format="2">
  <advance width="1000"/>
  <outline>
    <contour>
      <point x="616" y="494" type="curve"/>
      <point x="638" y="466"/>
      <point x="649" y="443"/>
      <point x="665" y="443" type="curve"/>
      <point x="674" y="443"/>
      <point x="682" y="447"/>
      <point x="683" y="461" type="curve"/>
      <point x="685" y="482"/>
      <point x="670" y="508"/>
      <point x="640" y="532" type="curve"/>
      <point x="617" y="551"/>
      <point x="585" y="577"/>
      <point x="534" y="598" type="curve"/>
      <point x="520" y="580" type="line"/>
      <point x="568" y="546"/>
      <point x="592" y="524"/>
    </contour>
    <contour>
      <point x="707" y="575" type="curve"/>
      <point x="730" y="546"/>
      <point x="741" y="524"/>
      <point x="755" y="524" type="curve"/>
      <point x="767" y="524"/>
      <point x="773" y="532"/>
      <point x="773" y="544" type="curve"/>
      <point x="773" y="567"/>
      <point x="756" y="593"/>
      <point x="727" y="617" type="curve"/>
      <point x="705" y="635"/>
      <point x="671" y="659"/>
      <point x="617" y="678" type="curve"/>
      <point x="604" y="661" type="line"/>
      <point x="647" y="634"/>
      <point x="683" y="604"/>
    </contour>
    <contour>
      <point x="226" y="710" type="line"/>
      <point x="248" y="708"/>
      <point x="273" y="700"/>
      <point x="287" y="693" type="curve"/>
      <point x="303" y="686"/>
      <point x="309" y="679"/>
      <point x="309" y="647" type="curve"/>
      <point x="309" y="598"/>
      <point x="285" y="345"/>
      <point x="285" y="188" type="curve"/>
      <point x="285" y="26"/>
      <point x="344" y="-34"/>
      <point x="468" y="-34" type="curve"/>
      <point x="624" y="-34"/>
      <point x="766" y="61"/>
      <point x="837" y="211" type="curve"/>
      <point x="815" y="227" type="line"/>
      <point x="761" y="125"/>
      <point x="633" y="13"/>
      <point x="463" y="13" type="curve"/>
      <point x="362" y="13"/>
      <point x="324" y="62"/>
      <point x="324" y="191" type="curve"/>
      <point x="324" y="332"/>
      <point x="339" y="511"/>
      <point x="353" y="603" type="curve"/>
      <point x="359" y="647"/>
      <point x="374" y="650"/>
      <point x="374" y="668" type="curve"/>
      <point x="374" y="690"/>
      <point x="319" y="731"/>
      <point x="283" y="734" type="curve"/>
      <point x="269" y="735"/>
      <point x="252" y="735"/>
      <point x="226" y="732" type="curve"/>
    </contour>
  </outline>
</glyph>
<glyph name="uni3059-V" format="2">
  <advance width="1000"/>
  <outline>
    <contour>
      <point x="509" y="214" type="curve"/>
      <point x="466" y="214"/>
      <point x="431" y="251"/>
      <point x="431" y="312" type="curve"/>
      <point x="431" y="362"/>
      <point x="461" y="407"/>
      <point x="509" y="407" type="curve"/>
      <point x="549" y="407"/>
      <point x="586" y="377"/>
      <point x="586" y="307" type="curve"/>
      <point x="586" y="235"/>
      <point x="558" y="214"/>
    </contour>
    <contour>
      <point x="516" y="442" type="curve"/>
      <point x="438" y="442"/>
      <point x="397" y="375"/>
      <point x="397" y="309" type="curve"/>
      <point x="397" y="209"/>
      <point x="476" y="135"/>
      <point x="567" y="186" type="curve"/>
      <point x="533" y="88"/>
      <point x="439" y="17"/>
      <point x="326" y="-28" type="curve"/>
      <point x="340" y="-54" type="line"/>
      <point x="511" y="-1"/>
      <point x="629" y="111"/>
      <point x="629" y="281" type="curve"/>
      <point x="629" y="340"/>
      <point x="616" y="386"/>
      <point x="590" y="413" type="curve"/>
      <point x="588" y="563" type="line"/>
      <point x="783" y="580"/>
      <point x="859" y="559"/>
      <point x="885" y="559" type="curve"/>
      <point x="899" y="559"/>
      <point x="904" y="567"/>
      <point x="904" y="579" type="curve"/>
      <point x="904" y="604"/>
      <point x="859" y="618"/>
      <point x="834" y="618" type="curve"/>
      <point x="812" y="618"/>
      <point x="734" y="611"/>
      <point x="589" y="596" type="curve"/>
      <point x="590" y="657" type="line"/>
      <point x="590" y="682"/>
      <point x="604" y="695"/>
      <point x="604" y="716" type="curve"/>
      <point x="604" y="737"/>
      <point x="548" y="758"/>
      <point x="517" y="758" type="curve"/>
      <point x="495" y="758"/>
      <point x="476" y="748"/>
      <point x="461" y="743" type="curve"/>
      <point x="464" y="720" type="line"/>
      <point x="492" y="720"/>
      <point x="511" y="720"/>
      <point x="524" y="717" type="curve"/>
      <point x="539" y="713"/>
      <point x="544" y="709"/>
      <point x="545" y="688" type="curve"/>
      <point x="549" y="591" type="line"/>
      <point x="433" y="578"/>
      <point x="235" y="546"/>
      <point x="203" y="546" type="curve"/>
      <point x="172" y="546"/>
      <point x="152" y="583"/>
      <point x="136" y="612" type="curve"/>
      <point x="117" y="605" type="line"/>
      <point x="119" y="586"/>
      <point x="121" y="566"/>
      <point x="128" y="551" type="curve"/>
      <point x="138" y="528"/>
      <point x="178" y="488"/>
      <point x="207" y="488" type="curve"/>
      <point x="229" y="488"/>
      <point x="246" y="501"/>
      <point x="288" y="511" type="curve"/>
      <point x="352" y="526"/>
      <point x="462" y="550"/>
      <point x="550" y="560" type="curve"/>
      <point x="553" y="436" type="line"/>
      <point x="542" y="440"/>
      <point x="530" y="442"/>
    </contour>
  </outline>
</glyph>
<glyph name="uni305A-V" format="2">
  <advance width="1000"/>
  <outline>
    <contour>
      <point x="755" y="682" type="curve"/>
      <point x="776" y="658"/>
      <point x="785" y="631"/>
      <point x="799" y="631" type="curve"/>
      <point x="811" y="631"/>
      <point x="819" y="638"/>
      <point x="819" y="654" type="curve"/>
      <point x="819" y="673"/>
      <point x="809" y="690"/>
      <point x="784" y="713" type="curve"/>
      <point x="764" y="733"/>
      <point x="734" y="755"/>
      <point x="694" y="776" type="curve"/>
      <point x="680" y="757" type="line"/>
      <point x="714" y="730"/>
      <point x="736" y="707"/>
    </contour>
    <contour>
      <point x="856" y="732" type="curve"/>
      <point x="878" y="708"/>
      <point x="888" y="683"/>
      <point x="901" y="683" type="curve"/>
      <point x="912" y="683"/>
      <point x="921" y="690"/>
      <point x="921" y="705" type="curve"/>
      <point x="921" y="723"/>
      <point x="910" y="743"/>
      <point x="886" y="766" type="curve"/>
      <point x="865" y="785"/>
      <point x="836" y="801"/>
      <point x="794" y="819" type="curve"/>
      <point x="781" y="801" type="line"/>
      <point x="816" y="777"/>
      <point x="835" y="758"/>
    </contour>
    <contour>
      <point x="507" y="197" type="curve"/>
      <point x="464" y="197"/>
      <point x="429" y="234"/>
      <point x="429" y="295" type="curve"/>
      <point x="429" y="345"/>
      <point x="459" y="390"/>
      <point x="507" y="390" type="curve"/>
      <point x="547" y="390"/>
      <point x="584" y="360"/>
      <point x="584" y="290" type="curve"/>
      <point x="584" y="218"/>
      <point x="556" y="197"/>
    </contour>
    <contour>
      <point x="514" y="425" type="curve"/>
      <point x="436" y="425"/>
      <point x="395" y="358"/>
      <point x="395" y="292" type="curve"/>
      <point x="395" y="192"/>
      <point x="474" y="118"/>
      <point x="565" y="169" type="curve"/>
      <point x="531" y="71"/>
      <point x="437" y="0"/>
      <point x="324" y="-45" type="curve"/>
      <point x="338" y="-71" type="line"/>
      <point x="509" y="-18"/>
      <point x="627" y="94"/>
      <point x="627" y="264" type="curve"/>
      <point x="627" y="323"/>
      <point x="614" y="369"/>
      <point x="588" y="396" type="curve"/>
      <point x="586" y="546" type="line"/>
      <point x="781" y="563"/>
      <point x="857" y="542"/>
      <point x="883" y="542" type="curve"/>
      <point x="897" y="542"/>
      <point x="902" y="550"/>
      <point x="902" y="562" type="curve"/>
      <point x="902" y="587"/>
      <point x="857" y="601"/>
      <point x="832" y="601" type="curve"/>
      <point x="810" y="601"/>
      <point x="732" y="594"/>
      <point x="587" y="579" type="curve"/>
      <point x="588" y="640" type="line"/>
      <point x="588" y="665"/>
      <point x="602" y="678"/>
      <point x="602" y="699" type="curve"/>
      <point x="602" y="720"/>
      <point x="546" y="741"/>
      <point x="515" y="741" type="curve"/>
      <point x="493" y="741"/>
      <point x="474" y="731"/>
      <point x="459" y="726" type="curve"/>
      <point x="462" y="703" type="line"/>
      <point x="490" y="703"/>
      <point x="509" y="703"/>
      <point x="522" y="700" type="curve"/>
      <point x="537" y="696"/>
      <point x="542" y="692"/>
      <point x="543" y="671" type="curve"/>
      <point x="547" y="574" type="line"/>
      <point x="431" y="561"/>
      <point x="233" y="529"/>
      <point x="201" y="529" type="curve"/>
      <point x="170" y="529"/>
      <point x="150" y="566"/>
      <point x="134" y="595" type="curve"/>
      <point x="115" y="588" type="line"/>
      <point x="117" y="569"/>
      <point x="119" y="549"/>
      <point x="126" y="534" type="curve"/>
      <point x="136" y="511"/>
      <point x="176" y="471"/>
      <point x="205" y="471" type="curve"/>
      <point x="227" y="471"/>
      <point x="244" y="484"/>
      <point x="286" y="494" type="curve"/>
      <point x="350" y="509"/>
      <point x="460" y="533"/>
      <point x="548" y="543" type="curve"/>
      <point x="551" y="419" type="line"/>
      <point x="540" y="423"/>
      <point x="528" y="425"/>
    </contour>
  </outline>
</glyph>
<glyph name="uni305B-V" format="2">
  <advance width="1000"/>
  <outline>
    <contour>
      <point x="572" y="710" type="line"/>
      <point x="595" y="709"/>
      <point x="615" y="707"/>
      <point x="628" y="704" type="curve"/>
      <point x="644" y="700"/>
      <point x="650" y="693"/>
      <point x="651" y="678" type="curve"/>
      <point x="654" y="640"/>
      <point x="654" y="558"/>
      <point x="653" y="496" type="curve"/>
      <point x="560" y="477"/>
      <point x="430" y="444"/>
      <point x="376" y="430" type="curve"/>
      <point x="381" y="553" type="line"/>
      <point x="382" y="592"/>
      <point x="396" y="594"/>
      <point x="396" y="610" type="curve"/>
      <point x="396" y="633"/>
      <point x="339" y="656"/>
      <point x="313" y="656" type="curve"/>
      <point x="290" y="656"/>
      <point x="274" y="653"/>
      <point x="258" y="650" type="curve"/>
      <point x="259" y="627" type="line"/>
      <point x="276" y="626"/>
      <point x="299" y="625"/>
      <point x="313" y="620" type="curve"/>
      <point x="328" y="615"/>
      <point x="334" y="611"/>
      <point x="336" y="582" type="curve"/>
      <point x="338" y="559"/>
      <point x="338" y="494"/>
      <point x="337" y="421" type="curve"/>
      <point x="278" y="406"/>
      <point x="172" y="378"/>
      <point x="148" y="378" type="curve"/>
      <point x="127" y="378"/>
      <point x="102" y="411"/>
      <point x="89" y="436" type="curve"/>
      <point x="75" y="430" type="line"/>
      <point x="75" y="415"/>
      <point x="74" y="400"/>
      <point x="78" y="390" type="curve"/>
      <point x="91" y="356"/>
      <point x="126" y="323"/>
      <point x="150" y="323" type="curve"/>
      <point x="175" y="323"/>
      <point x="211" y="349"/>
      <point x="337" y="385" type="curve"/>
      <point x="337" y="290"/>
      <point x="336" y="187"/>
      <point x="339" y="133" type="curve"/>
      <point x="342" y="31"/>
      <point x="410" y="0"/>
      <point x="536" y="0" type="curve"/>
      <point x="638" y="0"/>
      <point x="726" y="7"/>
      <point x="762" y="15" type="curve"/>
      <point x="786" y="20"/>
      <point x="795" y="24"/>
      <point x="795" y="42" type="curve"/>
      <point x="795" y="58"/>
      <point x="777" y="67"/>
      <point x="749" y="67" type="curve"/>
      <point x="715" y="67"/>
      <point x="651" y="47"/>
      <point x="536" y="47" type="curve"/>
      <point x="400" y="47"/>
      <point x="379" y="57"/>
      <point x="375" y="170" type="curve"/>
      <point x="373" y="216"/>
      <point x="374" y="310"/>
      <point x="376" y="396" type="curve"/>
      <point x="438" y="412"/>
      <point x="554" y="441"/>
      <point x="653" y="460" type="curve"/>
      <point x="651" y="399"/>
      <point x="644" y="322"/>
      <point x="636" y="289" type="curve"/>
      <point x="631" y="273"/>
      <point x="621" y="268"/>
      <point x="610" y="268" type="curve"/>
      <point x="594" y="268"/>
      <point x="549" y="282"/>
      <point x="511" y="294" type="curve"/>
      <point x="504" y="270" type="line"/>
      <point x="540" y="256"/>
      <point x="582" y="243"/>
      <point x="597" y="216" type="curve"/>
      <point x="606" y="201"/>
      <point x="612" y="200"/>
      <point x="621" y="200" type="curve"/>
      <point x="649" y="200"/>
      <point x="666" y="223"/>
      <point x="674" y="268" type="curve"/>
      <point x="683" y="311"/>
      <point x="689" y="394"/>
      <point x="692" y="467" type="curve"/>
      <point x="755" y="476" type="line"/>
      <point x="813" y="481"/>
      <point x="850" y="479"/>
      <point x="884" y="479" type="curve"/>
      <point x="906" y="479"/>
      <point x="917" y="482"/>
      <point x="917" y="497" type="curve"/>
      <point x="917" y="519"/>
      <point x="894" y="530"/>
      <point x="858" y="530" type="curve"/>
      <point x="834" y="530"/>
      <point x="764" y="517"/>
      <point x="693" y="504" type="curve"/>
      <point x="696" y="633" type="line"/>
      <point x="697" y="668"/>
      <point x="713" y="671"/>
      <point x="713" y="685" type="curve"/>
      <point x="713" y="709"/>
      <point x="663" y="740"/>
      <point x="623" y="740" type="curve"/>
      <point x="606" y="740"/>
      <point x="590" y="736"/>
      <point x="571" y="732" type="curve"/>
    </contour>
  </outline>
</glyph>
<glyph name="uni305C-V" format="2">
  <advance width="1000"/>
  <outline>
    <contour>
      <point x="804" y="611" type="curve"/>
      <point x="823" y="583"/>
      <point x="832" y="556"/>
      <point x="845" y="555" type="curve"/>
      <point x="856" y="554"/>
      <point x="866" y="560"/>
      <point x="867" y="575" type="curve"/>
      <point x="868" y="593"/>
      <point x="859" y="612"/>
      <point x="837" y="638" type="curve"/>
      <point x="817" y="661"/>
      <point x="795" y="680"/>
      <point x="751" y="707" type="curve"/>
      <point x="736" y="690" type="line"/>
      <point x="770" y="659"/>
      <point x="787" y="635"/>
    </contour>
    <contour>
      <point x="885" y="677" type="curve"/>
      <point x="905" y="650"/>
      <point x="911" y="624"/>
      <point x="926" y="623" type="curve"/>
      <point x="937" y="622"/>
      <point x="947" y="628"/>
      <point x="948" y="644" type="curve"/>
      <point x="949" y="663"/>
      <point x="939" y="683"/>
      <point x="916" y="708" type="curve"/>
      <point x="895" y="727"/>
      <point x="872" y="744"/>
      <point x="828" y="769" type="curve"/>
      <point x="813" y="750" type="line"/>
      <point x="847" y="722"/>
      <point x="865" y="704"/>
    </contour>
    <contour>
      <point x="554" y="700" type="line"/>
      <point x="577" y="699"/>
      <point x="597" y="697"/>
      <point x="610" y="694" type="curve"/>
      <point x="626" y="690"/>
      <point x="632" y="683"/>
      <point x="633" y="668" type="curve"/>
      <point x="636" y="630"/>
      <point x="636" y="548"/>
      <point x="635" y="486" type="curve"/>
      <point x="542" y="467"/>
      <point x="412" y="434"/>
      <point x="358" y="420" type="curve"/>
      <point x="363" y="543" type="line"/>
      <point x="364" y="582"/>
      <point x="378" y="584"/>
      <point x="378" y="600" type="curve"/>
      <point x="378" y="623"/>
      <point x="321" y="646"/>
      <point x="295" y="646" type="curve"/>
      <point x="272" y="646"/>
      <point x="256" y="643"/>
      <point x="240" y="640" type="curve"/>
      <point x="241" y="617" type="line"/>
      <point x="258" y="616"/>
      <point x="281" y="615"/>
      <point x="295" y="610" type="curve"/>
      <point x="310" y="605"/>
      <point x="316" y="601"/>
      <point x="318" y="572" type="curve"/>
      <point x="320" y="549"/>
      <point x="320" y="484"/>
      <point x="319" y="411" type="curve"/>
      <point x="260" y="396"/>
      <point x="154" y="368"/>
      <point x="130" y="368" type="curve"/>
      <point x="109" y="368"/>
      <point x="84" y="401"/>
      <point x="71" y="426" type="curve"/>
      <point x="57" y="420" type="line"/>
      <point x="57" y="405"/>
      <point x="56" y="390"/>
      <point x="60" y="380" type="curve"/>
      <point x="73" y="346"/>
      <point x="108" y="313"/>
      <point x="132" y="313" type="curve"/>
      <point x="157" y="313"/>
      <point x="193" y="339"/>
      <point x="319" y="375" type="curve"/>
      <point x="319" y="280"/>
      <point x="318" y="177"/>
      <point x="321" y="123" type="curve"/>
      <point x="324" y="21"/>
      <point x="392" y="-10"/>
      <point x="518" y="-10" type="curve"/>
      <point x="620" y="-10"/>
      <point x="708" y="-3"/>
      <point x="744" y="5" type="curve"/>
      <point x="768" y="10"/>
      <point x="777" y="14"/>
      <point x="777" y="32" type="curve"/>
      <point x="777" y="48"/>
      <point x="759" y="57"/>
      <point x="731" y="57" type="curve"/>
      <point x="697" y="57"/>
      <point x="633" y="37"/>
      <point x="518" y="37" type="curve"/>
      <point x="382" y="37"/>
      <point x="361" y="47"/>
      <point x="357" y="160" type="curve"/>
      <point x="355" y="206"/>
      <point x="356" y="300"/>
      <point x="358" y="386" type="curve"/>
      <point x="420" y="402"/>
      <point x="536" y="431"/>
      <point x="635" y="450" type="curve"/>
      <point x="633" y="389"/>
      <point x="626" y="312"/>
      <point x="618" y="279" type="curve"/>
      <point x="613" y="263"/>
      <point x="603" y="258"/>
      <point x="592" y="258" type="curve"/>
      <point x="576" y="258"/>
      <point x="531" y="272"/>
      <point x="493" y="284" type="curve"/>
      <point x="486" y="260" type="line"/>
      <point x="522" y="246"/>
      <point x="564" y="233"/>
      <point x="579" y="206" type="curve"/>
      <point x="588" y="191"/>
      <point x="594" y="190"/>
      <point x="603" y="190" type="curve"/>
      <point x="631" y="190"/>
      <point x="648" y="213"/>
      <point x="656" y="258" type="curve"/>
      <point x="665" y="301"/>
      <point x="671" y="384"/>
      <point x="674" y="457" type="curve"/>
      <point x="737" y="466" type="line"/>
      <point x="795" y="471"/>
      <point x="832" y="469"/>
      <point x="866" y="469" type="curve"/>
      <point x="888" y="469"/>
      <point x="899" y="472"/>
      <point x="899" y="487" type="curve"/>
      <point x="899" y="509"/>
      <point x="876" y="520"/>
      <point x="840" y="520" type="curve"/>
      <point x="816" y="520"/>
      <point x="746" y="507"/>
      <point x="675" y="494" type="curve"/>
      <point x="678" y="623" type="line"/>
      <point x="679" y="658"/>
      <point x="695" y="661"/>
      <point x="695" y="675" type="curve"/>
      <point x="695" y="699"/>
      <point x="645" y="730"/>
      <point x="605" y="730" type="curve"/>
      <point x="588" y="730"/>
      <point x="572" y="726"/>
      <point x="553" y="722" type="curve"/>
    </contour>
  </outline>
</glyph>
<glyph name="uni305D-V" format="2">
  <advance width="1000"/>
  <outline>
    <contour>
      <point x="345" y="676" type="curve"/>
      <point x="382" y="676"/>
      <point x="532" y="715"/>
      <point x="563" y="723" type="curve"/>
      <point x="593" y="733"/>
      <point x="593" y="744"/>
      <point x="607" y="744" type="curve"/>
      <point x="625" y="744"/>
      <point x="674" y="711"/>
      <point x="674" y="689" type="curve"/>
      <point x="674" y="671"/>
      <point x="651" y="676"/>
      <point x="625" y="645" type="curve"/>
      <point x="513" y="517"/>
      <point x="472" y="478"/>
      <point x="348" y="354" type="curve"/>
      <point x="344" y="350"/>
      <point x="346" y="346"/>
      <point x="351" y="347" type="curve"/>
      <point x="458" y="380"/>
      <point x="605" y="424"/>
      <point x="670" y="438" type="curve"/>
      <point x="737" y="454"/>
      <point x="771" y="460"/>
      <point x="791" y="460" type="curve"/>
      <point x="823" y="460"/>
      <point x="848" y="442"/>
      <point x="848" y="424" type="curve"/>
      <point x="848" y="412"/>
      <point x="838" y="404"/>
      <point x="805" y="404" type="curve"/>
      <point x="786" y="404"/>
      <point x="770" y="406"/>
      <point x="728" y="403" type="curve"/>
      <point x="638" y="398"/>
      <point x="556" y="368"/>
      <point x="520" y="338" type="curve"/>
      <point x="474" y="301"/>
      <point x="424" y="250"/>
      <point x="425" y="161" type="curve"/>
      <point x="426" y="77"/>
      <point x="489" y="32"/>
      <point x="579" y="20" type="curve"/>
      <point x="629" y="14"/>
      <point x="660" y="20"/>
      <point x="681" y="17" type="curve"/>
      <point x="694" y="14"/>
      <point x="713" y="-1"/>
      <point x="713" y="-15" type="curve"/>
      <point x="713" y="-27"/>
      <point x="699" y="-36"/>
      <point x="663" y="-36" type="curve"/>
      <point x="640" y="-36"/>
      <point x="593" y="-33"/>
      <point x="554" y="-24" type="curve"/>
      <point x="467" y="-6"/>
      <point x="388" y="48"/>
      <point x="388" y="155" type="curve"/>
      <point x="388" y="250"/>
      <point x="444" y="312"/>
      <point x="492" y="351" type="curve"/>
      <point x="500" y="359"/>
      <point x="498" y="363"/>
      <point x="487" y="360" type="curve"/>
      <point x="412" y="336"/>
      <point x="328" y="308"/>
      <point x="279" y="281" type="curve"/>
      <point x="219" y="249"/>
      <point x="196" y="228"/>
      <point x="173" y="228" type="curve"/>
      <point x="160" y="228"/>
      <point x="140" y="239"/>
      <point x="140" y="257" type="curve"/>
      <point x="140" y="270"/>
      <point x="147" y="280"/>
      <point x="161" y="284" type="curve"/>
      <point x="185" y="292"/>
      <point x="213" y="301"/>
      <point x="240" y="314" type="curve"/>
      <point x="278" y="330"/>
      <point x="298" y="345"/>
      <point x="334" y="383" type="curve"/>
      <point x="396" y="444"/>
      <point x="558" y="616"/>
      <point x="595" y="688" type="curve"/>
      <point x="601" y="699"/>
      <point x="597" y="699"/>
      <point x="590" y="697" type="curve"/>
      <point x="537" y="684"/>
      <point x="468" y="666"/>
      <point x="421" y="649" type="curve"/>
      <point x="376" y="632"/>
      <point x="372" y="618"/>
      <point x="352" y="618" type="curve"/>
      <point x="332" y="618"/>
      <point x="286" y="657"/>
      <point x="281" y="692" type="curve"/>
      <point x="279" y="703"/>
      <point x="279" y="719"/>
      <point x="281" y="732" type="curve"/>
      <point x="295" y="737" type="line"/>
      <point x="313" y="706"/>
      <point x="327" y="676"/>
    </contour>
  </outline>
</glyph>
<glyph name="uni305E-V" format="2">
  <advance width="1000"/>
  <outline>
    <contour>
      <point x="789" y="547" type="curve"/>
      <point x="810" y="522"/>
      <point x="819" y="497"/>
      <point x="833" y="497" type="curve"/>
      <point x="844" y="497"/>
      <point x="851" y="504"/>
      <point x="851" y="518" type="curve"/>
      <point x="851" y="537"/>
      <point x="840" y="556"/>
      <point x="816" y="579" type="curve"/>
      <point x="795" y="599"/>
      <point x="763" y="623"/>
      <point x="715" y="646" type="curve"/>
      <point x="702" y="627" type="line"/>
      <point x="741" y="600"/>
      <point x="770" y="573"/>
    </contour>
    <contour>
      <point x="871" y="612" type="curve"/>
      <point x="893" y="589"/>
      <point x="901" y="564"/>
      <point x="915" y="564" type="curve"/>
      <point x="926" y="564"/>
      <point x="934" y="571"/>
      <point x="934" y="585" type="curve"/>
      <point x="934" y="604"/>
      <point x="922" y="622"/>
      <point x="898" y="645" type="curve"/>
      <point x="877" y="665"/>
      <point x="842" y="685"/>
      <point x="797" y="706" type="curve"/>
      <point x="784" y="687" type="line"/>
      <point x="824" y="660"/>
      <point x="848" y="638"/>
    </contour>
    <contour>
      <point x="330" y="671" type="curve"/>
      <point x="367" y="671"/>
      <point x="517" y="710"/>
      <point x="548" y="718" type="curve"/>
      <point x="578" y="728"/>
      <point x="578" y="739"/>
      <point x="592" y="739" type="curve"/>
      <point x="610" y="739"/>
      <point x="659" y="706"/>
      <point x="659" y="684" type="curve"/>
      <point x="659" y="666"/>
      <point x="636" y="671"/>
      <point x="610" y="640" type="curve"/>
      <point x="498" y="512"/>
      <point x="457" y="473"/>
      <point x="333" y="349" type="curve"/>
      <point x="329" y="345"/>
      <point x="331" y="341"/>
      <point x="336" y="342" type="curve"/>
      <point x="443" y="375"/>
      <point x="590" y="419"/>
      <point x="655" y="433" type="curve"/>
      <point x="722" y="449"/>
      <point x="756" y="455"/>
      <point x="776" y="455" type="curve"/>
      <point x="808" y="455"/>
      <point x="833" y="437"/>
      <point x="833" y="419" type="curve"/>
      <point x="833" y="407"/>
      <point x="823" y="399"/>
      <point x="790" y="399" type="curve"/>
      <point x="771" y="399"/>
      <point x="755" y="401"/>
      <point x="713" y="398" type="curve"/>
      <point x="623" y="393"/>
      <point x="541" y="363"/>
      <point x="505" y="333" type="curve"/>
      <point x="459" y="296"/>
      <point x="409" y="245"/>
      <point x="410" y="156" type="curve"/>
      <point x="411" y="72"/>
      <point x="474" y="27"/>
      <point x="564" y="15" type="curve"/>
      <point x="614" y="9"/>
      <point x="645" y="15"/>
      <point x="666" y="12" type="curve"/>
      <point x="679" y="9"/>
      <point x="698" y="-6"/>
      <point x="698" y="-20" type="curve"/>
      <point x="698" y="-32"/>
      <point x="684" y="-41"/>
      <point x="648" y="-41" type="curve"/>
      <point x="625" y="-41"/>
      <point x="578" y="-38"/>
      <point x="539" y="-29" type="curve"/>
      <point x="452" y="-11"/>
      <point x="373" y="43"/>
      <point x="373" y="150" type="curve"/>
      <point x="373" y="245"/>
      <point x="429" y="307"/>
      <point x="477" y="346" type="curve"/>
      <point x="485" y="354"/>
      <point x="483" y="358"/>
      <point x="472" y="355" type="curve"/>
      <point x="397" y="331"/>
      <point x="313" y="303"/>
      <point x="264" y="276" type="curve"/>
      <point x="204" y="244"/>
      <point x="181" y="223"/>
      <point x="158" y="223" type="curve"/>
      <point x="145" y="223"/>
      <point x="125" y="234"/>
      <point x="125" y="252" type="curve"/>
      <point x="125" y="265"/>
      <point x="132" y="275"/>
      <point x="146" y="279" type="curve"/>
      <point x="170" y="287"/>
      <point x="198" y="296"/>
      <point x="225" y="309" type="curve"/>
      <point x="263" y="325"/>
      <point x="283" y="340"/>
      <point x="319" y="378" type="curve"/>
      <point x="381" y="439"/>
      <point x="543" y="611"/>
      <point x="580" y="683" type="curve"/>
      <point x="586" y="694"/>
      <point x="582" y="694"/>
      <point x="575" y="692" type="curve"/>
      <point x="522" y="679"/>
      <point x="453" y="661"/>
      <point x="406" y="644" type="curve"/>
      <point x="361" y="627"/>
      <point x="357" y="613"/>
      <point x="337" y="613" type="curve"/>
      <point x="317" y="613"/>
      <point x="271" y="652"/>
      <point x="266" y="687" type="curve"/>
      <point x="264" y="698"/>
      <point x="264" y="714"/>
      <point x="266" y="727" type="curve"/>
      <point x="280" y="732" type="line"/>
      <point x="298" y="701"/>
      <point x="312" y="671"/>
    </contour>
  </outline>
</glyph>
<glyph name="uni305F-V" format="2">
  <advance width="1000"/>
  <outline>
    <contour>
      <point x="537" y="424" type="line"/>
      <point x="578" y="434"/>
      <point x="623" y="441"/>
      <point x="670" y="441" type="curve"/>
      <point x="698" y="441"/>
      <point x="728" y="438"/>
      <point x="753" y="429" type="curve"/>
      <point x="762" y="426"/>
      <point x="766" y="421"/>
      <point x="756" y="414" type="curve"/>
      <point x="743" y="402"/>
      <point x="686" y="365"/>
      <point x="651" y="342" type="curve"/>
      <point x="665" y="322" type="line"/>
      <point x="697" y="340"/>
      <point x="742" y="368"/>
      <point x="767" y="381" type="curve"/>
      <point x="791" y="394"/>
      <point x="802" y="398"/>
      <point x="820" y="400" type="curve"/>
      <point x="835" y="403"/>
      <point x="850" y="403"/>
      <point x="850" y="417" type="curve"/>
      <point x="850" y="431"/>
      <point x="838" y="444"/>
      <point x="819" y="453" type="curve"/>
      <point x="796" y="464"/>
      <point x="752" y="476"/>
      <point x="689" y="476" type="curve"/>
      <point x="632" y="476"/>
      <point x="575" y="464"/>
      <point x="531" y="451" type="curve"/>
    </contour>
    <contour>
      <point x="479" y="202" type="line"/>
      <point x="481" y="171"/>
      <point x="486" y="141"/>
      <point x="504" y="111" type="curve"/>
      <point x="534" y="59"/>
      <point x="593" y="34"/>
      <point x="676" y="34" type="curve"/>
      <point x="776" y="34"/>
      <point x="803" y="53"/>
      <point x="833" y="53" type="curve"/>
      <point x="849" y="53"/>
      <point x="867" y="46"/>
      <point x="867" y="30" type="curve"/>
      <point x="867" y="13"/>
      <point x="840" y="5"/>
      <point x="817" y="0" type="curve"/>
      <point x="789" y="-6"/>
      <point x="746" y="-12"/>
      <point x="695" y="-12" type="curve"/>
      <point x="600" y="-12"/>
      <point x="512" y="12"/>
      <point x="475" y="88" type="curve"/>
      <point x="454" y="128"/>
      <point x="451" y="164"/>
      <point x="452" y="202" type="curve"/>
    </contour>
    <contour>
      <point x="128" y="590" type="curve"/>
      <point x="110" y="577" type="line"/>
      <point x="141" y="514"/>
      <point x="187" y="492"/>
      <point x="235" y="492" type="curve"/>
      <point x="276" y="492"/>
      <point x="320" y="499"/>
      <point x="356" y="507" type="curve"/>
      <point x="344" y="461"/>
      <point x="329" y="414"/>
      <point x="315" y="372" type="curve"/>
      <point x="267" y="229"/>
      <point x="211" y="127"/>
      <point x="159" y="47" type="curve"/>
      <point x="148" y="28"/>
      <point x="146" y="20"/>
      <point x="146" y="7" type="curve"/>
      <point x="146" y="-8"/>
      <point x="154" y="-20"/>
      <point x="164" y="-20" type="curve"/>
      <point x="177" y="-20"/>
      <point x="185" y="-15"/>
      <point x="196" y="2" type="curve"/>
      <point x="238" y="70"/>
      <point x="299" y="220"/>
      <point x="346" y="362" type="curve"/>
      <point x="364" y="411"/>
      <point x="381" y="466"/>
      <point x="396" y="516" type="curve"/>
      <point x="465" y="535"/>
      <point x="547" y="567"/>
      <point x="565" y="577" type="curve"/>
      <point x="587" y="588"/>
      <point x="593" y="595"/>
      <point x="593" y="610" type="curve"/>
      <point x="593" y="619"/>
      <point x="577" y="627"/>
      <point x="564" y="627" type="curve"/>
      <point x="556" y="627"/>
      <point x="548" y="624"/>
      <point x="535" y="617" type="curve"/>
      <point x="505" y="601"/>
      <point x="461" y="581"/>
      <point x="409" y="563" type="curve"/>
      <point x="433" y="653" type="line"/>
      <point x="439" y="677"/>
      <point x="450" y="702"/>
      <point x="450" y="715" type="curve"/>
      <point x="449" y="736"/>
      <point x="390" y="757"/>
      <point x="367" y="759" type="curve"/>
      <point x="344" y="761"/>
      <point x="331" y="759"/>
      <point x="313" y="757" type="curve"/>
      <point x="312" y="731" type="line"/>
      <point x="329" y="728"/>
      <point x="352" y="724"/>
      <point x="372" y="718" type="curve"/>
      <point x="390" y="711"/>
      <point x="396" y="703"/>
      <point x="394" y="682" type="curve"/>
      <point x="390" y="649"/>
      <point x="380" y="601"/>
      <point x="367" y="550" type="curve"/>
      <point x="331" y="540"/>
      <point x="288" y="532"/>
      <point x="242" y="532" type="curve"/>
      <point x="194" y="532"/>
      <point x="165" y="554"/>
    </contour>
  </outline>
</glyph>
<glyph name="uni3060-V" format="2">
  <advance width="1000"/>
  <outline>
    <contour>
      <point x="772" y="600" type="curve"/>
      <point x="792" y="576"/>
      <point x="801" y="549"/>
      <point x="815" y="549" type="curve"/>
      <point x="827" y="549"/>
      <point x="836" y="557"/>
      <point x="836" y="572" type="curve"/>
      <point x="836" y="591"/>
      <point x="825" y="608"/>
      <point x="800" y="631" type="curve"/>
      <point x="779" y="653"/>
      <point x="746" y="677"/>
      <point x="701" y="699" type="curve"/>
      <point x="687" y="680" type="line"/>
      <point x="725" y="654"/>
      <point x="751" y="624"/>
    </contour>
    <contour>
      <point x="852" y="666" type="curve"/>
      <point x="875" y="642"/>
      <point x="884" y="615"/>
      <point x="897" y="615" type="curve"/>
      <point x="908" y="615"/>
      <point x="917" y="622"/>
      <point x="917" y="637" type="curve"/>
      <point x="917" y="657"/>
      <point x="907" y="676"/>
      <point x="882" y="698" type="curve"/>
      <point x="861" y="717"/>
      <point x="827" y="737"/>
      <point x="781" y="759" type="curve"/>
      <point x="769" y="740" type="line"/>
      <point x="808" y="712"/>
      <point x="831" y="691"/>
    </contour>
    <contour>
      <point x="512" y="412" type="line"/>
      <point x="553" y="422"/>
      <point x="598" y="429"/>
      <point x="645" y="429" type="curve"/>
      <point x="673" y="429"/>
      <point x="703" y="426"/>
      <point x="728" y="417" type="curve"/>
      <point x="737" y="414"/>
      <point x="741" y="409"/>
      <point x="731" y="402" type="curve"/>
      <point x="718" y="390"/>
      <point x="661" y="353"/>
      <point x="626" y="330" type="curve"/>
      <point x="640" y="310" type="line"/>
      <point x="672" y="328"/>
      <point x="717" y="356"/>
      <point x="742" y="369" type="curve"/>
      <point x="766" y="382"/>
      <point x="777" y="386"/>
      <point x="795" y="388" type="curve"/>
      <point x="810" y="391"/>
      <point x="825" y="391"/>
      <point x="825" y="405" type="curve"/>
      <point x="825" y="419"/>
      <point x="813" y="432"/>
      <point x="794" y="441" type="curve"/>
      <point x="771" y="452"/>
      <point x="727" y="464"/>
      <point x="664" y="464" type="curve"/>
      <point x="607" y="464"/>
      <point x="550" y="452"/>
      <point x="506" y="439" type="curve"/>
    </contour>
    <contour>
      <point x="454" y="190" type="line"/>
      <point x="456" y="159"/>
      <point x="461" y="129"/>
      <point x="479" y="99" type="curve"/>
      <point x="509" y="47"/>
      <point x="568" y="22"/>
      <point x="651" y="22" type="curve"/>
      <point x="751" y="22"/>
      <point x="778" y="41"/>
      <point x="808" y="41" type="curve"/>
      <point x="824" y="41"/>
      <point x="842" y="34"/>
      <point x="842" y="18" type="curve"/>
      <point x="842" y="1"/>
      <point x="815" y="-7"/>
      <point x="792" y="-12" type="curve"/>
      <point x="764" y="-18"/>
      <point x="721" y="-24"/>
      <point x="670" y="-24" type="curve"/>
      <point x="575" y="-24"/>
      <point x="487" y="0"/>
      <point x="450" y="76" type="curve"/>
      <point x="429" y="116"/>
      <point x="426" y="152"/>
      <point x="427" y="190" type="curve"/>
    </contour>
    <contour>
      <point x="103" y="578" type="curve"/>
      <point x="85" y="565" type="line"/>
      <point x="116" y="502"/>
      <point x="162" y="480"/>
      <point x="210" y="480" type="curve"/>
      <point x="251" y="480"/>
      <point x="295" y="487"/>
      <point x="331" y="495" type="curve"/>
      <point x="319" y="449"/>
      <point x="304" y="402"/>
      <point x="290" y="360" type="curve"/>
      <point x="242" y="217"/>
      <point x="186" y="115"/>
      <point x="134" y="35" type="curve"/>
      <point x="123" y="16"/>
      <point x="121" y="8"/>
      <point x="121" y="-5" type="curve"/>
      <point x="121" y="-20"/>
      <point x="129" y="-32"/>
      <point x="139" y="-32" type="curve"/>
      <point x="152" y="-32"/>
      <point x="160" y="-27"/>
      <point x="171" y="-10" type="curve"/>
      <point x="213" y="58"/>
      <point x="274" y="208"/>
      <point x="321" y="350" type="curve"/>
      <point x="339" y="399"/>
      <point x="356" y="454"/>
      <point x="371" y="504" type="curve"/>
      <point x="440" y="523"/>
      <point x="522" y="555"/>
      <point x="540" y="565" type="curve"/>
      <point x="562" y="576"/>
      <point x="568" y="583"/>
      <point x="568" y="598" type="curve"/>
      <point x="568" y="607"/>
      <point x="552" y="615"/>
      <point x="539" y="615" type="curve"/>
      <point x="531" y="615"/>
      <point x="523" y="612"/>
      <point x="510" y="605" type="curve"/>
      <point x="480" y="589"/>
      <point x="436" y="569"/>
      <point x="384" y="551" type="curve"/>
      <point x="408" y="641" type="line"/>
      <point x="414" y="665"/>
      <point x="425" y="690"/>
      <point x="425" y="703" type="curve"/>
      <point x="424" y="724"/>
      <point x="365" y="745"/>
      <point x="342" y="747" type="curve"/>
      <point x="319" y="749"/>
      <point x="306" y="747"/>
      <point x="288" y="745" type="curve"/>
      <point x="287" y="719" type="line"/>
      <point x="304" y="716"/>
      <point x="327" y="712"/>
      <point x="347" y="706" type="curve"/>
      <point x="365" y="699"/>
      <point x="371" y="691"/>
      <point x="369" y="670" type="curve"/>
      <point x="365" y="637"/>
      <point x="355" y="589"/>
      <point x="342" y="538" type="curve"/>
      <point x="306" y="528"/>
      <point x="263" y="520"/>
      <point x="217" y="520" type="curve"/>
      <point x="169" y="520"/>
      <point x="140" y="542"/>
    </contour>
  </outline>
</glyph>
<glyph name="uni3061-V" format="2">
  <advance width="1000"/>
  <outline>
    <contour>
      <point x="304" y="734" type="line"/>
      <point x="327" y="732"/>
      <point x="346" y="729"/>
      <point x="362" y="725" type="curve"/>
      <point x="377" y="721"/>
      <point x="382" y="716"/>
      <point x="382" y="700" type="curve"/>
      <point x="381" y="679"/>
      <point x="370" y="621"/>
      <point x="358" y="568" type="curve"/>
      <point x="335" y="566"/>
      <point x="313" y="564"/>
      <point x="293" y="564" type="curve"/>
      <point x="230" y="564"/>
      <point x="196" y="577"/>
      <point x="138" y="635" type="curve"/>
      <point x="119" y="620" type="line"/>
      <point x="180" y="527"/>
      <point x="204" y="525"/>
      <point x="283" y="525" type="curve"/>
      <point x="305" y="525"/>
      <point x="327" y="526"/>
      <point x="349" y="528" type="curve"/>
      <point x="331" y="455"/>
      <point x="294" y="310"/>
      <point x="274" y="252" type="curve"/>
      <point x="261" y="214"/>
      <point x="255" y="210"/>
      <point x="255" y="193" type="curve"/>
      <point x="255" y="168"/>
      <point x="271" y="139"/>
      <point x="285" y="139" type="curve"/>
      <point x="299" y="139"/>
      <point x="314" y="177"/>
      <point x="327" y="190" type="curve"/>
      <point x="397" y="273"/>
      <point x="501" y="346"/>
      <point x="606" y="346" type="curve"/>
      <point x="685" y="346"/>
      <point x="757" y="300"/>
      <point x="757" y="206" type="curve"/>
      <point x="757" y="137"/>
      <point x="714" y="59"/>
      <point x="534" y="14" type="curve"/>
      <point x="492" y="4"/>
      <point x="433" y="-5"/>
      <point x="360" y="-6" type="curve"/>
      <point x="363" y="-32" type="line"/>
      <point x="567" y="-43"/>
      <point x="805" y="25"/>
      <point x="805" y="196" type="curve"/>
      <point x="805" y="292"/>
      <point x="742" y="377"/>
      <point x="607" y="377" type="curve"/>
      <point x="507" y="377"/>
      <point x="420" y="327"/>
      <point x="334" y="254" type="curve"/>
      <point x="310" y="233"/>
      <point x="311" y="239"/>
      <point x="317" y="265" type="curve"/>
      <point x="387" y="533" type="line"/>
      <point x="491" y="548"/>
      <point x="584" y="581"/>
      <point x="621" y="595" type="curve"/>
      <point x="651" y="607"/>
      <point x="680" y="622"/>
      <point x="680" y="636" type="curve"/>
      <point x="680" y="652"/>
      <point x="666" y="660"/>
      <point x="648" y="660" type="curve"/>
      <point x="631" y="660"/>
      <point x="610" y="645"/>
      <point x="576" y="628" type="curve"/>
      <point x="534" y="606"/>
      <point x="465" y="586"/>
      <point x="397" y="574" type="curve"/>
      <point x="420" y="668" type="line"/>
      <point x="426" y="694"/>
      <point x="444" y="699"/>
      <point x="444" y="715" type="curve"/>
      <point x="444" y="736"/>
      <point x="393" y="765"/>
      <point x="359" y="765" type="curve"/>
      <point x="340" y="765"/>
      <point x="322" y="762"/>
      <point x="303" y="759" type="curve"/>
    </contour>
  </outline>
</glyph>
<glyph name="uni3062-V" format="2">
  <advance width="1000"/>
  <outline>
    <contour>
      <point x="751" y="653" type="curve"/>
      <point x="772" y="626"/>
      <point x="781" y="601"/>
      <point x="795" y="601" type="curve"/>
      <point x="806" y="601"/>
      <point x="814" y="608"/>
      <point x="814" y="622" type="curve"/>
      <point x="814" y="643"/>
      <point x="804" y="660"/>
      <point x="780" y="683" type="curve"/>
      <point x="758" y="704"/>
      <point x="725" y="727"/>
      <point x="680" y="750" type="curve"/>
      <point x="666" y="731" type="line"/>
      <point x="705" y="705"/>
      <point x="730" y="677"/>
    </contour>
    <contour>
      <point x="833" y="717" type="curve"/>
      <point x="853" y="693"/>
      <point x="864" y="668"/>
      <point x="878" y="668" type="curve"/>
      <point x="889" y="668"/>
      <point x="897" y="675"/>
      <point x="897" y="689" type="curve"/>
      <point x="897" y="709"/>
      <point x="887" y="726"/>
      <point x="862" y="749" type="curve"/>
      <point x="839" y="770"/>
      <point x="806" y="789"/>
      <point x="761" y="810" type="curve"/>
      <point x="747" y="791" type="line"/>
      <point x="787" y="765"/>
      <point x="810" y="743"/>
    </contour>
    <contour>
      <point x="280" y="729" type="line"/>
      <point x="303" y="727"/>
      <point x="322" y="724"/>
      <point x="338" y="720" type="curve"/>
      <point x="353" y="716"/>
      <point x="358" y="711"/>
      <point x="358" y="695" type="curve"/>
      <point x="357" y="674"/>
      <point x="346" y="616"/>
      <point x="334" y="563" type="curve"/>
      <point x="311" y="561"/>
      <point x="289" y="559"/>
      <point x="269" y="559" type="curve"/>
      <point x="206" y="559"/>
      <point x="172" y="572"/>
      <point x="114" y="630" type="curve"/>
      <point x="95" y="615" type="line"/>
      <point x="156" y="522"/>
      <point x="180" y="520"/>
      <point x="259" y="520" type="curve"/>
      <point x="281" y="520"/>
      <point x="303" y="521"/>
      <point x="325" y="523" type="curve"/>
      <point x="307" y="450"/>
      <point x="270" y="305"/>
      <point x="250" y="247" type="curve"/>
      <point x="237" y="209"/>
      <point x="231" y="205"/>
      <point x="231" y="188" type="curve"/>
      <point x="231" y="163"/>
      <point x="247" y="134"/>
      <point x="261" y="134" type="curve"/>
      <point x="275" y="134"/>
      <point x="290" y="172"/>
      <point x="303" y="185" type="curve"/>
      <point x="373" y="268"/>
      <point x="477" y="341"/>
      <point x="582" y="341" type="curve"/>
      <point x="661" y="341"/>
      <point x="733" y="295"/>
      <point x="733" y="201" type="curve"/>
      <point x="733" y="132"/>
      <point x="690" y="54"/>
      <point x="510" y="9" type="curve"/>
      <point x="468" y="-1"/>
      <point x="409" y="-10"/>
      <point x="336" y="-11" type="curve"/>
      <point x="339" y="-37" type="line"/>
      <point x="543" y="-48"/>
      <point x="781" y="20"/>
      <point x="781" y="191" type="curve"/>
      <point x="781" y="287"/>
      <point x="718" y="372"/>
      <point x="583" y="372" type="curve"/>
      <point x="483" y="372"/>
      <point x="396" y="322"/>
      <point x="310" y="249" type="curve"/>
      <point x="286" y="228"/>
      <point x="287" y="234"/>
      <point x="293" y="260" type="curve"/>
      <point x="363" y="528" type="line"/>
      <point x="467" y="543"/>
      <point x="560" y="576"/>
      <point x="597" y="590" type="curve"/>
      <point x="627" y="602"/>
      <point x="656" y="617"/>
      <point x="656" y="631" type="curve"/>
      <point x="656" y="647"/>
      <point x="642" y="655"/>
      <point x="624" y="655" type="curve"/>
      <point x="607" y="655"/>
      <point x="586" y="640"/>
      <point x="552" y="623" type="curve"/>
      <point x="510" y="601"/>
      <point x="441" y="581"/>
      <point x="373" y="569" type="curve"/>
      <point x="396" y="663" type="line"/>
      <point x="402" y="689"/>
      <point x="420" y="694"/>
      <point x="420" y="710" type="curve"/>
      <point x="420" y="731"/>
      <point x="369" y="760"/>
      <point x="335" y="760" type="curve"/>
      <point x="316" y="760"/>
      <point x="298" y="757"/>
      <point x="279" y="754" type="curve"/>
    </contour>
  </outline>
</glyph>
<glyph name="uni3063-V" format="2">
  <advance width="1020"/>
  <outline>
    <contour>
      <point x="337" y="493" type="curve"/>
      <point x="326" y="486" type="line"/>
      <point x="329" y="470"/>
      <point x="331" y="457"/>
      <point x="339" y="445" type="curve"/>
      <point x="350" y="428"/>
      <point x="378" y="403"/>
      <point x="400" y="403" type="curve"/>
      <point x="422" y="403"/>
      <point x="441" y="420"/>
      <point x="495" y="456" type="curve"/>
      <point x="551" y="491"/>
      <point x="650" y="559"/>
      <point x="739" y="559" type="curve"/>
      <point x="833" y="559"/>
      <point x="890" y="506"/>
      <point x="890" y="420" type="curve"/>
      <point x="890" y="254"/>
      <point x="714" y="199"/>
      <point x="521" y="189" type="curve"/>
      <point x="522" y="166" type="line"/>
      <point x="636" y="162"/>
      <point x="739" y="180"/>
      <point x="801" y="211" type="curve"/>
      <point x="880" y="249"/>
      <point x="937" y="313"/>
      <point x="937" y="412" type="curve"/>
      <point x="937" y="504"/>
      <point x="870" y="590"/>
      <point x="739" y="590" type="curve"/>
      <point x="631" y="590"/>
      <point x="518" y="524"/>
      <point x="451" y="487" type="curve"/>
      <point x="412" y="466"/>
      <point x="400" y="463"/>
      <point x="385" y="463" type="curve"/>
      <point x="370" y="463"/>
      <point x="352" y="473"/>
    </contour>
  </outline>
</glyph>
<glyph name="uni3064-V" format="2">
  <advance width="1000"/>
  <outline>
    <contour>
      <point x="101" y="480" type="curve"/>
      <point x="87" y="469" type="line"/>
      <point x="92" y="450"/>
      <point x="96" y="434"/>
      <point x="105" y="421" type="curve"/>
      <point x="119" y="403"/>
      <point x="152" y="377"/>
      <point x="177" y="377" type="curve"/>
      <point x="202" y="377"/>
      <point x="229" y="404"/>
      <point x="306" y="451" type="curve"/>
      <point x="383" y="498"/>
      <point x="507" y="570"/>
      <point x="617" y="570" type="curve"/>
      <point x="743" y="570"/>
      <point x="824" y="505"/>
      <point x="824" y="389" type="curve"/>
      <point x="824" y="282"/>
      <point x="775" y="208"/>
      <point x="659" y="155" type="curve"/>
      <point x="565" y="112"/>
      <point x="465" y="99"/>
      <point x="340" y="94" type="curve"/>
      <point x="342" y="66" type="line"/>
      <point x="493" y="60"/>
      <point x="616" y="85"/>
      <point x="692" y="120" type="curve"/>
      <point x="797" y="170"/>
      <point x="870" y="254"/>
      <point x="870" y="380" type="curve"/>
      <point x="870" y="497"/>
      <point x="789" y="604"/>
      <point x="617" y="604" type="curve"/>
      <point x="483" y="604"/>
      <point x="337" y="521"/>
      <point x="258" y="476" type="curve"/>
      <point x="200" y="443"/>
      <point x="185" y="440"/>
      <point x="164" y="440" type="curve"/>
      <point x="146" y="440"/>
      <point x="123" y="453"/>
    </contour>
  </outline>
</glyph>
<glyph name="uni3065-V" format="2">
  <advance width="1000"/>
  <outline>
    <contour>
      <point x="784" y="615" type="curve"/>
      <point x="806" y="593"/>
      <point x="817" y="569"/>
      <point x="832" y="570" type="curve"/>
      <point x="842" y="571"/>
      <point x="848" y="578"/>
      <point x="847" y="592" type="curve"/>
      <point x="846" y="611"/>
      <point x="835" y="627"/>
      <point x="809" y="650" type="curve"/>
      <point x="785" y="669"/>
      <point x="752" y="691"/>
      <point x="705" y="710" type="curve"/>
      <point x="692" y="690" type="line"/>
      <point x="733" y="666"/>
      <point x="763" y="639"/>
    </contour>
    <contour>
      <point x="862" y="686" type="curve"/>
      <point x="885" y="663"/>
      <point x="895" y="638"/>
      <point x="908" y="639" type="curve"/>
      <point x="921" y="639"/>
      <point x="927" y="647"/>
      <point x="926" y="661" type="curve"/>
      <point x="925" y="680"/>
      <point x="913" y="699"/>
      <point x="888" y="719" type="curve"/>
      <point x="866" y="737"/>
      <point x="830" y="757"/>
      <point x="783" y="776" type="curve"/>
      <point x="771" y="756" type="line"/>
      <point x="812" y="729"/>
      <point x="838" y="711"/>
    </contour>
    <contour>
      <point x="96" y="455" type="curve"/>
      <point x="82" y="444" type="line"/>
      <point x="87" y="425"/>
      <point x="91" y="409"/>
      <point x="100" y="396" type="curve"/>
      <point x="114" y="378"/>
      <point x="147" y="352"/>
      <point x="172" y="352" type="curve"/>
      <point x="197" y="352"/>
      <point x="224" y="379"/>
      <point x="301" y="426" type="curve"/>
      <point x="378" y="473"/>
      <point x="502" y="545"/>
      <point x="612" y="545" type="curve"/>
      <point x="738" y="545"/>
      <point x="819" y="480"/>
      <point x="819" y="364" type="curve"/>
      <point x="819" y="257"/>
      <point x="770" y="183"/>
      <point x="654" y="130" type="curve"/>
      <point x="560" y="87"/>
      <point x="460" y="74"/>
      <point x="335" y="69" type="curve"/>
      <point x="337" y="41" type="line"/>
      <point x="488" y="35"/>
      <point x="611" y="60"/>
      <point x="687" y="95" type="curve"/>
      <point x="792" y="145"/>
      <point x="865" y="229"/>
      <point x="865" y="355" type="curve"/>
      <point x="865" y="472"/>
      <point x="784" y="579"/>
      <point x="612" y="579" type="curve"/>
      <point x="478" y="579"/>
      <point x="332" y="496"/>
      <point x="253" y="451" type="curve"/>
      <point x="195" y="418"/>
      <point x="180" y="415"/>
      <point x="159" y="415" type="curve"/>
      <point x="141" y="415"/>
      <point x="118" y="428"/>
    </contour>
  </outline>
</glyph>
<glyph name="uni3066-V" format="2">
  <advance width="1000"/>
  <outline>
    <contour>
      <point x="120" y="605" type="line"/>
      <point x="132" y="579"/>
      <point x="160" y="556"/>
      <point x="179" y="556" type="curve"/>
      <point x="225" y="556"/>
      <point x="424" y="620"/>
      <point x="576" y="656" type="curve"/>
      <point x="687" y="683"/>
      <point x="750" y="692"/>
      <point x="784" y="692" type="curve"/>
      <point x="807" y="692"/>
      <point x="833" y="689"/>
      <point x="844" y="683" type="curve"/>
      <point x="864" y="675"/>
      <point x="867" y="667"/>
      <point x="867" y="658" type="curve"/>
      <point x="867" y="648"/>
      <point x="858" y="640"/>
      <point x="842" y="640" type="curve"/>
      <point x="826" y="640"/>
      <point x="800" y="643"/>
      <point x="762" y="643" type="curve"/>
      <point x="715" y="643"/>
      <point x="646" y="635"/>
      <point x="601" y="608" type="curve"/>
      <point x="554" y="580"/>
      <point x="454" y="485"/>
      <point x="454" y="278" type="curve"/>
      <point x="454" y="174"/>
      <point x="494" y="126"/>
      <point x="534" y="100" type="curve"/>
      <point x="599" y="58"/>
      <point x="685" y="64"/>
      <point x="727" y="64" type="curve"/>
      <point x="745" y="64"/>
      <point x="774" y="53"/>
      <point x="774" y="34" type="curve"/>
      <point x="774" y="19"/>
      <point x="756" y="12"/>
      <point x="714" y="12" type="curve"/>
      <point x="668" y="12"/>
      <point x="564" y="14"/>
      <point x="498" y="69" type="curve"/>
      <point x="441" y="115"/>
      <point x="415" y="170"/>
      <point x="415" y="276" type="curve"/>
      <point x="415" y="381"/>
      <point x="438" y="513"/>
      <point x="545" y="606" type="curve"/>
      <point x="550" y="611"/>
      <point x="549" y="616"/>
      <point x="538" y="613" type="curve"/>
      <point x="436" y="587"/>
      <point x="301" y="542"/>
      <point x="243" y="517" type="curve"/>
      <point x="226" y="510"/>
      <point x="207" y="497"/>
      <point x="190" y="497" type="curve"/>
      <point x="160" y="497"/>
      <point x="119" y="531"/>
      <point x="108" y="560" type="curve"/>
      <point x="104" y="572"/>
      <point x="103" y="583"/>
      <point x="101" y="598" type="curve"/>
    </contour>
  </outline>
</glyph>
<glyph name="uni3067-V" format="2">
  <advance width="1000"/>
  <outline>
    <contour>
      <point x="745" y="395" type="curve"/>
      <point x="767" y="370"/>
      <point x="776" y="343"/>
      <point x="789" y="343" type="curve"/>
      <point x="800" y="343"/>
      <point x="807" y="351"/>
      <point x="807" y="366" type="curve"/>
      <point x="807" y="385"/>
      <point x="797" y="402"/>
      <point x="773" y="425" type="curve"/>
      <point x="751" y="446"/>
      <point x="717" y="471"/>
      <point x="673" y="493" type="curve"/>
      <point x="659" y="475" type="line"/>
      <point x="698" y="447"/>
      <point x="724" y="418"/>
    </contour>
    <contour>
      <point x="828" y="466" type="curve"/>
      <point x="849" y="441"/>
      <point x="858" y="415"/>
      <point x="873" y="415" type="curve"/>
      <point x="884" y="415"/>
      <point x="891" y="422"/>
      <point x="891" y="437" type="curve"/>
      <point x="891" y="458"/>
      <point x="881" y="476"/>
      <point x="854" y="498" type="curve"/>
      <point x="834" y="517"/>
      <point x="799" y="537"/>
      <point x="754" y="559" type="curve"/>
      <point x="741" y="539" type="line"/>
      <point x="781" y="513"/>
      <point x="805" y="491"/>
    </contour>
    <contour>
      <point x="97" y="600" type="line"/>
      <point x="109" y="574"/>
      <point x="137" y="551"/>
      <point x="156" y="551" type="curve"/>
      <point x="202" y="551"/>
      <point x="401" y="615"/>
      <point x="553" y="651" type="curve"/>
      <point x="664" y="678"/>
      <point x="727" y="687"/>
      <point x="761" y="687" type="curve"/>
      <point x="784" y="687"/>
      <point x="810" y="684"/>
      <point x="821" y="678" type="curve"/>
      <point x="841" y="670"/>
      <point x="844" y="662"/>
      <point x="844" y="653" type="curve"/>
      <point x="844" y="643"/>
      <point x="835" y="635"/>
      <point x="819" y="635" type="curve"/>
      <point x="803" y="635"/>
      <point x="777" y="638"/>
      <point x="739" y="638" type="curve"/>
      <point x="692" y="638"/>
      <point x="623" y="630"/>
      <point x="578" y="603" type="curve"/>
      <point x="531" y="575"/>
      <point x="431" y="480"/>
      <point x="431" y="273" type="curve"/>
      <point x="431" y="169"/>
      <point x="471" y="121"/>
      <point x="511" y="95" type="curve"/>
      <point x="576" y="53"/>
      <point x="662" y="59"/>
      <point x="704" y="59" type="curve"/>
      <point x="722" y="59"/>
      <point x="751" y="48"/>
      <point x="751" y="29" type="curve"/>
      <point x="751" y="14"/>
      <point x="733" y="7"/>
      <point x="691" y="7" type="curve"/>
      <point x="645" y="7"/>
      <point x="541" y="9"/>
      <point x="475" y="64" type="curve"/>
      <point x="418" y="110"/>
      <point x="392" y="165"/>
      <point x="392" y="271" type="curve"/>
      <point x="392" y="376"/>
      <point x="415" y="508"/>
      <point x="522" y="601" type="curve"/>
      <point x="527" y="606"/>
      <point x="526" y="611"/>
      <point x="515" y="608" type="curve"/>
      <point x="413" y="582"/>
      <point x="278" y="537"/>
      <point x="220" y="512" type="curve"/>
      <point x="203" y="505"/>
      <point x="184" y="492"/>
      <point x="167" y="492" type="curve"/>
      <point x="137" y="492"/>
      <point x="96" y="526"/>
      <point x="85" y="555" type="curve"/>
      <point x="81" y="567"/>
      <point x="80" y="578"/>
      <point x="78" y="593" type="curve"/>
    </contour>
  </outline>
</glyph>
<glyph name="uni3068-V" format="2">
  <advance width="1000"/>
  <outline>
    <contour>
      <point x="241" y="734" type="curve"/>
      <point x="242" y="711" type="line"/>
      <point x="255" y="711"/>
      <point x="278" y="709"/>
      <point x="294" y="705" type="curve"/>
      <point x="310" y="701"/>
      <point x="315" y="694"/>
      <point x="319" y="678" type="curve"/>
      <point x="333" y="603"/>
      <point x="352" y="526"/>
      <point x="371" y="475" type="curve"/>
      <point x="382" y="442"/>
      <point x="403" y="409"/>
      <point x="429" y="388" type="curve"/>
      <point x="379" y="356"/>
      <point x="243" y="271"/>
      <point x="243" y="145" type="curve"/>
      <point x="243" y="49"/>
      <point x="335" y="-15"/>
      <point x="501" y="-15" type="curve"/>
      <point x="634" y="-15"/>
      <point x="697" y="1"/>
      <point x="729" y="9" type="curve"/>
      <point x="745" y="13"/>
      <point x="760" y="20"/>
      <point x="760" y="30" type="curve"/>
      <point x="760" y="53"/>
      <point x="738" y="59"/>
      <point x="714" y="59" type="curve"/>
      <point x="684" y="59"/>
      <point x="625" y="30"/>
      <point x="491" y="30" type="curve"/>
      <point x="330" y="30"/>
      <point x="279" y="93"/>
      <point x="279" y="149" type="curve"/>
      <point x="279" y="253"/>
      <point x="394" y="323"/>
      <point x="465" y="367" type="curve"/>
      <point x="525" y="403"/>
      <point x="634" y="448"/>
      <point x="688" y="468" type="curve"/>
      <point x="722" y="481"/>
      <point x="747" y="488"/>
      <point x="747" y="505" type="curve"/>
      <point x="747" y="521"/>
      <point x="730" y="557"/>
      <point x="698" y="577" type="curve"/>
      <point x="684" y="585"/>
      <point x="661" y="591"/>
      <point x="638" y="596" type="curve"/>
      <point x="629" y="578" type="line"/>
      <point x="651" y="569"/>
      <point x="674" y="557"/>
      <point x="682" y="538" type="curve"/>
      <point x="689" y="526"/>
      <point x="685" y="519"/>
      <point x="668" y="511" type="curve"/>
      <point x="629" y="491"/>
      <point x="533" y="448"/>
      <point x="463" y="409" type="curve"/>
      <point x="434" y="428"/>
      <point x="414" y="461"/>
      <point x="402" y="497" type="curve"/>
      <point x="388" y="540"/>
      <point x="375" y="614"/>
      <point x="371" y="649" type="curve"/>
      <point x="368" y="672"/>
      <point x="378" y="683"/>
      <point x="376" y="699" type="curve"/>
      <point x="375" y="715"/>
      <point x="328" y="741"/>
      <point x="294" y="741" type="curve"/>
      <point x="279" y="741"/>
      <point x="266" y="740"/>
    </contour>
  </outline>
</glyph>
<glyph name="uni3069-V" format="2">
  <advance width="1000"/>
  <outline>
    <contour>
      <point x="774" y="612" type="curve"/>
      <point x="796" y="588"/>
      <point x="804" y="563"/>
      <point x="818" y="563" type="curve"/>
      <point x="829" y="563"/>
      <point x="837" y="570"/>
      <point x="837" y="584" type="curve"/>
      <point x="837" y="603"/>
      <point x="827" y="619"/>
      <point x="803" y="645" type="curve"/>
      <point x="783" y="666"/>
      <point x="749" y="689"/>
      <point x="703" y="711" type="curve"/>
      <point x="689" y="693" type="line"/>
      <point x="728" y="666"/>
      <point x="754" y="637"/>
    </contour>
    <contour>
      <point x="855" y="678" type="curve"/>
      <point x="879" y="656"/>
      <point x="887" y="628"/>
      <point x="900" y="628" type="curve"/>
      <point x="911" y="628"/>
      <point x="920" y="635"/>
      <point x="920" y="650" type="curve"/>
      <point x="920" y="670"/>
      <point x="909" y="688"/>
      <point x="885" y="711" type="curve"/>
      <point x="864" y="729"/>
      <point x="829" y="750"/>
      <point x="784" y="772" type="curve"/>
      <point x="771" y="753" type="line"/>
      <point x="811" y="724"/>
      <point x="832" y="704"/>
    </contour>
    <contour>
      <point x="224" y="723" type="curve"/>
      <point x="225" y="700" type="line"/>
      <point x="238" y="700"/>
      <point x="261" y="698"/>
      <point x="277" y="694" type="curve"/>
      <point x="293" y="690"/>
      <point x="298" y="683"/>
      <point x="302" y="667" type="curve"/>
      <point x="316" y="592"/>
      <point x="335" y="515"/>
      <point x="354" y="464" type="curve"/>
      <point x="365" y="431"/>
      <point x="386" y="398"/>
      <point x="412" y="377" type="curve"/>
      <point x="362" y="344"/>
      <point x="226" y="260"/>
      <point x="226" y="134" type="curve"/>
      <point x="226" y="38"/>
      <point x="318" y="-26"/>
      <point x="484" y="-26" type="curve"/>
      <point x="617" y="-26"/>
      <point x="680" y="-10"/>
      <point x="712" y="-2" type="curve"/>
      <point x="728" y="2"/>
      <point x="743" y="9"/>
      <point x="743" y="19" type="curve"/>
      <point x="743" y="42"/>
      <point x="721" y="48"/>
      <point x="697" y="48" type="curve"/>
      <point x="667" y="48"/>
      <point x="608" y="19"/>
      <point x="474" y="19" type="curve"/>
      <point x="313" y="19"/>
      <point x="262" y="82"/>
      <point x="262" y="138" type="curve"/>
      <point x="262" y="242"/>
      <point x="377" y="312"/>
      <point x="448" y="356" type="curve"/>
      <point x="508" y="392"/>
      <point x="617" y="437"/>
      <point x="671" y="457" type="curve"/>
      <point x="705" y="470"/>
      <point x="730" y="477"/>
      <point x="730" y="494" type="curve"/>
      <point x="730" y="510"/>
      <point x="713" y="546"/>
      <point x="681" y="566" type="curve"/>
      <point x="667" y="574"/>
      <point x="644" y="580"/>
      <point x="621" y="585" type="curve"/>
      <point x="612" y="567" type="line"/>
      <point x="634" y="558"/>
      <point x="657" y="546"/>
      <point x="665" y="527" type="curve"/>
      <point x="672" y="515"/>
      <point x="668" y="508"/>
      <point x="651" y="500" type="curve"/>
      <point x="612" y="480"/>
      <point x="516" y="437"/>
      <point x="446" y="398" type="curve"/>
      <point x="417" y="417"/>
      <point x="397" y="450"/>
      <point x="385" y="486" type="curve"/>
      <point x="371" y="529"/>
      <point x="358" y="603"/>
      <point x="354" y="638" type="curve"/>
      <point x="351" y="661"/>
      <point x="361" y="672"/>
      <point x="359" y="688" type="curve"/>
      <point x="358" y="704"/>
      <point x="311" y="730"/>
      <point x="277" y="730" type="curve"/>
      <point x="262" y="730"/>
      <point x="249" y="729"/>
    </contour>
  </outline>
</glyph>
<glyph name="uni306A-V" format="2">
  <advance width="1000"/>
  <outline>
    <contour>
      <point x="610" y="143" type="curve"/>
      <point x="610" y="123" type="line"/>
      <point x="610" y="65"/>
      <point x="596" y="12"/>
      <point x="497" y="12" type="curve"/>
      <point x="427" y="12"/>
      <point x="394" y="40"/>
      <point x="394" y="76" type="curve"/>
      <point x="394" y="112"/>
      <point x="442" y="150"/>
      <point x="532" y="150" type="curve"/>
      <point x="560" y="150"/>
      <point x="586" y="147"/>
    </contour>
    <contour>
      <point x="635" y="566" type="line"/>
      <point x="680" y="567"/>
      <point x="720" y="559"/>
      <point x="748" y="537" type="curve"/>
      <point x="769" y="522"/>
      <point x="771" y="508"/>
      <point x="745" y="497" type="curve"/>
      <point x="712" y="482"/>
      <point x="672" y="468"/>
      <point x="644" y="441" type="curve"/>
      <point x="613" y="411"/>
      <point x="597" y="378"/>
      <point x="597" y="324" type="curve"/>
      <point x="597" y="282"/>
      <point x="604" y="233"/>
      <point x="607" y="183" type="curve"/>
      <point x="591" y="185"/>
      <point x="575" y="186"/>
      <point x="558" y="186" type="curve"/>
      <point x="437" y="186"/>
      <point x="362" y="139"/>
      <point x="362" y="67" type="curve"/>
      <point x="362" y="16"/>
      <point x="410" y="-32"/>
      <point x="506" y="-32" type="curve"/>
      <point x="597" y="-32"/>
      <point x="651" y="16"/>
      <point x="651" y="94" type="curve"/>
      <point x="649" y="132" type="line"/>
      <point x="710" y="113"/>
      <point x="759" y="78"/>
      <point x="801" y="35" type="curve"/>
      <point x="814" y="21"/>
      <point x="825" y="9"/>
      <point x="839" y="9" type="curve"/>
      <point x="851" y="9"/>
      <point x="854" y="19"/>
      <point x="854" y="31" type="curve"/>
      <point x="854" y="49"/>
      <point x="843" y="71"/>
      <point x="804" y="100" type="curve"/>
      <point x="766" y="129"/>
      <point x="712" y="160"/>
      <point x="645" y="176" type="curve"/>
      <point x="639" y="236"/>
      <point x="630" y="304"/>
      <point x="630" y="333" type="curve"/>
      <point x="630" y="369"/>
      <point x="636" y="398"/>
      <point x="660" y="420" type="curve"/>
      <point x="684" y="443"/>
      <point x="719" y="456"/>
      <point x="754" y="461" type="curve"/>
      <point x="790" y="465"/>
      <point x="802" y="454"/>
      <point x="818" y="454" type="curve"/>
      <point x="831" y="454"/>
      <point x="839" y="464"/>
      <point x="839" y="481" type="curve"/>
      <point x="839" y="514"/>
      <point x="814" y="551"/>
      <point x="761" y="575" type="curve"/>
      <point x="725" y="590"/>
      <point x="680" y="595"/>
      <point x="636" y="592" type="curve"/>
    </contour>
    <contour>
      <point x="304" y="743" type="line"/>
      <point x="319" y="740"/>
      <point x="337" y="736"/>
      <point x="350" y="731" type="curve"/>
      <point x="367" y="726"/>
      <point x="369" y="720"/>
      <point x="369" y="700" type="curve"/>
      <point x="367" y="674"/>
      <point x="358" y="623"/>
      <point x="348" y="583" type="curve"/>
      <point x="327" y="578"/>
      <point x="300" y="574"/>
      <point x="272" y="574" type="curve"/>
      <point x="206" y="574"/>
      <point x="189" y="593"/>
      <point x="147" y="630" type="curve"/>
      <point x="130" y="614" type="line"/>
      <point x="162" y="561"/>
      <point x="192" y="532"/>
      <point x="260" y="532" type="curve"/>
      <point x="285" y="532"/>
      <point x="311" y="535"/>
      <point x="337" y="539" type="curve"/>
      <point x="294" y="389"/>
      <point x="210" y="259"/>
      <point x="154" y="180" type="curve"/>
      <point x="143" y="165"/>
      <point x="139" y="152"/>
      <point x="139" y="139" type="curve"/>
      <point x="139" y="127"/>
      <point x="144" y="113"/>
      <point x="158" y="113" type="curve"/>
      <point x="172" y="113"/>
      <point x="180" y="123"/>
      <point x="189" y="136" type="curve"/>
      <point x="268" y="252"/>
      <point x="342" y="435"/>
      <point x="374" y="546" type="curve"/>
      <point x="437" y="560"/>
      <point x="492" y="582"/>
      <point x="520" y="595" type="curve"/>
      <point x="529" y="599"/>
      <point x="553" y="612"/>
      <point x="553" y="628" type="curve"/>
      <point x="553" y="638"/>
      <point x="544" y="650"/>
      <point x="524" y="650" type="curve"/>
      <point x="506" y="650"/>
      <point x="488" y="625"/>
      <point x="387" y="594" type="curve"/>
      <point x="425" y="737"/>
      <point x="426" y="746"/>
      <point x="412" y="756" type="curve"/>
      <point x="397" y="765"/>
      <point x="371" y="769"/>
      <point x="352" y="769" type="curve"/>
      <point x="337" y="769"/>
      <point x="319" y="765"/>
      <point x="304" y="760" type="curve"/>
    </contour>
  </outline>
</glyph>
